<?xml version="1.0" standalone="no"?>
<!DOCTYPE svg PUBLIC "-//W3C//DTD SVG 20010904//EN"
 "http://www.w3.org/TR/2001/REC-SVG-20010904/DTD/svg10.dtd">
<svg version="1.0" xmlns="http://www.w3.org/2000/svg"
 width="2500.000000pt" height="2500.000000pt" viewBox="0 0 2500.000000 2500.000000"
 preserveAspectRatio="xMidYMid meet">

<g transform="translate(0.000000,2500.000000) scale(0.100000,-0.100000)"
fill="#000000" stroke="none">
<path d="M9785 24419 c-55 -3 -140 -7 -190 -8 -102 -1 -242 -24 -330 -54 -160
-54 -164 -56 -367 -165 -51 -28 -112 -58 -136 -68 -24 -9 -80 -39 -125 -65
-45 -27 -99 -59 -121 -72 -50 -29 -229 -192 -284 -259 -195 -237 -240 -301
-323 -448 -23 -41 -50 -87 -60 -101 -10 -14 -27 -49 -38 -78 -11 -30 -31 -70
-45 -90 -43 -64 -107 -249 -126 -366 -32 -193 -41 -287 -47 -474 -7 -224 5
-382 38 -521 40 -171 60 -243 75 -264 7 -12 29 -60 47 -107 18 -46 50 -109 71
-139 21 -30 56 -93 77 -139 21 -46 55 -106 76 -135 20 -28 47 -67 61 -86 52
-77 301 -332 397 -407 66 -51 157 -112 225 -150 74 -41 386 -157 483 -179 42
-10 77 -22 77 -28 0 -5 -18 -102 -39 -215 -42 -221 -74 -407 -92 -538 -8 -60
-8 -149 0 -345 7 -144 16 -371 21 -503 11 -296 14 -324 51 -560 67 -424 137
-753 215 -995 23 -74 56 -179 73 -232 17 -54 44 -126 60 -160 15 -35 32 -74
36 -88 7 -23 45 -103 124 -260 90 -177 305 -542 420 -710 182 -267 286 -397
422 -527 24 -23 93 -91 153 -152 120 -121 146 -141 480 -359 115 -76 421 -224
551 -267 222 -74 283 -103 356 -175 57 -55 72 -78 100 -150 l34 -85 0 -2490
c-1 -2516 -2 -2627 -36 -2734 -6 -20 -22 -61 -36 -92 -29 -66 -50 -75 -173
-78 -41 -1 -113 -6 -160 -11 -47 -5 -164 -11 -260 -15 -96 -3 -231 -10 -300
-15 -69 -6 -192 -15 -275 -20 -209 -14 -506 -46 -745 -80 -36 -5 -128 -14
-205 -20 -216 -16 -441 -67 -556 -125 -19 -10 -64 -39 -100 -66 -99 -73 -130
-155 -93 -251 23 -59 54 -90 143 -140 170 -98 416 -175 677 -213 249 -37 312
-44 366 -45 31 0 81 -6 111 -14 31 -8 135 -17 238 -21 101 -4 247 -13 324 -21
77 -8 183 -14 235 -14 52 0 158 -7 235 -15 77 -8 264 -19 415 -25 151 -6 319
-15 374 -20 197 -20 1687 -4 1856 19 41 6 155 18 253 26 99 9 200 20 225 25
130 26 225 51 302 79 47 16 112 35 145 41 143 28 318 143 346 229 29 87 9 179
-58 269 -29 38 -201 129 -319 167 -133 43 -345 84 -552 105 -51 6 -161 21
-245 34 -84 14 -197 27 -252 31 -55 4 -140 12 -190 20 -49 7 -137 18 -195 24
-58 7 -141 16 -185 21 -44 6 -157 10 -251 10 -94 0 -260 3 -368 7 l-197 6 -14
26 c-17 34 -52 140 -72 221 -15 59 -17 301 -22 2625 -5 1942 -3 2576 6 2625
17 94 40 150 75 187 37 38 62 49 408 166 487 164 672 262 995 521 101 80 365
339 441 431 94 115 365 539 477 745 87 164 144 285 167 360 13 41 27 80 31 85
17 24 95 223 146 375 111 332 165 538 218 835 15 83 33 175 41 206 7 31 34
177 60 325 43 250 46 285 51 494 3 132 0 270 -6 335 -6 61 -16 155 -21 210 -6
55 -14 127 -20 160 -11 71 -33 248 -50 395 -15 140 -111 611 -139 690 -34 92
-62 205 -53 208 6 2 -2 30 -20 70 -37 82 -66 167 -117 337 -21 72 -51 164 -66
205 -32 88 -54 174 -55 212 0 15 -6 31 -14 35 -7 4 -41 71 -76 148 -34 77 -73
162 -86 189 -13 28 -24 57 -24 66 0 26 -29 59 -69 79 -55 29 -158 59 -224 65
-32 4 -122 22 -200 41 -89 22 -189 39 -267 46 -68 5 -142 14 -165 19 -59 12
-139 20 -345 31 -102 5 -270 15 -375 22 -188 12 -991 13 -1124 1 l-64 -6 7 74
c5 50 2 100 -9 158 -8 47 -24 140 -35 208 -28 181 -110 429 -199 602 -84 164
-160 299 -215 384 -62 93 -217 273 -289 335 -131 114 -353 250 -506 311 -56
23 -135 59 -174 80 -177 95 -470 183 -651 195 -45 3 -97 7 -116 9 -19 1 -80
-1 -135 -5z m375 -101 c63 -11 158 -35 210 -53 212 -75 216 -77 243 -112 11
-13 37 -33 60 -45 23 -11 53 -28 67 -38 14 -9 65 -43 115 -76 49 -32 115 -81
146 -109 31 -27 90 -78 131 -113 276 -230 451 -500 561 -862 112 -367 129
-436 142 -559 26 -240 48 -852 32 -878 -6 -10 -47 -13 -155 -12 -196 2 -202 3
-220 58 -14 41 -13 45 4 58 10 7 26 13 36 13 10 0 37 19 61 43 59 58 82 135
81 277 0 89 -4 116 -27 175 l-26 70 22 45 c16 34 21 61 20 112 -4 141 -79 354
-157 447 -20 24 -41 52 -47 62 -5 11 -19 19 -29 19 -17 0 -20 7 -20 48 0 118
-90 344 -183 462 -63 79 -75 96 -100 145 -19 38 -44 64 -103 108 -76 56 -97
65 -199 86 -42 8 -57 6 -91 -9 -23 -10 -45 -23 -48 -29 -17 -27 -26 -6 -26 60
l0 71 -72 72 c-56 54 -95 82 -168 118 -143 71 -169 77 -391 80 -190 3 -195 2
-244 -22 -56 -28 -95 -78 -96 -124 0 -29 -1 -29 -9 -8 -5 12 -7 28 -4 35 19
51 -140 48 -371 -7 -91 -21 -133 -40 -210 -91 -125 -83 -182 -152 -171 -206 3
-16 18 -47 33 -67 l28 -37 -25 16 c-72 46 -70 45 -81 27 -6 -10 -15 -18 -21
-18 -15 0 -123 -78 -186 -135 -104 -94 -246 -346 -272 -485 -11 -59 3 -188 26
-232 9 -16 27 -31 47 -37 l32 -9 -34 -1 c-49 -1 -118 -75 -157 -167 -29 -69
-29 -70 -28 -269 0 -224 6 -256 72 -417 62 -147 87 -195 155 -293 80 -116 105
-130 219 -130 l86 0 -15 -35 c-42 -99 -53 -134 -53 -168 0 -44 35 -138 79
-214 34 -61 154 -197 203 -233 121 -88 201 -136 258 -155 36 -12 67 -23 69
-25 7 -7 -44 -175 -53 -175 -5 0 -56 24 -114 52 -76 38 -130 75 -196 133 -144
127 -264 245 -319 315 -28 36 -99 124 -158 195 -59 72 -135 172 -170 224 -35
52 -80 118 -100 147 -45 66 -139 345 -169 499 -40 206 -53 576 -25 755 7 52
19 129 25 170 6 41 28 127 49 190 21 63 41 127 45 141 13 58 159 338 212 409
109 144 247 291 344 364 52 39 107 77 123 84 15 6 27 18 27 26 0 30 229 148
390 202 95 32 192 47 395 58 247 14 339 11 495 -16z m-74 -304 c76 -3 145 -9
154 -13 8 -5 29 -11 47 -14 17 -3 53 -17 80 -30 26 -14 67 -34 91 -46 60 -31
160 -132 164 -168 10 -86 -39 -226 -122 -348 -27 -41 -127 -235 -219 -425 -60
-126 -130 -234 -203 -314 -61 -67 -79 -69 -104 -10 -18 42 -56 192 -73 284 -7
36 -24 103 -38 150 -40 136 -63 238 -78 345 -8 55 -21 138 -29 185 -22 125
-32 301 -17 328 6 12 18 22 25 22 8 0 20 9 27 20 9 14 35 25 79 34 36 7 68 12
71 10 4 -2 69 -6 145 -10z m1059 -118 c93 -62 132 -94 225 -186 143 -141 214
-237 320 -430 32 -58 76 -138 98 -178 23 -40 44 -83 47 -95 4 -12 20 -51 35
-87 47 -107 107 -318 124 -430 9 -58 23 -143 31 -190 16 -83 13 -202 -5 -225
-14 -18 -22 -85 -10 -85 15 0 4 -82 -27 -200 -14 -52 -27 -97 -29 -99 -2 -2
-4 27 -4 65 0 105 -19 432 -35 594 -12 118 -23 172 -60 290 -25 80 -45 149
-45 155 0 5 -21 75 -46 155 -51 161 -182 440 -243 518 -20 26 -51 67 -68 92
-51 74 -240 257 -355 344 -21 16 -38 33 -38 38 0 11 4 8 85 -46z m-1523 22
c10 -8 21 -43 28 -88 7 -41 23 -118 36 -170 13 -52 44 -197 69 -322 24 -126
59 -281 76 -345 69 -260 98 -453 67 -453 -25 0 -187 181 -263 294 -44 65 -101
144 -128 175 -26 31 -87 103 -135 160 -48 58 -142 159 -208 225 -67 67 -140
146 -162 176 -46 62 -47 82 -4 139 25 34 168 132 212 146 14 4 30 11 35 15 11
9 197 47 255 53 76 8 107 6 122 -5z m-1108 -40 c-83 -94 -149 -174 -197 -239
-57 -77 -181 -315 -211 -404 -9 -28 -31 -95 -50 -150 -35 -105 -42 -141 -77
-370 -20 -125 -21 -165 -16 -375 8 -298 33 -447 117 -702 67 -201 92 -254 147
-318 22 -25 57 -72 78 -105 21 -33 77 -107 125 -165 47 -58 121 -148 162 -200
83 -104 210 -231 360 -361 73 -64 123 -98 212 -142 91 -45 116 -62 116 -78 0
-42 -33 -151 -48 -157 -24 -9 -140 24 -317 90 -197 74 -264 108 -385 199 -110
82 -162 131 -308 290 -131 142 -191 224 -239 326 -20 43 -56 108 -80 146 -25
37 -60 106 -80 155 -19 48 -39 92 -44 99 -16 19 -80 263 -90 343 -5 41 -12
169 -15 285 -6 215 5 363 43 575 24 135 75 286 119 351 14 20 34 61 45 90 12
30 24 59 29 64 4 6 24 40 44 78 55 101 109 184 173 265 32 41 73 92 91 115 92
117 103 129 239 260 60 56 95 78 57 35z m2332 -233 c82 -12 223 -108 249 -171
8 -19 41 -69 74 -112 92 -119 152 -235 182 -351 25 -96 24 -167 -2 -236 -24
-66 -55 -89 -139 -106 -99 -20 -343 -90 -455 -131 -133 -49 -216 -74 -315 -93
-41 -8 -101 -20 -132 -26 -32 -7 -76 -9 -99 -6 -113 15 -158 160 -77 245 46
48 145 205 191 304 21 43 37 80 37 82 0 22 182 346 217 387 25 29 55 76 68
104 12 27 33 60 46 71 32 29 81 54 95 49 6 -2 33 -6 60 -10z m-1768 -287 c83
-90 186 -197 229 -238 107 -104 248 -284 301 -385 11 -22 41 -64 66 -94 89
-108 121 -198 79 -228 -24 -18 -108 -8 -248 29 -60 16 -150 38 -200 48 -49 11
-128 28 -175 39 -47 11 -141 31 -210 45 -148 28 -319 77 -375 106 -21 11 -47
20 -56 20 -26 0 -36 20 -49 101 -15 93 -5 149 49 270 76 172 177 302 306 394
53 38 76 48 121 54 7 0 79 -72 162 -161z m120 -52 c63 -64 80 -86 69 -86 -1 0
-38 36 -82 80 -44 44 -75 80 -69 80 6 0 43 -33 82 -74z m2257 -544 c93 -113
143 -237 165 -409 7 -57 6 -81 -6 -117 -9 -25 -19 -46 -24 -46 -4 0 -27 9 -52
20 -53 23 -137 36 -363 55 -193 16 -261 22 -392 35 -120 13 -359 13 -402 0
-19 -5 -39 -6 -45 -1 -6 5 -28 11 -49 15 -79 14 -51 60 43 71 108 12 270 54
420 110 111 42 393 123 480 139 76 14 116 43 146 106 16 33 34 60 39 60 6 0
24 -17 40 -38z m-2863 -176 c106 -28 221 -60 289 -81 83 -26 458 -100 554
-110 176 -17 315 -63 337 -111 10 -22 8 -32 -12 -71 -44 -83 -320 -304 -558
-448 -72 -43 -168 -121 -237 -192 -33 -33 -86 -84 -118 -112 -53 -47 -61 -51
-108 -51 -106 0 -123 12 -205 134 -83 125 -174 332 -199 452 -17 84 -20 344
-5 412 23 99 98 202 146 202 13 0 65 -11 116 -24z m1262 -60 c21 -14 45 -26
52 -26 22 0 44 30 44 62 l0 30 33 -20 c17 -10 40 -17 50 -15 13 4 17 -2 17
-24 0 -53 64 -138 112 -148 30 -7 32 -10 42 -56 4 -17 17 -31 36 -39 l30 -12
-30 -28 c-26 -24 -30 -35 -30 -78 0 -28 5 -63 10 -78 9 -23 7 -31 -10 -48
l-20 -20 -53 52 c-64 63 -102 74 -146 41 -16 -12 -38 -38 -47 -58 -17 -36 -18
-36 -24 -11 -12 42 -39 89 -59 100 -11 5 -33 10 -50 10 -36 0 -38 5 -11 45 33
50 22 99 -35 147 -11 10 -15 17 -7 18 6 0 21 9 32 20 32 32 27 101 -11 169
l-31 56 33 -32 c19 -17 52 -43 73 -57z m996 -272 c91 -8 233 -19 315 -24 83
-5 164 -12 180 -15 220 -42 240 -55 275 -171 40 -135 16 -309 -53 -381 -17
-18 -37 -33 -44 -33 -8 0 -27 -7 -44 -15 -28 -15 -37 -14 -167 25 -228 68
-326 101 -348 115 -11 7 -59 28 -105 46 -46 17 -120 47 -164 64 -44 18 -105
43 -135 55 -181 73 -276 130 -297 178 -7 15 -12 48 -13 74 0 43 3 48 33 64 17
9 52 20 77 24 80 13 321 10 490 -6z m-997 -152 c21 -18 37 -89 37 -166 0 -55
18 -135 44 -197 6 -13 0 -16 -29 -17 -42 -2 -75 -17 -75 -36 0 -7 -25 -62 -56
-122 -31 -60 -64 -129 -74 -154 -9 -25 -53 -128 -97 -230 -44 -102 -113 -276
-153 -387 -46 -128 -78 -203 -87 -203 -30 0 -131 42 -183 77 -113 75 -240 191
-293 269 -44 64 -97 195 -97 238 0 24 17 77 45 142 25 56 45 107 45 112 0 9
88 82 164 136 23 16 70 52 105 80 36 28 86 67 112 86 49 36 128 97 284 220
226 177 215 170 255 167 21 -1 44 -8 53 -15z m252 -50 c83 -80 310 -431 290
-450 -5 -5 -146 25 -270 58 -38 10 -86 21 -106 24 -32 6 -38 11 -42 39 -3 17
-14 57 -26 87 -37 99 -20 187 52 268 29 32 46 28 102 -26z m211 -57 c36 -27
171 -95 190 -95 6 0 45 -16 87 -35 42 -20 116 -49 164 -66 49 -17 120 -46 158
-64 79 -38 163 -67 345 -120 69 -20 129 -43 133 -51 4 -8 16 -14 26 -14 18 0
41 -37 41 -67 0 -26 -240 -8 -665 51 -360 51 -332 39 -410 181 -21 39 -54 94
-74 124 -48 71 -48 70 -67 113 -9 21 -14 45 -10 53 8 23 45 18 82 -10z m3136
-15 c90 -5 244 -18 343 -29 99 -11 225 -22 280 -26 101 -7 266 -32 520 -80
231 -43 258 -54 237 -99 -6 -14 -30 -35 -53 -46 -66 -34 -255 -88 -369 -105
-58 -9 -163 -25 -235 -36 -127 -20 -295 -40 -345 -41 -14 0 -86 -9 -160 -19
-128 -17 -361 -39 -590 -56 -133 -10 -980 -6 -1040 4 -43 8 -45 10 -48 46 -2
22 8 72 22 115 37 115 76 274 76 310 0 17 5 43 10 58 l11 27 589 -7 c325 -4
663 -11 752 -16z m1443 -334 c11 -7 34 -45 52 -82 66 -142 132 -301 146 -354
9 -30 30 -95 47 -145 42 -115 100 -327 93 -338 -2 -4 0 -13 5 -20 5 -7 13 -23
17 -37 4 -14 16 -44 26 -66 10 -23 24 -64 30 -90 6 -27 27 -94 45 -149 18 -55
42 -136 53 -180 33 -132 100 -479 111 -573 27 -232 41 -345 54 -437 8 -55 19
-158 26 -230 6 -71 16 -170 20 -219 9 -94 -3 -400 -20 -496 -5 -30 -17 -100
-25 -155 -25 -150 -54 -313 -70 -380 -7 -33 -25 -125 -40 -205 -37 -200 -80
-394 -111 -492 -97 -317 -145 -456 -215 -619 -43 -103 -79 -195 -79 -205 0
-48 -244 -491 -391 -712 -30 -44 -80 -121 -111 -170 -79 -124 -129 -182 -308
-362 -302 -304 -582 -494 -920 -625 -203 -79 -331 -124 -540 -189 -47 -15
-103 -36 -125 -49 l-39 -22 -71 24 c-84 29 -215 39 -290 22 -67 -15 -147 -64
-139 -86 8 -21 27 -19 49 5 49 54 227 70 348 31 38 -12 67 -25 65 -29 -2 -4
-15 -29 -29 -57 -15 -27 -35 -86 -45 -130 -18 -77 -19 -162 -13 -2655 6 -2797
2 -2608 58 -2776 35 -105 56 -147 106 -209 110 -137 185 -196 224 -175 29 15
26 36 -6 57 -40 27 -133 118 -133 131 0 15 591 5 780 -14 201 -19 322 -34 341
-40 9 -2 90 -11 180 -18 90 -8 236 -25 324 -39 88 -13 206 -30 262 -36 159
-18 355 -59 472 -98 70 -23 246 -111 266 -133 17 -19 17 -21 0 -40 -28 -31
-111 -75 -195 -104 -154 -52 -316 -84 -660 -127 -104 -13 -174 -26 -190 -36
-40 -26 -11 -27 173 -4 483 61 691 111 849 206 33 19 61 35 63 35 2 0 9 -17
16 -38 10 -34 8 -44 -14 -89 -14 -28 -38 -64 -52 -81 -32 -38 -151 -96 -231
-112 -32 -6 -104 -27 -159 -46 -141 -50 -306 -82 -512 -99 -98 -8 -209 -20
-248 -26 -157 -23 -1654 -39 -1852 -19 -54 5 -222 14 -373 20 -151 6 -315 15
-365 21 -49 6 -173 14 -275 19 -102 5 -243 13 -315 19 -71 6 -240 20 -375 31
-326 27 -628 63 -665 80 -11 5 -51 14 -90 20 -153 23 -390 107 -501 177 -41
27 -60 51 -29 40 8 -4 42 -11 77 -18 35 -7 93 -20 129 -30 36 -11 82 -19 100
-19 19 0 66 -9 104 -19 97 -26 179 -39 330 -51 72 -5 213 -21 315 -34 147 -20
265 -27 575 -36 215 -6 416 -14 449 -17 53 -6 58 -5 54 13 -5 27 -45 30 -507
43 -311 9 -438 16 -591 36 -107 13 -253 29 -325 36 -117 10 -205 24 -305 49
-19 5 -48 12 -65 15 -16 3 -100 22 -185 41 -85 20 -165 38 -177 40 -13 2 -30
16 -39 30 -53 81 91 201 309 259 148 39 233 54 377 65 74 5 167 14 205 20 473
65 1084 115 1684 137 l124 4 -15 -23 c-20 -31 -105 -88 -132 -88 -47 0 -63
-53 -22 -71 19 -9 33 -6 78 15 117 55 236 207 287 366 45 141 45 138 50 2690
5 2196 4 2437 -10 2555 -21 169 -36 202 -138 297 -73 69 -184 138 -223 138 -6
0 -20 7 -29 16 -10 9 -35 19 -55 21 -76 8 -323 113 -514 218 -141 78 -429 275
-510 349 -161 148 -358 353 -415 431 -33 45 -85 115 -115 156 -119 159 -249
359 -335 519 -99 182 -118 215 -152 269 -19 29 -43 76 -54 104 -24 60 -45 107
-109 242 -58 123 -71 159 -114 305 -19 63 -53 176 -75 250 -47 151 -54 181
-110 470 -85 441 -108 622 -121 950 -5 140 -15 359 -21 485 -12 259 -10 313
27 540 25 156 90 502 100 538 6 20 65 23 124 7 123 -33 545 -52 700 -30 284
39 534 107 795 218 152 64 443 276 605 441 85 86 117 127 211 276 28 44 77
114 107 155 45 59 65 98 98 195 38 113 42 120 65 116 13 -3 215 -4 449 -2 392
1 620 12 925 41 55 5 195 14 310 20 116 5 257 18 315 29 58 10 137 22 175 25
39 4 93 14 120 21 137 38 163 44 205 50 76 11 310 83 338 105 32 23 41 24 67
6z m-4968 -24 c20 -12 36 -235 30 -407 -7 -197 -25 -286 -81 -407 -35 -75 -56
-105 -109 -156 -79 -76 -152 -112 -224 -112 -28 0 -63 4 -77 10 l-25 9 29 83
c104 303 228 605 358 870 55 113 69 129 99 110z m323 -92 c218 -40 216 -39
254 -95 18 -28 39 -68 46 -90 18 -57 94 -214 125 -259 65 -96 143 -281 159
-377 5 -30 2 -42 -19 -67 -14 -17 -36 -34 -48 -38 -12 -4 -35 -17 -50 -30 -16
-13 -35 -24 -44 -24 -8 0 -36 -11 -62 -25 -92 -49 -156 -77 -196 -85 -169 -35
-193 -37 -315 -31 -139 8 -172 19 -214 74 -60 78 -72 149 -35 198 42 56 106
208 124 293 18 88 26 494 12 578 l-8 47 78 -24 c43 -13 130 -33 193 -45z m545
-79 c83 -10 204 -24 270 -30 66 -6 165 -16 220 -21 55 -6 126 -10 159 -10 l58
0 -4 -72 c-3 -61 -10 -85 -42 -147 -67 -130 -126 -200 -220 -265 -35 -24 -78
-47 -95 -51 -17 -4 -33 -11 -36 -16 -4 -5 -43 -9 -88 -9 -70 0 -88 4 -122 25
-22 14 -48 28 -57 31 -9 3 -35 45 -58 92 -23 48 -53 101 -66 118 -29 39 -87
158 -120 244 -14 36 -36 83 -51 104 l-25 39 63 -6 c35 -4 132 -15 214 -26z
m1062 -85 c5 -4 -59 -174 -89 -236 -52 -109 -158 -257 -263 -368 -149 -159
-230 -225 -395 -324 -217 -130 -313 -170 -456 -187 -54 -7 -124 -16 -154 -22
-30 -5 -133 -14 -229 -20 -175 -12 -180 -12 -481 22 -52 6 -140 22 -195 36
-55 14 -121 29 -147 34 -27 4 -53 11 -59 15 -13 7 -6 48 22 141 17 53 23 63
37 57 9 -4 44 -9 77 -11 74 -6 153 21 213 73 l42 35 10 -25 c5 -14 15 -38 20
-52 25 -64 69 -111 127 -137 54 -24 71 -27 199 -28 146 -1 311 25 362 58 13 8
41 21 63 28 22 8 52 23 67 33 15 11 40 22 56 26 16 4 43 18 59 32 16 13 34 24
41 24 7 0 29 15 50 34 l38 34 -5 68 c-3 38 -9 81 -12 97 l-7 27 43 -20 c32
-14 66 -20 121 -20 66 0 87 5 152 34 151 69 252 173 336 348 34 69 40 92 40
146 l0 64 158 -7 c86 -4 158 -8 159 -9z m-2412 -1146 c28 -5 82 -18 120 -30
39 -11 106 -24 150 -30 44 -5 125 -14 180 -20 134 -15 432 -13 563 4 59 8 134
17 167 20 l60 5 -35 -16 c-51 -23 -284 -80 -449 -109 -118 -20 -181 -26 -340
-27 -187 -2 -204 0 -361 32 -91 18 -170 37 -177 43 -8 6 -9 18 -3 36 5 15 14
47 20 70 10 39 14 43 33 38 12 -4 45 -11 72 -16z"/>
<path d="M15195 18886 c-65 -67 -76 -73 -155 -98 -125 -39 -201 -56 -340 -78
-69 -11 -172 -29 -230 -40 -195 -37 -583 -89 -860 -116 -237 -22 -348 -27
-795 -32 -890 -12 -1258 2 -1730 64 -104 13 -233 29 -285 34 -52 4 -156 18
-230 29 -74 12 -166 26 -205 32 -38 6 -97 15 -130 20 -33 6 -96 14 -140 19
-236 26 -439 93 -582 191 -30 21 -42 25 -46 16 -3 -8 -2 -60 1 -118 4 -57 4
-205 1 -329 -9 -315 18 -607 76 -815 14 -49 25 -103 25 -120 0 -76 112 -419
247 -760 31 -77 60 -156 65 -175 11 -41 46 -121 141 -325 38 -82 88 -195 111
-250 41 -96 213 -375 303 -490 22 -27 53 -70 69 -95 62 -98 154 -212 290 -360
174 -192 210 -223 379 -332 44 -28 106 -69 137 -90 76 -52 288 -156 418 -206
235 -91 310 -112 430 -123 63 -5 138 -15 166 -21 32 -6 116 -9 215 -6 154 5
170 8 269 41 162 55 459 198 600 291 185 122 242 165 385 294 351 314 516 522
735 922 182 332 229 442 421 990 38 108 92 311 134 510 18 85 43 193 55 240
11 47 29 172 40 278 10 105 26 229 34 275 19 104 34 288 41 487 3 85 8 192 11
238 4 45 5 82 3 81 -2 -1 -35 -33 -74 -73z"/>
<path d="M12227 8343 c-37 -36 120 -85 202 -63 54 14 90 44 74 61 -10 10 -21
8 -54 -10 -35 -20 -49 -22 -97 -16 -31 4 -69 13 -84 21 -31 16 -32 16 -41 7z"/>
<path d="M12047 7996 c-6 -16 20 -42 78 -77 l40 -24 -28 -3 c-16 -2 -42 1 -60
7 -39 14 -59 -1 -35 -25 20 -20 174 -31 228 -17 57 15 50 38 -16 51 -57 12
-105 36 -157 79 -33 27 -43 28 -50 9z"/>
<path d="M12613 7968 c-48 -42 -114 -77 -144 -78 -26 0 -42 -25 -26 -39 8 -6
16 -8 19 -6 10 11 203 23 219 14 19 -10 40 7 32 27 -3 10 -23 14 -62 14 l-56
1 49 44 c27 24 45 48 42 54 -11 18 -22 13 -73 -31z"/>
<path d="M14020 7468 c-30 -5 -216 -11 -413 -12 -196 -2 -360 -5 -362 -8 -44
-43 450 -49 845 -9 48 4 65 10 65 21 0 18 -56 22 -135 8z"/>
<path d="M5331 6558 c-19 -21 -52 -48 -73 -59 -26 -13 -38 -26 -36 -37 5 -25
47 -27 79 -3 15 12 30 21 33 21 3 0 7 -60 8 -132 3 -132 3 -133 27 -136 13 -2
28 2 32 10 14 21 11 352 -3 366 -19 19 -30 13 -67 -30z"/>
<path d="M9830 6578 c-40 -27 -64 -70 -55 -98 11 -34 43 -24 65 20 24 47 58
60 95 36 18 -12 25 -25 25 -48 0 -26 -14 -45 -89 -117 -141 -137 -135 -161 40
-161 111 0 139 10 125 45 -4 12 -23 15 -86 15 -44 0 -80 4 -80 9 0 5 30 35 66
67 36 32 72 70 80 85 23 46 18 94 -14 130 -24 27 -37 33 -83 36 -45 4 -60 1
-89 -19z"/>
<path d="M14433 6586 c-57 -26 -84 -98 -38 -103 13 -2 27 8 40 30 26 41 66 48
89 15 9 -12 16 -27 16 -33 0 -24 -29 -48 -66 -54 -30 -5 -39 -11 -39 -26 0
-16 9 -21 48 -26 53 -6 67 -19 67 -65 0 -36 -26 -64 -61 -64 -32 0 -43 9 -63
47 -20 40 -33 48 -51 33 -31 -26 -6 -89 46 -116 60 -31 149 -11 183 40 25 39
21 102 -9 132 l-24 24 20 39 c23 45 19 79 -16 111 -30 28 -98 36 -142 16z"/>
<path d="M18999 6493 c-109 -143 -117 -156 -100 -177 10 -12 32 -16 92 -16
l79 0 0 -29 c0 -44 10 -61 35 -61 25 0 35 17 35 60 0 22 5 29 23 32 34 5 36
45 3 54 -26 6 -26 7 -26 106 0 176 -25 181 -141 31z m71 -63 l0 -70 -51 0
c-28 0 -49 4 -47 8 4 10 92 131 96 132 1 0 2 -31 2 -70z"/>
<path d="M23522 6578 c-13 -16 -41 -168 -35 -185 7 -17 43 -16 67 2 51 39 116
5 116 -60 0 -79 -77 -104 -126 -40 -40 53 -75 41 -60 -20 10 -38 61 -65 125
-65 49 0 57 3 92 39 35 35 39 44 39 91 0 46 -4 56 -35 87 -34 34 -38 35 -90
31 -54 -5 -55 -4 -55 22 0 47 18 59 95 62 62 3 70 5 70 23 0 18 -8 20 -96 23
-69 2 -99 -1 -107 -10z"/>
<path d="M5320 5405 l0 -455 -2275 0 -2275 0 0 -805 0 -805 11430 0 11430 0 0
1260 0 1260 -30 0 -30 0 0 -455 0 -455 -2245 0 -2245 0 0 455 0 455 -30 0 -30
0 0 -455 0 -455 -2250 0 -2250 0 0 455 0 455 -30 0 -30 0 0 -455 0 -455 -2265
0 -2265 0 0 455 0 455 -30 0 -30 0 0 -455 0 -455 -2245 0 -2245 0 0 455 0 455
-30 0 -30 0 0 -455z m0 -1260 l0 -745 -2245 0 -2245 0 0 745 0 745 2245 0
2245 0 0 -745z m4550 -5 l0 -740 -2245 0 -2245 0 0 740 0 740 2245 0 2245 0 0
-740z"/>
<path d="M3448 2298 c-27 -32 -71 -67 -109 -88 -66 -37 -84 -65 -59 -96 19
-22 41 -17 104 21 32 19 60 35 62 35 2 0 4 -86 4 -191 0 -112 4 -198 10 -210
7 -13 21 -19 45 -19 24 0 38 6 45 19 6 12 10 120 10 281 0 161 -4 269 -10 281
-19 34 -54 23 -102 -33z"/>
<path d="M5598 2298 c-26 -31 -71 -68 -109 -88 -69 -38 -88 -72 -53 -97 26
-19 34 -17 98 22 32 19 60 35 62 35 2 0 4 -86 4 -191 0 -112 4 -198 10 -210 7
-13 21 -19 45 -19 24 0 38 6 45 19 15 29 14 553 -2 569 -24 24 -54 12 -100
-40z"/>
<path d="M10210 2168 c-39 -101 -88 -226 -108 -278 -29 -75 -38 -89 -40 -68
l-3 28 -37 -25 c-57 -39 -157 -27 -176 20 -20 53 4 144 43 165 28 15 61 12 67
-5 10 -25 43 -18 50 10 9 35 -1 53 -33 66 -42 16 -108 5 -148 -25 -50 -39 -78
-99 -80 -170 -1 -51 -4 -60 -25 -72 -46 -25 -100 -15 -100 18 0 11 16 67 35
125 19 58 35 111 35 118 0 22 -52 33 -77 17 -11 -7 -59 -152 -77 -232 -10 -47
-107 -80 -134 -47 -18 21 4 96 90 314 33 84 58 160 54 168 -4 12 -16 15 -43
13 l-38 -3 -45 -110 -44 -110 -61 0 c-50 0 -69 -5 -103 -28 -49 -32 -99 -113
-108 -175 -8 -51 -41 -82 -89 -82 -59 0 -61 17 -20 139 41 125 42 155 5 159
-43 5 -58 -18 -94 -143 -29 -103 -38 -122 -62 -137 -50 -31 -129 -20 -161 21
-15 19 -17 80 -3 115 21 57 87 88 108 50 5 -9 18 -14 28 -12 31 6 26 69 -6 85
-61 31 -152 0 -194 -65 -31 -47 -49 -115 -41 -152 5 -25 2 -31 -25 -45 -17 -9
-46 -15 -63 -13 -30 3 -32 6 -31 38 0 20 20 79 43 132 24 54 40 102 36 108 -7
11 -68 14 -79 3 -4 -4 -39 -7 -80 -8 -62 0 -78 -4 -114 -28 -93 -61 -142 -206
-91 -271 40 -50 123 -31 189 45 12 13 19 18 15 11 -12 -23 4 -58 30 -70 41
-19 107 -14 157 11 45 23 45 23 82 4 58 -30 143 -34 201 -8 44 20 50 20 66 5
27 -25 91 -29 150 -10 46 16 53 16 68 2 39 -35 116 -12 167 51 l23 28 1 -25
c0 -14 4 -30 8 -36 25 -37 116 -45 175 -15 36 18 38 18 74 0 49 -25 100 -24
154 4 l44 22 40 -20 c54 -27 169 -28 209 -2 34 22 40 18 26 -17 -10 -27 -9
-27 26 -24 l37 3 118 300 c66 164 119 303 119 307 0 4 -15 8 -34 8 l-34 0 -72
-182z m-1795 -158 c9 -14 -65 -137 -103 -173 -63 -61 -94 -5 -46 84 38 68 128
123 149 89z m935 -3 c0 -17 -76 -146 -102 -174 -12 -13 -29 -23 -39 -23 -51 0
-15 116 56 179 36 31 85 42 85 18z"/>
<path d="M4096 2318 c-22 -37 -59 -264 -46 -288 15 -28 56 -25 103 7 57 40
110 38 148 -5 25 -27 29 -41 29 -88 0 -48 -4 -59 -29 -85 -53 -53 -138 -33
-176 41 -17 34 -46 45 -75 30 -41 -22 -17 -98 47 -147 32 -24 47 -28 117 -31
70 -3 87 0 126 21 57 30 98 94 107 165 5 43 1 60 -21 107 -38 77 -93 109 -174
103 -31 -3 -65 -9 -76 -13 -17 -8 -18 -5 -11 41 4 27 9 52 12 57 2 4 50 7 106
7 112 0 147 13 147 54 0 42 -16 46 -172 46 -142 0 -148 -1 -162 -22z"/>
<path d="M15181 2326 c-9 -10 -61 -253 -61 -282 0 -1 7 -10 16 -18 22 -22 54
-20 94 7 46 32 81 39 118 26 74 -26 91 -141 30 -206 -16 -17 -32 -23 -66 -23
-45 0 -62 12 -118 87 -19 24 -25 27 -50 18 -61 -22 -31 -115 51 -163 34 -19
51 -22 122 -20 72 3 86 6 124 33 59 42 84 94 84 176 0 55 -5 72 -28 107 -38
59 -95 85 -166 79 -31 -2 -65 -8 -75 -12 -17 -8 -18 -5 -12 31 14 79 7 74 119
74 112 0 147 13 147 54 0 42 -16 46 -171 46 -114 0 -149 -3 -158 -14z"/>
<path d="M17952 2328 c-7 -7 -12 -22 -12 -33 0 -12 -11 -44 -25 -71 -31 -61
-31 -74 -2 -74 42 0 117 106 117 165 0 22 -4 25 -33 25 -18 0 -38 -5 -45 -12z"/>
<path d="M1382 2303 c-31 -15 -80 -75 -95 -115 -10 -27 -36 -22 -68 13 -31 33
-49 31 -49 -6 0 -39 11 -55 51 -75 l38 -20 -33 -97 c-36 -105 -35 -104 -101
-79 -22 8 -55 15 -73 16 -75 1 -140 -59 -126 -115 19 -77 170 -100 259 -40
l34 24 44 -24 c65 -37 124 -42 181 -16 47 20 47 20 84 1 46 -25 197 -28 240
-6 24 12 30 12 47 0 10 -8 38 -14 62 -14 37 0 50 6 87 40 65 60 109 150 110
223 1 72 -17 92 -62 67 -30 -17 -42 -71 -21 -96 15 -19 -1 -72 -39 -128 -32
-47 -53 -61 -77 -52 -23 9 -14 56 31 161 19 45 34 89 34 98 0 19 -42 40 -64
31 -28 -11 -86 -167 -86 -231 0 -23 -7 -37 -24 -48 -26 -17 -106 -23 -144 -11
-22 8 -22 10 28 62 76 80 97 145 64 192 -23 33 -59 44 -104 32 -81 -22 -129
-91 -138 -198 -4 -57 -8 -64 -33 -77 -15 -8 -41 -15 -56 -15 -34 0 -119 41
-116 55 1 6 16 46 33 90 16 44 34 98 40 121 9 35 15 42 47 53 65 20 113 74
113 126 0 36 -8 48 -37 64 -29 15 -41 14 -81 -6z m78 -47 c0 -23 -59 -86 -80
-86 -22 0 -5 54 28 93 23 26 52 22 52 -7z m206 -241 c12 -29 -8 -70 -54 -115
l-47 -45 -3 33 c-4 41 31 115 61 130 30 15 37 14 43 -3z m-576 -135 c20 -5 45
-16 55 -24 18 -13 18 -15 -15 -35 -63 -38 -150 -23 -150 25 0 38 45 52 110 34z"/>
<path d="M9016 2288 c-19 -27 -20 -50 -4 -66 29 -29 88 1 88 44 0 45 -58 60
-84 22z"/>
<path d="M9675 2294 c-10 -10 -15 -29 -13 -48 3 -27 7 -31 35 -34 23 -2 35 3
47 20 20 28 20 42 0 62 -20 21 -48 20 -69 0z"/>
<path d="M12466 2288 c-19 -27 -20 -50 -4 -66 29 -29 88 1 88 44 0 45 -58 60
-84 22z"/>
<path d="M13656 2288 c-19 -27 -20 -50 -4 -66 29 -29 88 1 88 44 0 45 -58 60
-84 22z"/>
<path d="M21336 2288 c-31 -44 -11 -82 41 -76 33 4 54 48 37 76 -17 27 -59 27
-78 0z"/>
<path d="M22526 2288 c-31 -44 -11 -82 41 -76 33 4 54 48 37 76 -17 27 -59 27
-78 0z"/>
<path d="M2582 2293 c-30 -12 -97 -202 -131 -371 -22 -108 -39 -124 -131 -124
-89 0 -94 12 -33 75 61 62 73 84 73 131 0 49 -8 65 -42 82 -60 31 -144 -10
-182 -89 -51 -104 -41 -186 26 -227 43 -26 192 -29 244 -4 32 15 36 15 53 0
22 -20 118 -22 165 -2 29 12 37 12 53 1 14 -10 56 -14 145 -14 106 0 130 3
157 20 35 21 46 41 37 65 -5 13 -11 12 -37 -10 -20 -17 -43 -26 -64 -26 l-34
0 20 45 c23 53 20 87 -16 151 -19 36 -20 44 -9 65 7 13 13 32 14 41 0 25 -47
35 -79 17 -21 -12 -27 -24 -31 -65 -4 -41 -16 -65 -65 -133 -80 -111 -126
-141 -182 -120 -21 8 -24 13 -18 42 18 88 70 238 102 290 67 111 49 194 -35
160z m-277 -274 c13 -19 -6 -60 -47 -105 -45 -49 -68 -56 -68 -21 1 72 89 169
115 126z m517 -134 c-12 -67 -55 -101 -83 -63 -17 21 -16 24 29 82 44 57 47
59 53 36 3 -14 4 -38 1 -55z"/>
<path d="M12237 2271 c-33 -40 -127 -341 -127 -408 0 -32 -54 -64 -100 -61
-33 3 -35 5 -34 38 0 19 20 78 43 130 23 51 39 100 37 107 -6 14 -67 18 -80 6
-4 -4 -40 -7 -80 -8 -66 0 -79 -3 -118 -30 -50 -36 -108 -137 -108 -191 0 -38
-20 -54 -69 -54 -36 0 -37 2 -15 35 23 35 15 126 -14 165 -20 27 -21 31 -6 65
12 28 12 40 3 51 -32 39 -116 -12 -104 -64 4 -22 -3 -42 -34 -89 -50 -77 -106
-140 -143 -159 -28 -15 -37 -37 -18 -49 6 -4 24 1 41 9 27 13 34 13 52 1 29
-18 249 -19 294 0 27 11 34 11 44 -1 6 -8 29 -14 53 -14 44 0 87 24 124 71
l20 24 -5 -26 c-11 -59 88 -89 177 -53 38 15 42 15 59 0 27 -24 136 -22 180 5
31 19 34 19 52 3 26 -24 96 -29 149 -10 39 13 46 13 60 1 24 -22 87 -18 126 6
76 46 156 213 138 285 -12 46 -84 40 -99 -7 -4 -12 -2 -39 5 -60 12 -34 11
-44 -6 -81 -25 -56 -71 -108 -95 -108 -32 0 -24 62 22 168 22 52 38 100 35
107 -8 22 -59 26 -79 6 -23 -22 -77 -175 -77 -218 0 -49 -58 -78 -114 -57 -22
9 -21 21 19 140 39 117 42 142 19 151 -39 15 -66 -10 -90 -79 -12 -37 -28 -92
-35 -123 -10 -43 -19 -61 -43 -78 -31 -22 -89 -28 -107 -10 -20 20 51 255 102
335 35 54 48 120 29 143 -20 24 -56 18 -83 -14z m-302 -261 c9 -14 -42 -104
-88 -157 -72 -81 -116 -33 -61 68 37 68 128 123 149 89z m-425 -105 c0 -35 -6
-52 -29 -77 l-30 -33 -21 23 -21 23 43 58 c24 33 46 57 51 54 4 -2 7 -24 7
-48z"/>
<path d="M21118 2283 c-8 -10 -23 -32 -31 -49 -20 -40 -82 -250 -98 -332 -13
-70 -43 -102 -96 -102 -66 1 -66 17 -2 169 22 51 38 100 35 107 -6 14 -67 20
-80 7 -4 -4 -39 -7 -79 -8 -62 0 -78 -4 -111 -27 -54 -37 -92 -97 -107 -166
-14 -65 -29 -82 -75 -82 l-33 0 20 45 c23 53 20 87 -16 151 -19 36 -20 44 -9
65 7 13 13 32 14 41 0 25 -47 35 -79 17 -21 -12 -27 -24 -31 -65 -4 -41 -16
-65 -65 -133 -39 -54 -75 -92 -102 -108 -45 -26 -48 -30 -34 -51 7 -11 14 -11
44 1 30 13 38 13 54 2 27 -19 257 -19 293 0 21 11 28 11 45 -1 45 -33 134 -6
172 53 l18 27 5 -34 c3 -24 13 -38 30 -47 34 -17 103 -16 146 2 32 13 38 13
57 0 33 -23 134 -20 176 6 31 19 34 19 52 3 27 -24 106 -30 153 -10 35 15 41
15 56 1 23 -21 89 -19 126 4 88 54 175 258 129 304 -24 24 -50 21 -74 -9 -25
-32 -26 -52 -5 -83 15 -21 14 -26 -17 -88 -34 -68 -68 -99 -94 -89 -24 9 -17
54 21 146 51 121 52 128 19 140 -37 14 -58 0 -83 -59 -23 -53 -52 -154 -52
-183 0 -24 -38 -48 -76 -48 -58 0 -59 16 -15 151 42 130 42 149 -3 149 -40 0
-54 -23 -87 -140 -17 -63 -36 -121 -42 -128 -21 -26 -68 -43 -99 -37 -30 7
-30 8 -25 54 8 69 64 235 98 289 39 64 50 104 35 133 -15 30 -56 36 -78 12z
m-313 -273 c9 -14 -49 -119 -91 -162 -58 -62 -98 -45 -75 32 25 83 140 173
166 130z m-423 -125 c-12 -67 -55 -101 -83 -63 -17 21 -16 24 29 82 44 57 47
59 53 36 3 -14 4 -38 1 -55z"/>
<path d="M7752 2242 c-6 -5 -23 -44 -36 -88 -17 -59 -28 -80 -42 -83 -38 -7
-64 -51 -30 -51 26 0 27 -18 6 -88 -27 -92 -26 -127 5 -157 20 -21 34 -25 87
-25 77 0 128 26 128 65 0 31 0 31 -47 -1 -26 -18 -45 -23 -63 -19 -42 10 -51
30 -34 83 8 26 19 66 25 90 10 39 14 42 44 42 34 0 61 22 50 40 -3 5 -17 10
-31 10 -30 0 -31 16 -3 98 12 34 18 69 15 77 -6 16 -53 20 -74 7z"/>
<path d="M13419 2240 c-9 -5 -26 -45 -39 -89 -20 -72 -25 -80 -49 -83 -33 -4
-43 -43 -12 -51 19 -5 19 -5 -2 -84 -17 -66 -26 -83 -55 -106 -39 -30 -92 -36
-112 -12 -9 11 -3 37 35 130 26 63 44 122 41 130 -6 17 -61 21 -71 5 -3 -5
-32 -7 -68 -3 -71 6 -120 -12 -169 -64 -66 -70 -90 -199 -45 -241 39 -37 95
-30 150 18 l46 40 3 -27 c6 -54 105 -71 185 -32 l43 21 26 -21 c37 -29 136
-29 179 -1 28 18 30 18 48 2 27 -24 131 -23 173 2 31 19 32 19 55 -3 18 -16
35 -21 81 -21 50 0 62 4 93 32 73 63 116 199 81 253 -11 17 -25 25 -46 25 -17
0 -30 5 -30 10 0 15 -48 12 -86 -6 -65 -31 -124 -123 -124 -192 0 -45 -83 -86
-134 -66 -22 8 -21 15 19 138 19 60 35 117 35 127 0 25 -25 35 -58 23 -28 -10
-39 -36 -76 -179 -22 -84 -26 -91 -61 -109 -29 -15 -41 -16 -61 -7 -13 6 -27
17 -30 25 -3 8 6 52 21 99 l26 86 37 3 c30 2 38 7 40 26 3 18 -1 22 -22 22
-14 0 -27 4 -30 9 -3 4 5 41 19 82 17 53 21 77 13 86 -12 15 -46 16 -69 3z
m543 -277 c13 -26 -9 -93 -43 -137 -24 -30 -76 -36 -86 -10 -10 27 25 117 69
180 l43 59 3 -35 c1 -19 8 -45 14 -57z m-856 43 c7 -19 -25 -81 -76 -144 -74
-95 -126 -52 -70 58 21 40 43 62 85 84 37 20 54 20 61 2z"/>
<path d="M18164 2242 c-7 -4 -23 -43 -36 -87 -19 -60 -29 -81 -44 -83 -19 -4
-44 -28 -44 -44 0 -4 9 -8 20 -8 25 0 25 -6 -1 -98 -36 -130 -12 -172 97 -172
69 0 127 29 132 68 4 23 -21 32 -33 12 -3 -6 -20 -17 -37 -26 -25 -13 -35 -13
-59 -4 -36 15 -36 31 -6 130 21 70 25 75 52 78 58 7 79 52 25 52 -36 0 -36 5
-9 92 12 37 19 74 16 83 -7 16 -53 21 -73 7z"/>
<path d="M19059 2243 c-10 -2 -25 -34 -40 -86 -19 -63 -29 -83 -44 -85 -20 -4
-45 -28 -45 -44 0 -4 9 -8 20 -8 25 0 25 -12 0 -103 -23 -84 -53 -117 -106
-117 -37 0 -41 6 -19 34 25 33 19 117 -10 160 -24 35 -24 37 -8 71 13 28 14
37 3 50 -19 23 -58 18 -86 -10 -20 -20 -24 -32 -19 -55 5 -24 -1 -41 -36 -91
-54 -81 -105 -137 -141 -155 -28 -15 -37 -37 -18 -49 6 -4 24 1 41 9 26 13 34
13 52 1 35 -22 256 -19 302 5 36 18 37 18 57 -2 17 -17 30 -20 93 -16 53 2 79
8 94 22 19 18 21 18 47 -3 36 -28 116 -29 161 -1 44 26 79 83 97 155 20 77 11
117 -30 129 -16 4 -37 12 -46 17 -31 16 -64 10 -109 -21 -51 -33 -82 -82 -100
-155 -14 -59 -22 -71 -62 -91 -24 -13 -34 -13 -58 -4 -36 15 -36 31 -6 130 21
70 25 75 52 78 58 7 79 52 25 52 -36 0 -36 4 -8 91 11 36 18 74 15 83 -6 15
-32 19 -68 9z m303 -223 c-3 -20 2 -37 13 -50 16 -18 16 -22 -1 -71 -25 -68
-56 -101 -92 -97 -38 4 -42 53 -8 121 21 43 81 127 90 127 1 0 1 -14 -2 -30z
m-612 -110 c0 -47 -15 -82 -42 -99 -17 -11 -23 -10 -40 9 -19 21 -19 21 24 79
24 33 46 57 51 54 4 -2 7 -22 7 -43z"/>
<path d="M22293 2243 c-7 -2 -24 -43 -39 -89 -22 -74 -28 -84 -49 -84 -21 0
-35 -17 -35 -41 0 -5 6 -9 14 -9 25 0 26 -14 4 -94 -19 -69 -26 -81 -59 -103
-25 -17 -48 -23 -71 -21 -55 5 -51 35 24 201 27 57 29 70 17 78 -18 11 -66 12
-74 0 -3 -5 -29 -7 -59 -4 -71 7 -120 -10 -171 -61 -70 -70 -96 -186 -54 -240
17 -21 29 -26 65 -26 38 0 51 6 88 40 l43 40 6 -28 c11 -53 104 -69 185 -32
44 20 44 20 69 0 35 -27 135 -28 179 -1 28 17 33 18 47 4 20 -20 98 -28 138
-14 23 8 36 8 45 0 7 -6 23 -9 36 -7 18 2 34 24 69 93 78 152 186 242 125 103
-29 -66 -40 -119 -32 -152 11 -44 111 -61 183 -31 31 13 38 13 52 1 30 -26 59
-28 105 -8 24 11 53 29 65 41 25 25 26 22 6 -25 -8 -20 -37 -57 -64 -82 -53
-50 -71 -92 -51 -117 34 -41 104 4 150 96 25 49 35 60 67 68 21 6 49 11 63 11
14 0 40 9 58 20 25 15 32 27 32 50 l0 31 -35 -27 c-36 -27 -125 -46 -125 -27
0 6 22 68 49 138 27 71 47 135 44 142 -7 19 -70 17 -81 -3 -8 -14 -13 -14 -32
-4 -38 20 -115 7 -163 -27 -52 -38 -97 -108 -104 -162 -4 -28 -14 -48 -31 -61
-29 -24 -90 -27 -98 -5 -3 8 11 62 31 121 41 117 39 148 -9 160 -38 9 -65 -4
-123 -59 -29 -27 -53 -48 -53 -45 0 3 7 25 15 49 19 53 14 69 -23 69 -40 0
-47 -11 -72 -110 -12 -47 -25 -102 -31 -122 -11 -43 -59 -78 -106 -78 -56 0
-58 16 -14 151 42 130 42 149 -3 149 -40 0 -54 -23 -86 -140 -17 -63 -33 -120
-35 -127 -7 -20 -63 -44 -90 -37 -45 11 -48 26 -25 106 12 40 23 81 26 90 3
11 18 18 42 20 30 2 38 7 40 26 3 17 -1 22 -21 22 -13 0 -26 2 -29 5 -3 3 6
42 19 87 21 66 23 82 12 89 -15 9 -46 10 -66 2z m-309 -231 c8 -13 -44 -105
-88 -157 -27 -33 -44 -45 -59 -43 -33 5 -29 74 6 127 36 55 124 100 141 73z
m1298 -17 c-9 -52 -118 -185 -152 -185 -60 0 2 153 79 195 38 21 77 15 73 -10z"/>
<path d="M19581 2123 c-5 -10 -27 -83 -49 -163 -23 -80 -57 -196 -76 -258 -20
-63 -36 -120 -36 -127 0 -18 23 -25 57 -16 25 7 30 16 53 97 l26 89 64 5 c36
3 87 3 114 -1 102 -13 186 20 186 72 l0 30 -32 -24 c-38 -29 -90 -42 -113 -30
-14 8 -14 12 5 35 62 79 78 181 35 223 -37 38 -85 34 -135 -11 -22 -20 -43
-35 -45 -32 -3 2 2 26 11 51 9 26 13 54 10 62 -8 21 -63 19 -75 -2z m173 -160
c0 -28 -10 -58 -30 -90 -30 -48 -31 -48 -83 -48 -29 0 -55 3 -57 6 -4 8 69
124 99 157 14 15 30 22 47 20 22 -3 25 -7 24 -45z"/>
<path d="M6942 2097 c-17 -20 -92 -331 -82 -340 4 -5 18 -7 31 -5 19 2 34 22
70 93 78 152 186 242 125 103 -29 -66 -40 -119 -32 -152 11 -46 117 -61 192
-27 40 18 41 18 65 0 17 -13 41 -19 81 -19 52 0 62 3 97 35 43 39 78 111 87
179 9 59 -13 96 -56 96 -17 0 -30 5 -30 10 0 15 -48 12 -86 -6 -67 -32 -124
-123 -124 -197 0 -47 -120 -94 -136 -53 -3 8 11 62 31 120 39 114 39 140 0
158 -36 16 -72 2 -131 -54 -30 -28 -54 -49 -54 -46 0 3 7 25 15 49 9 24 13 49
11 56 -7 17 -60 17 -74 0z m532 -71 c-4 -15 1 -36 12 -55 16 -28 16 -32 0 -75
-27 -71 -53 -98 -90 -94 -26 2 -32 8 -34 31 -4 34 36 123 79 177 18 22 34 40
36 40 2 0 1 -11 -3 -24z"/>
<path d="M10361 2101 c-14 -9 -90 -285 -91 -328 0 -19 5 -23 29 -23 26 0 33 8
76 96 47 94 109 174 135 174 15 0 11 -21 -24 -113 -32 -82 -32 -108 -5 -133
30 -27 152 -27 191 0 27 17 28 17 54 -3 39 -31 118 -29 166 4 72 49 125 218
83 265 -10 11 -31 20 -47 20 -15 0 -28 5 -28 10 0 19 -53 10 -96 -15 -56 -33
-91 -85 -106 -159 -10 -49 -18 -62 -43 -78 -16 -10 -42 -18 -56 -18 -49 0 -51
18 -14 124 42 116 43 140 10 162 -36 24 -79 9 -137 -46 l-50 -48 7 31 c15 64
12 82 -15 85 -14 1 -31 -2 -39 -7z m531 -85 c-2 -18 1 -37 7 -40 26 -16 1
-109 -41 -153 -25 -26 -60 -30 -78 -8 -23 28 23 136 88 208 14 15 26 27 27 27
0 0 -1 -15 -3 -34z"/>
<path d="M14161 2097 c-17 -21 -91 -331 -82 -340 5 -5 19 -7 32 -5 18 2 33 23
68 92 51 100 123 187 140 170 8 -8 4 -26 -14 -67 -30 -64 -40 -115 -31 -150
12 -48 118 -62 192 -27 44 22 57 40 48 65 -5 12 -12 10 -42 -10 -41 -28 -99
-33 -108 -10 -3 8 11 62 31 120 39 113 39 139 0 157 -36 16 -72 2 -131 -54
-30 -28 -54 -49 -54 -46 0 3 7 25 15 49 9 24 13 49 11 56 -7 17 -60 17 -75 0z"/>
<path d="M17461 2097 c-6 -8 -24 -65 -41 -128 -33 -129 -62 -169 -123 -169
-71 0 -71 16 -5 167 22 51 38 100 34 108 -6 17 -76 22 -76 5 0 -5 -25 -7 -63
-3 -77 7 -126 -14 -181 -79 -34 -39 -66 -117 -66 -159 0 -55 -153 -49 -174 6
-20 53 4 144 43 165 28 15 61 12 67 -5 10 -25 43 -18 50 10 9 35 -1 53 -33 66
-71 27 -164 -15 -203 -92 -47 -91 -30 -177 42 -212 53 -26 134 -32 184 -15 35
12 44 13 60 1 42 -31 120 -9 168 47 l26 32 0 -30 c0 -16 7 -35 15 -42 22 -18
107 -25 146 -11 23 8 36 8 45 0 7 -6 23 -9 36 -7 17 2 33 24 67 92 49 96 123
188 139 171 7 -7 0 -34 -19 -80 -16 -38 -29 -89 -29 -112 0 -37 4 -44 30 -58
41 -21 116 -19 167 6 36 18 43 25 43 50 l0 30 -37 -26 c-43 -28 -100 -34 -109
-10 -4 9 8 55 25 104 38 103 42 148 16 167 -39 29 -76 15 -147 -54 -27 -26
-48 -44 -48 -40 0 3 7 25 15 49 9 24 13 49 11 56 -7 17 -60 17 -75 0z m-255
-92 c7 -16 -20 -65 -79 -142 -60 -80 -112 -69 -86 17 26 86 146 177 165 125z"/>
<path d="M4682 2090 c-46 -19 -48 -84 -4 -101 36 -14 76 16 80 59 3 27 -1 34
-23 42 -14 6 -27 10 -28 9 -1 0 -12 -4 -25 -9z"/>
<path d="M6110 2055 l0 -25 213 2 c204 3 212 4 212 23 0 19 -8 20 -212 23
l-213 2 0 -25z"/>
<path d="M15904 2065 c-13 -32 7 -35 217 -35 l209 0 0 25 0 25 -210 0 c-175 0
-212 -2 -216 -15z"/>
<path d="M3748 2009 c-21 -12 -24 -59 -6 -77 8 -8 48 -12 115 -12 91 0 103 2
113 19 14 28 13 38 -10 61 -17 17 -33 20 -107 20 -49 0 -96 -5 -105 -11z"/>
<path d="M6110 1895 l0 -25 216 0 215 0 -3 23 c-3 22 -4 22 -215 25 l-213 2 0
-25z"/>
<path d="M15907 1913 c-4 -3 -7 -15 -7 -25 0 -17 13 -18 215 -18 l215 0 0 25
0 25 -208 0 c-115 0 -212 -3 -215 -7z"/>
<path d="M4595 1835 c-28 -27 -30 -37 -15 -66 7 -13 21 -19 44 -19 56 0 87 58
50 94 -22 23 -51 20 -79 -9z"/>
<path d="M14629 1840 c-9 -5 -20 -27 -24 -47 -3 -21 -18 -55 -32 -77 -23 -35
-23 -40 -9 -54 14 -15 18 -14 43 4 39 29 85 106 86 146 2 28 -1 33 -23 35 -14
2 -32 -2 -41 -7z"/>
</g>
</svg>
