<?xml version="1.0" standalone="no"?>
<!DOCTYPE svg PUBLIC "-//W3C//DTD SVG 20010904//EN"
 "http://www.w3.org/TR/2001/REC-SVG-20010904/DTD/svg10.dtd">
<svg version="1.0" xmlns="http://www.w3.org/2000/svg"
 width="318.000000pt" height="159.000000pt" viewBox="0 0 318.000000 159.000000"
 preserveAspectRatio="xMidYMid meet">

<g transform="translate(0.000000,159.000000) scale(0.100000,-0.100000)"
fill="#000000" stroke="none">
<path d="M2846 1574 c-9 -25 -7 -79 3 -68 13 14 23 84 13 84 -6 0 -13 -7 -16
-16z"/>
<path d="M2832 1450 c0 -14 2 -19 5 -12 2 6 2 18 0 25 -3 6 -5 1 -5 -13z"/>
<path d="M2842 1335 c-7 -28 -13 -104 -13 -170 0 -66 -3 -129 -5 -141 l-5 -21
-96 19 c-69 13 -100 15 -107 8 -7 -7 -11 -53 -11 -113 1 -133 25 -183 128
-261 73 -55 81 -85 88 -306 l6 -195 -1 213 -1 212 23 0 c14 0 22 -6 22 -17 0
-13 4 -11 13 7 11 21 11 26 -2 32 -13 5 -13 7 2 7 47 2 151 91 183 157 27 55
42 159 31 206 -6 22 -9 23 -109 22 -145 -1 -138 -5 -137 80 0 39 4 109 8 156
4 47 4 101 1 120 l-5 34 -13 -49z"/>
<path d="M2395 957 c-27 -5 -137 -10 -242 -10 l-193 -2 0 -46 c0 -77 26 -143
79 -201 27 -29 61 -60 76 -68 49 -26 59 -67 66 -280 l6 -195 -1 213 -1 212 23
0 c14 0 22 -6 22 -17 0 -11 7 -5 17 15 9 19 28 41 42 50 66 42 112 88 136 136
27 56 42 149 28 181 -7 19 -13 20 -58 12z m-148 -353 c-3 -3 -12 -4 -19 -1 -8
3 -5 6 6 6 11 1 17 -2 13 -5z"/>
<path d="M1360 833 c1 -53 72 -154 136 -194 37 -23 59 -56 74 -116 l10 -38 -4
48 c-3 46 -3 47 25 47 22 0 27 -4 23 -17 -3 -10 3 -4 13 14 10 17 46 52 80 77
67 49 109 103 119 151 l5 30 -203 2 c-112 2 -220 5 -240 9 -32 5 -38 3 -38
-13z"/>
<path d="M1110 802 c0 -5 21 -8 48 -6 l47 3 -45 -10 c-25 -5 -123 -8 -217 -6
-95 2 -173 1 -173 -1 0 -19 50 -77 101 -117 58 -46 72 -65 90 -130 7 -27 8
-25 6 13 l-3 44 33 -4 c20 -3 34 1 37 9 3 7 0 13 -7 13 -7 0 6 9 28 19 85 39
185 152 153 172 -17 11 -98 12 -98 1z"/>
<path d="M221 694 c18 -19 48 -44 66 -55 29 -18 52 -60 67 -124 2 -11 4 0 3
25 -2 42 0 45 27 48 25 3 27 1 22 -20 -6 -20 -4 -19 9 5 9 15 14 31 11 35 -2
4 8 13 23 20 16 7 46 28 67 46 l39 34 -130 1 c-72 1 -148 6 -170 11 -66 16
-71 12 -34 -26z m177 -91 c-10 -2 -26 -2 -35 0 -10 3 -2 5 17 5 19 0 27 -2 18
-5z"/>
<path d="M418 723 c7 -3 16 -2 19 1 4 3 -2 6 -13 5 -11 0 -14 -3 -6 -6z"/>
<path d="M974 350 c0 -69 1 -97 3 -63 2 35 2 91 0 126 -2 34 -3 6 -3 -63z"/>
<path d="M350 170 c0 -6 7 -10 15 -10 8 0 15 2 15 4 0 2 -7 6 -15 10 -8 3 -15
1 -15 -4z"/>
<path d="M348 113 c7 -3 16 -2 19 1 4 3 -2 6 -13 5 -11 0 -14 -3 -6 -6z"/>
<path d="M1170 80 c-23 -7 -23 -8 -3 -9 12 -1 25 4 28 9 3 6 5 10 3 9 -2 -1
-14 -5 -28 -9z"/>
<path d="M183 69 c9 -6 50 -12 90 -14 56 -4 63 -3 32 4 -76 16 -142 21 -122
10z"/>
<path d="M555 70 c-3 -6 1 -7 9 -4 18 7 21 14 7 14 -6 0 -13 -4 -16 -10z"/>
<path d="M800 70 c25 -8 157 -13 149 -6 -2 2 -42 6 -89 9 -48 3 -74 1 -60 -3z"/>
<path d="M1780 70 c-23 -7 -23 -8 -3 -9 12 -1 25 4 28 9 3 6 5 10 3 9 -2 -1
-14 -5 -28 -9z"/>
<path d="M1998 68 c8 -8 42 -13 90 -15 l77 -2 -73 9 c-40 4 -80 11 -90 15 -14
5 -15 4 -4 -7z"/>
<path d="M2385 70 c-16 -7 -17 -9 -3 -9 9 -1 20 4 23 9 7 11 7 11 -20 0z"/>
<path d="M2639 67 c12 -12 172 -26 165 -15 -3 5 -26 8 -52 8 -26 0 -64 5 -86
9 -28 7 -35 6 -27 -2z"/>
<path d="M3025 70 c-16 -7 -17 -9 -3 -9 9 -1 20 4 23 9 7 11 7 11 -20 0z"/>
<path d="M1405 60 c19 -8 153 -14 144 -6 -2 2 -40 6 -84 9 -48 3 -72 2 -60 -3z"/>
</g>
</svg>
