<?xml version="1.0" standalone="no"?>
<!DOCTYPE svg PUBLIC "-//W3C//DTD SVG 20010904//EN"
 "http://www.w3.org/TR/2001/REC-SVG-20010904/DTD/svg10.dtd">
<svg version="1.0" xmlns="http://www.w3.org/2000/svg"
 width="379.000000pt" height="1000.000000pt" viewBox="0 0 379.000000 1000.000000"
 preserveAspectRatio="xMidYMid meet">

<g transform="translate(0.000000,1000.000000) scale(0.100000,-0.100000)"
fill="#000000" stroke="none">
<path d="M1593 9481 c-50 -3 -93 -8 -96 -11 -28 -35 -37 -61 -37 -112 0 -37
-5 -62 -15 -72 -21 -20 -22 -254 -1 -294 11 -22 12 -108 5 -507 -12 -688 -28
-1223 -39 -1290 -20 -125 -88 -207 -277 -338 -188 -130 -283 -230 -368 -390
-58 -108 -91 -213 -111 -349 -17 -117 -15 -229 26 -2003 5 -231 14 -622 20
-870 6 -247 17 -718 25 -1045 8 -327 19 -800 25 -1050 10 -456 13 -509 31
-566 22 -71 101 -104 319 -131 125 -15 230 -18 770 -18 642 0 762 6 908 42 35
9 78 27 94 41 58 49 61 66 69 432 4 184 13 533 19 775 5 242 15 625 20 850 17
701 39 1591 45 1805 9 361 15 580 20 800 8 354 15 589 21 706 3 61 0 151 -6
200 -38 317 -162 518 -445 723 -221 160 -292 246 -314 381 -6 36 -15 351 -21
700 -5 349 -11 732 -14 852 -3 172 -1 222 10 243 20 39 19 272 -1 299 -9 12
-15 43 -16 75 0 34 -7 68 -18 86 -16 27 -24 31 -82 36 -87 7 -452 8 -566 0z
m467 -25 c0 -11 -19 -15 -25 -6 -3 5 1 10 9 10 9 0 16 -2 16 -4z m82 -26 c25
0 29 -4 27 -22 -2 -13 0 -28 3 -34 22 -35 -73 -64 -127 -39 -16 7 -25 14 -18
14 6 1 9 9 6 20 -3 10 0 22 7 26 8 5 8 10 -1 21 -9 11 -8 14 7 16 11 0 24 2
31 2 6 1 15 5 20 9 4 5 9 3 11 -2 2 -6 17 -11 34 -11z m39 -155 c11 -4 15 -33
17 -124 l3 -119 -26 -6 c-15 -4 -53 -4 -86 0 -49 5 -56 9 -43 19 19 13 22 70
9 179 l-8 69 60 -6 c33 -4 66 -9 74 -12z m-13 -307 c10 -13 11 -169 12 -1390
l1 -466 -24 -26 c-16 -18 -35 -26 -56 -26 -18 0 -30 4 -26 9 3 5 -4 13 -15 16
-18 6 -20 12 -14 37 3 17 6 121 6 230 1 122 4 198 10 198 6 0 7 8 3 18 -8 18
-14 143 -14 277 1 44 1 105 1 135 0 30 -1 105 -1 165 -1 61 -1 112 0 115 1 6
-1 213 -5 507 -2 111 -1 205 2 208 11 11 110 5 120 -7z m252 -2418 c54 0 167
-93 232 -191 84 -127 109 -218 113 -413 l3 -131 106 -3 106 -3 0 -157 c0 -86
-5 -359 -10 -607 -5 -247 -16 -850 -24 -1340 -9 -490 -18 -981 -22 -1091 l-6
-202 -47 -6 c-171 -21 -695 -46 -986 -46 -395 0 -1086 36 -1107 58 -6 7 -16
496 -45 2295 -13 824 -14 1080 -5 1089 9 9 227 13 847 16 l836 5 -6 136 c-10
209 -54 341 -168 506 l-21 30 22 -19 c22 -19 22 -19 20 4 -3 21 5 28 52 47 30
12 54 27 52 33 -2 8 3 8 17 0 11 -5 29 -10 41 -10z m275 -4452 c-3 -150 -10
-374 -15 -498 -5 -124 -12 -344 -15 -490 -3 -146 -9 -301 -13 -345 -4 -44 -6
-108 -6 -143 2 -73 15 -65 -154 -83 -62 -6 -116 -8 -120 -4 -4 4 -1 10 6 12 6
3 12 13 12 24 0 17 5 19 34 14 30 -6 35 -4 49 24 16 32 16 100 2 194 -6 37 -4
52 8 65 13 14 14 23 4 55 -11 36 -14 38 -47 35 l-35 -3 -7 109 c-3 60 -9 119
-12 132 -3 12 -2 26 4 29 12 7 14 85 2 85 -4 0 -8 38 -8 85 -1 47 3 85 9 85 5
0 7 14 3 33 -3 17 -2 46 2 62 5 17 6 60 2 98 -3 37 -2 74 3 82 6 11 4 13 -9 8
-14 -5 -15 -3 -4 17 8 15 10 43 7 78 -3 30 -1 66 4 80 7 18 7 28 0 30 -6 2 -8
8 -5 14 5 8 8 93 4 108 -7 22 -5 229 1 218 10 -15 12 -6 3 16 -3 9 -10 14 -14
11 -5 -3 -11 -1 -15 4 -9 16 58 23 258 29 l68 2 -6 -272z m-318 -280 c-3 -8
-6 -5 -6 6 -1 11 2 17 5 13 3 -3 4 -12 1 -19z m47 -891 c21 -21 28 -64 11 -71
-9 -3 -15 0 -15 9 0 8 -6 15 -12 15 -9 0 -8 3 2 10 12 7 12 12 2 22 -13 13
-16 28 -6 28 3 0 11 -6 18 -13z m-374 -257 c0 -5 -2 -10 -4 -10 -3 0 -8 5 -11
10 -3 6 -1 10 4 10 6 0 11 -4 11 -10z"/>
<path d="M1780 5456 c0 -2 7 -6 15 -10 8 -3 15 -1 15 4 0 6 -7 10 -15 10 -8 0
-15 -2 -15 -4z"/>
<path d="M1933 5385 c-1 -42 2 -75 7 -75 6 0 10 16 10 35 0 21 5 35 13 35 9 0
8 3 -2 9 -9 6 -12 20 -9 40 3 18 0 31 -6 31 -7 0 -12 -30 -13 -75z"/>
<path d="M1985 5450 c27 -12 35 -12 35 0 0 6 -12 10 -27 9 -25 0 -26 -1 -8 -9z"/>
<path d="M1731 5388 c4 -35 5 -66 3 -70 -3 -5 5 -8 18 -8 14 0 18 3 11 8 -7 4
-13 35 -14 70 -1 39 -7 62 -14 62 -8 0 -9 -18 -4 -62z"/>
<path d="M1646 5425 c4 -8 8 -15 10 -15 2 0 4 7 4 15 0 8 -4 15 -10 15 -5 0
-7 -7 -4 -15z"/>
<path d="M2056 5418 c-22 -31 -20 -81 4 -103 11 -10 22 -16 25 -13 3 3 -1 11
-10 18 -20 17 -19 79 2 102 9 10 11 18 5 18 -6 0 -18 -10 -26 -22z"/>
<path d="M2153 5422 c10 -10 17 -34 17 -52 0 -18 -7 -42 -17 -52 -9 -10 -11
-18 -5 -18 17 0 42 42 42 70 0 28 -25 70 -42 70 -6 0 -4 -8 5 -18z"/>
<path d="M1530 5415 c0 -3 15 -15 34 -27 19 -13 53 -38 75 -56 38 -31 41 -32
41 -13 0 12 -6 21 -14 21 -8 0 -36 18 -62 40 -43 35 -74 50 -74 35z"/>
<path d="M2243 5392 c-1 -16 -8 -47 -16 -70 -10 -30 -11 -42 -3 -42 6 0 18 32
27 70 11 47 12 70 5 70 -6 0 -12 -13 -13 -28z"/>
<path d="M1455 5393 c15 -38 33 -112 27 -117 -3 -3 2 -6 10 -6 13 0 13 8 -2
64 -10 35 -16 67 -12 70 3 3 -3 6 -12 6 -13 0 -16 -5 -11 -17z"/>
<path d="M1662 5380 c0 -14 2 -19 5 -12 2 6 2 18 0 25 -3 6 -5 1 -5 -13z"/>
<path d="M1775 5390 c-19 -8 -19 -9 3 -9 12 -1 22 4 22 9 0 6 -1 10 -2 9 -2 0
-12 -4 -23 -9z"/>
<path d="M1388 5360 c2 -16 6 -30 8 -30 2 0 4 14 4 30 0 17 -4 30 -8 30 -5 0
-7 -13 -4 -30z"/>
<path d="M1988 5383 c7 -3 16 -2 19 1 4 3 -2 6 -13 5 -11 0 -14 -3 -6 -6z"/>
<path d="M2356 5324 c-10 -35 -24 -64 -30 -64 -6 0 -4 -5 4 -10 19 -12 33 -13
26 -1 -6 9 21 99 36 117 5 7 4 14 -5 17 -9 3 -19 -15 -31 -59z"/>
<path d="M1552 5360 c0 -14 2 -19 5 -12 2 6 2 18 0 25 -3 6 -5 1 -5 -13z"/>
<path d="M1330 5360 c0 -5 5 -10 10 -10 6 0 10 5 10 10 0 6 -4 10 -10 10 -5 0
-10 -4 -10 -10z"/>
<path d="M2475 5301 c0 -31 -4 -66 -8 -78 -5 -14 -4 -23 1 -23 22 0 38 145 17
154 -6 2 -10 -19 -10 -53z"/>
<path d="M1299 5324 c22 -19 31 -34 31 -57 l0 -31 -48 47 c-26 26 -52 47 -57
47 -5 0 15 -25 45 -55 30 -30 58 -55 62 -55 4 0 8 11 8 25 0 29 7 31 32 8 10
-9 18 -11 18 -5 0 16 -92 102 -108 102 -7 0 0 -12 17 -26z"/>
<path d="M1820 5331 c0 -5 -8 -12 -17 -14 -14 -4 -12 -5 5 -6 13 -1 22 5 22
14 0 8 -2 15 -5 15 -3 0 -5 -4 -5 -9z"/>
<path d="M1560 5305 c0 -14 4 -25 9 -25 4 0 6 11 3 25 -2 14 -6 25 -8 25 -2 0
-4 -11 -4 -25z"/>
<path d="M2535 5294 l-30 -26 35 23 c45 29 45 29 34 29 -5 0 -22 -12 -39 -26z"/>
<path d="M2290 5270 c-9 -6 -10 -10 -3 -10 6 0 15 5 18 10 8 12 4 12 -15 0z"/>
<path d="M2400 5229 c0 -5 5 -7 10 -4 6 3 10 8 10 11 0 2 -4 4 -10 4 -5 0 -10
-5 -10 -11z"/>
<path d="M1832 5180 c-108 -66 -23 -229 91 -175 39 18 71 72 61 102 -14 43
-30 66 -56 79 -36 19 -57 18 -96 -6z m49 -27 c1 -17 2 -17 6 0 9 35 38 14 50
-38 17 -66 12 -76 -16 -34 -13 20 -20 26 -18 14 16 -64 17 -75 7 -75 -5 0 -10
5 -10 11 0 6 -9 22 -20 36 -22 28 -26 19 -10 -21 16 -43 -7 -30 -36 19 -24 42
-27 75 -6 75 5 0 14 -10 21 -22 9 -18 10 -18 5 -3 -17 53 -17 55 5 55 13 0 21
-7 22 -17z"/>
<path d="M1177 4429 c-29 -17 -49 -68 -43 -105 13 -69 108 -100 154 -51 12 13
22 30 22 38 -1 10 -6 8 -18 -7 -30 -36 -56 -45 -91 -33 -54 19 -67 75 -30 123
28 35 80 36 107 1 11 -14 23 -25 26 -25 14 0 4 22 -19 45 -26 27 -75 33 -108
14z"/>
<path d="M1555 4431 c-3 -2 -5 -44 -5 -93 l0 -88 44 0 c85 0 129 39 91 80 -13
15 -14 23 -5 39 16 30 -3 59 -43 66 -34 5 -75 4 -82 -4z m105 -26 c19 -22 5
-42 -32 -47 -46 -7 -58 0 -58 33 0 27 3 29 39 29 22 0 44 -6 51 -15z m6 -79
c31 -24 7 -50 -50 -54 l-46 -3 0 35 c0 35 1 36 38 36 21 0 47 -6 58 -14z"/>
<path d="M1757 4432 c-14 -3 -17 -17 -17 -93 l0 -89 60 0 c33 0 60 4 60 10 0
6 -25 10 -55 10 -54 0 -55 0 -55 30 0 29 1 30 50 30 28 0 50 5 50 10 0 6 -23
10 -51 10 l-50 0 3 33 c3 31 5 32 58 37 l55 6 -46 4 c-25 3 -53 4 -62 2z"/>
<path d="M1923 4434 c-9 -4 -13 -33 -13 -95 0 -58 4 -88 10 -84 6 3 10 19 10
36 0 42 37 39 73 -6 36 -45 58 -46 23 -1 l-26 35 24 24 c25 25 26 56 2 76 -14
11 -87 22 -103 15z m74 -20 c27 -7 39 -40 23 -59 -7 -9 -30 -15 -51 -15 -39 0
-39 0 -39 40 0 35 3 40 23 40 12 0 32 -3 44 -6z"/>
<path d="M2310 4432 c-6 -2 -10 -43 -10 -93 l0 -89 60 0 c33 0 60 4 60 10 0 6
-25 10 -55 10 -54 0 -55 0 -55 30 0 29 1 30 50 30 28 0 50 5 50 10 0 6 -23 10
-51 10 l-50 0 3 33 c3 31 5 32 58 37 l55 6 -53 4 c-28 3 -57 4 -62 2z"/>
<path d="M2464 4429 c-27 -6 -27 -7 9 -8 l37 -1 0 -86 c0 -54 4 -83 10 -79 6
3 10 42 10 86 l0 79 37 0 c20 0 34 3 31 6 -9 8 -100 10 -134 3z"/>
<path d="M1390 4385 c-11 -25 -29 -65 -40 -90 -10 -25 -15 -45 -9 -45 5 0 15
11 21 25 10 22 18 25 60 25 42 0 50 -3 60 -25 13 -28 34 -35 23 -8 -31 81 -72
163 -83 163 -7 0 -22 -20 -32 -45z m70 -61 c0 -2 -16 -4 -35 -4 -40 0 -41 3
-19 55 l16 38 19 -42 c10 -24 19 -45 19 -47z"/>
<path d="M2090 4340 c0 -107 18 -122 22 -18 l3 71 59 -71 c32 -40 62 -69 67
-66 12 7 12 174 -1 174 -5 0 -10 -33 -12 -72 l-3 -73 -58 73 c-32 39 -62 72
-67 72 -6 0 -10 -39 -10 -90z"/>
<path d="M1070 4110 c-31 -7 -49 -52 -31 -74 8 -9 32 -21 55 -27 47 -13 59
-26 45 -51 -14 -25 -63 -23 -89 4 -11 12 -23 19 -26 15 -3 -3 5 -17 19 -31 41
-41 104 -32 121 17 8 24 -35 67 -67 67 -48 0 -63 43 -22 62 22 10 30 8 55 -11
22 -16 30 -18 30 -8 0 29 -47 48 -90 37z"/>
<path d="M1250 4065 c-11 -25 -29 -65 -40 -90 -10 -25 -15 -45 -9 -45 5 0 15
11 21 25 10 21 18 25 58 25 40 0 48 -4 58 -25 6 -14 16 -25 22 -25 5 0 -7 35
-26 78 -20 42 -38 83 -41 90 -10 23 -24 12 -43 -33z m48 -17 c16 -45 12 -53
-23 -52 -16 0 -30 2 -29 5 5 22 29 79 34 79 3 0 11 -15 18 -32z"/>
<path d="M1398 4104 c-12 -11 -10 -96 2 -131 19 -54 85 -69 125 -28 22 21 25
33 25 95 0 40 -4 70 -10 70 -6 0 -10 -30 -10 -69 0 -78 -13 -101 -59 -101 -41
0 -55 24 -61 102 -3 39 -8 66 -12 62z"/>
<path d="M1606 4053 c14 -32 32 -73 40 -90 8 -18 19 -33 25 -33 14 0 94 169
84 178 -4 4 -9 2 -12 -4 -2 -6 -19 -42 -37 -80 l-34 -69 -36 78 c-20 42 -41
77 -46 77 -5 0 2 -26 16 -57z"/>
<path d="M1800 4020 c0 -53 4 -90 10 -90 6 0 10 37 10 90 0 53 -4 90 -10 90
-6 0 -10 -37 -10 -90z"/>
<path d="M1897 4090 c-66 -52 -23 -170 62 -170 10 0 30 9 45 21 21 17 26 18
26 5 0 -9 5 -16 10 -16 6 0 10 20 10 45 l0 45 -47 -2 c-37 -1 -40 -2 -15 -5
37 -5 43 -30 14 -56 -27 -24 -69 -21 -97 8 -58 57 3 154 78 126 15 -6 30 -18
33 -26 4 -8 10 -15 15 -15 15 0 10 19 -11 40 -27 27 -89 27 -123 0z"/>
<path d="M2100 4020 c0 -106 18 -122 22 -20 l3 70 55 -69 c30 -39 61 -70 68
-70 9 -1 12 23 12 89 0 53 -4 90 -10 90 -6 0 -10 -30 -10 -70 0 -38 -3 -70 -7
-69 -5 0 -33 31 -63 70 -30 38 -58 69 -62 69 -5 0 -8 -40 -8 -90z"/>
<path d="M2326 4079 c-69 -81 17 -194 111 -145 89 45 53 176 -47 176 -30 0
-44 -6 -64 -31z m122 -7 c49 -66 -3 -148 -82 -128 -31 8 -55 54 -48 92 7 37
50 67 87 60 16 -4 36 -14 43 -24z"/>
<path d="M2542 4015 c2 -87 2 -90 5 -27 2 39 8 72 13 72 4 0 32 -29 60 -65 28
-36 56 -65 61 -65 5 0 9 41 9 90 0 53 -4 90 -10 90 -6 0 -10 -31 -10 -72 l-1
-73 -37 45 c-20 24 -49 58 -64 75 l-27 30 1 -100z"/>
<path d="M1321 3329 c-7 -23 -15 -47 -18 -55 -3 -8 -1 -14 4 -14 5 0 14 19 21
43 7 23 15 48 18 55 3 6 2 12 -4 12 -5 0 -14 -18 -21 -41z"/>
<path d="M1807 3329 c-9 -25 -17 -51 -17 -59 1 -8 10 8 20 35 11 28 19 54 17
59 -2 5 -11 -11 -20 -35z"/>
<path d="M2021 3304 c-7 -20 -11 -38 -8 -40 3 -3 10 11 17 31 16 47 8 55 -9 9z"/>
<path d="M1420 3310 c0 -5 5 -10 10 -10 6 0 10 5 10 10 0 6 -4 10 -10 10 -5 0
-10 -4 -10 -10z"/>
<path d="M1487 3293 c-5 -26 -2 -42 7 -32 9 11 15 59 7 59 -5 0 -11 -12 -14
-27z"/>
<path d="M1536 3294 c-10 -38 0 -41 12 -5 6 17 7 31 3 31 -5 0 -12 -12 -15
-26z"/>
<path d="M1596 3294 c-10 -38 0 -41 12 -5 6 17 7 31 3 31 -5 0 -12 -12 -15
-26z"/>
<path d="M1636 3294 c-4 -14 -5 -29 -2 -31 3 -3 8 7 12 21 3 15 4 29 1 32 -2
3 -8 -7 -11 -22z"/>
<path d="M1747 3293 c-5 -26 -2 -42 7 -32 9 11 15 59 7 59 -5 0 -11 -12 -14
-27z"/>
<path d="M1830 3299 c0 -11 5 -17 10 -14 6 3 10 13 10 21 0 8 -4 14 -10 14 -5
0 -10 -9 -10 -21z"/>
<path d="M1904 3301 c0 -11 4 -17 8 -15 4 3 8 12 8 20 0 8 -4 14 -8 14 -4 0
-8 -9 -8 -19z"/>
<path d="M1936 3294 c-4 -14 -5 -28 -3 -31 3 -2 8 8 11 23 4 14 5 28 3 31 -3
2 -8 -8 -11 -23z"/>
<path d="M1976 3294 c-4 -14 -5 -28 -3 -31 3 -2 8 8 11 23 4 14 5 28 3 31 -3
2 -8 -8 -11 -23z"/>
<path d="M2112 3290 c0 -19 2 -27 5 -17 2 9 2 25 0 35 -3 9 -5 1 -5 -18z"/>
<path d="M2170 3309 c0 -5 5 -7 10 -4 6 3 10 8 10 11 0 2 -4 4 -10 4 -5 0 -10
-5 -10 -11z"/>
<path d="M2206 3294 c-4 -14 -5 -28 -3 -31 3 -2 8 8 11 23 4 14 5 28 3 31 -3
2 -8 -8 -11 -23z"/>
<path d="M2250 3299 c-6 -11 -10 -25 -7 -32 2 -6 9 3 15 21 12 36 8 42 -8 11z"/>
<path d="M2286 3294 c-9 -35 -2 -40 12 -9 6 13 7 27 3 30 -5 2 -12 -7 -15 -21z"/>
<path d="M2142 3290 c0 -14 2 -19 5 -12 2 6 2 18 0 25 -3 6 -5 1 -5 -13z"/>
<path d="M1390 3290 c0 -5 -5 -9 -11 -7 -6 1 -13 -3 -16 -10 -2 -7 4 -11 16
-10 19 1 39 37 20 37 -5 0 -9 -4 -9 -10z"/>
<path d="M1447 3286 c-4 -10 -5 -21 -2 -24 9 -9 17 6 13 25 -3 17 -4 17 -11
-1z"/>
<path d="M1707 3286 c-4 -10 -5 -21 -2 -24 9 -9 17 6 13 25 -3 17 -4 17 -11
-1z"/>
<path d="M1863 3285 c-3 -9 -3 -18 -1 -21 3 -3 8 4 11 16 6 23 -1 27 -10 5z"/>
<path d="M2323 3285 c-3 -9 -3 -18 -1 -21 3 -3 8 4 11 16 6 23 -1 27 -10 5z"/>
<path d="M1750 3164 c0 -8 5 -12 10 -9 6 4 8 11 5 16 -9 14 -15 11 -15 -7z"/>
<path d="M1515 3161 c-3 -5 -1 -12 5 -16 5 -3 10 1 10 9 0 18 -6 21 -15 7z"/>
<path d="M1853 3153 c-3 -10 -12 -33 -20 -52 -7 -19 -10 -38 -6 -42 5 -5 18
19 29 51 12 33 17 60 12 60 -5 0 -11 -8 -15 -17z"/>
<path d="M1892 3118 c-20 -53 -20 -68 -1 -68 6 0 8 4 4 9 -3 5 4 32 15 60 11
28 16 51 11 51 -5 0 -18 -24 -29 -52z"/>
<path d="M1720 3133 c-7 -16 -15 -39 -17 -52 -6 -35 -22 -63 -34 -56 -5 4 -9
1 -9 -4 0 -31 41 6 61 54 12 29 22 85 15 85 -1 0 -9 -12 -16 -27z"/>
<path d="M1397 3103 c-11 -10 -8 -43 3 -43 6 0 10 11 10 25 0 26 -2 29 -13 18z"/>
<path d="M1423 3094 c-3 -8 -1 -20 6 -27 8 -8 11 -4 11 16 0 30 -7 35 -17 11z"/>
<path d="M1460 3094 c0 -8 5 -12 10 -9 6 3 10 10 10 16 0 5 -4 9 -10 9 -5 0
-10 -7 -10 -16z"/>
<path d="M1491 3088 c-9 -25 -6 -38 10 -38 6 0 9 6 6 13 -2 6 0 20 5 30 6 11
5 17 -2 17 -6 0 -14 -10 -19 -22z"/>
<path d="M1546 3094 c-3 -9 -6 -23 -6 -32 1 -12 5 -10 15 8 8 14 14 28 15 33
0 13 -18 7 -24 -9z"/>
<path d="M1586 3084 c-6 -24 -2 -43 8 -33 11 10 17 59 8 59 -5 0 -13 -12 -16
-26z"/>
<path d="M1636 3091 c-19 -21 -14 -41 11 -41 11 0 13 3 5 13 -13 15 1 43 16
33 6 -3 13 -2 17 4 11 18 -32 10 -49 -9z"/>
<path d="M1755 3094 c-17 -17 -16 -35 1 -41 6 -2 10 6 10 18 -1 12 5 24 13 27
10 3 11 -2 6 -19 -7 -21 -6 -22 9 -10 9 7 16 20 16 27 0 19 -35 18 -55 -2z"/>
<path d="M1938 3080 c2 -16 8 -30 12 -30 12 0 5 53 -7 57 -5 2 -8 -10 -5 -27z"/>
<path d="M1980 3095 c0 -9 -7 -30 -16 -48 l-16 -32 20 20 c24 23 40 75 23 75
-6 0 -11 -7 -11 -15z"/>
<path d="M2065 3096 c-11 -8 -16 -19 -12 -30 9 -24 24 -20 23 7 -1 16 4 21 17
19 9 -2 17 2 17 8 0 14 -23 13 -45 -4z"/>
<path d="M2126 3094 c-19 -18 -20 -30 -6 -39 15 -9 60 22 60 40 0 20 -34 19
-54 -1z m34 -3 c0 -5 -7 -14 -15 -21 -12 -10 -15 -10 -15 2 0 8 3 18 7 21 9
10 23 9 23 -2z"/>
<path d="M2196 3088 c-3 -13 -6 -27 -6 -33 1 -15 30 27 30 42 0 22 -17 15 -24
-9z"/>
<path d="M2237 3083 c-5 -27 -2 -41 7 -32 11 10 17 59 8 59 -5 0 -12 -12 -15
-27z"/>
<path d="M2280 3090 c0 -11 0 -23 -1 -27 0 -4 5 -9 12 -11 6 -3 9 2 7 9 -3 8
-1 22 4 32 6 12 5 17 -7 17 -8 0 -15 -9 -15 -20z"/>
<path d="M2010 3065 c0 -8 5 -15 10 -15 6 0 10 7 10 15 0 8 -4 15 -10 15 -5 0
-10 -7 -10 -15z"/>
<path d="M1920 3026 c0 -9 5 -16 10 -16 6 0 10 4 10 9 0 6 -4 13 -10 16 -5 3
-10 -1 -10 -9z"/>
</g>
</svg>
