<?xml version="1.0" standalone="no"?>
<!DOCTYPE svg PUBLIC "-//W3C//DTD SVG 20010904//EN"
 "http://www.w3.org/TR/2001/REC-SVG-20010904/DTD/svg10.dtd">
<svg version="1.0" xmlns="http://www.w3.org/2000/svg"
 width="377.000000pt" height="1000.000000pt" viewBox="0 0 377.000000 1000.000000"
 preserveAspectRatio="xMidYMid meet">

<g transform="translate(0.000000,1000.000000) scale(0.100000,-0.100000)"
fill="#000000" stroke="none">
<path d="M1663 9183 c9 -2 23 -2 30 0 6 3 -1 5 -18 5 -16 0 -22 -2 -12 -5z"/>
<path d="M1570 9167 c-16 -8 -28 -26 -35 -52 -6 -22 -16 -51 -24 -64 -9 -17
-12 -54 -9 -131 3 -89 7 -112 22 -129 18 -19 19 -33 12 -193 -3 -95 -13 -382
-21 -638 -21 -616 -40 -779 -141 -1182 -41 -168 -84 -302 -179 -563 -207 -566
-338 -1025 -390 -1363 -46 -295 -47 -360 -48 -2212 -2 -1956 -7 -1805 66
-1964 67 -145 161 -182 567 -222 242 -24 819 -25 1005 -1 72 9 164 19 205 22
112 9 250 35 291 56 75 38 128 124 165 269 18 72 19 138 19 1800 -1 1765 -3
1875 -41 2167 -47 367 -199 895 -457 1593 -125 337 -207 703 -249 1103 l-12
117 -27 0 c-15 0 -31 -5 -34 -10 -14 -23 45 -537 92 -790 48 -263 75 -373 158
-630 99 -307 223 -758 286 -1045 74 -333 89 -485 96 -998 l6 -418 26 3 26 3 3
-1288 c2 -1282 2 -1289 -18 -1294 -18 -5 -20 -14 -20 -97 0 -144 -22 -247 -66
-309 -21 -29 -43 -57 -51 -63 -7 -6 -54 -12 -105 -13 -51 0 -108 -4 -126 -7
-32 -6 -33 -6 -20 15 7 11 16 21 21 21 4 0 5 -5 1 -11 -5 -8 3 -10 27 -5 19 4
50 8 69 9 19 0 42 7 50 15 12 13 11 14 -10 8 -23 -6 -24 -6 -5 5 46 28 65 55
63 93 -1 21 -7 40 -15 43 -7 3 -13 12 -13 20 0 9 -20 49 -45 91 -25 41 -45 87
-45 103 0 15 -3 30 -7 32 -7 4 -75 -1 -260 -19 l-52 -5 4 -42 4 -42 -20 43
c-20 42 -20 42 -72 42 -75 0 -98 -9 -96 -34 3 -42 -3 -151 -8 -138 -6 14 -33
16 -33 2 0 -5 -9 -10 -20 -10 -11 0 -20 5 -20 10 0 6 -7 10 -15 10 -8 0 -15 4
-15 9 0 6 -18 20 -40 32 -37 21 -44 31 -41 52 0 4 -4 7 -10 7 -5 0 -7 5 -4 10
3 6 1 10 -6 10 -8 0 -9 3 0 13 9 12 -26 15 -207 20 -119 4 -288 12 -374 18
l-157 11 -112 -116 c-62 -64 -118 -116 -126 -116 -9 0 -13 14 -13 43 0 24 -3
47 -7 51 -12 12 -28 89 -28 136 0 25 -3 47 -7 51 -10 7 -8 2454 3 3009 4 234
12 470 18 525 16 160 50 407 61 445 5 19 17 71 26 115 9 44 20 89 24 100 10
25 46 140 56 180 9 35 9 35 17 55 12 29 49 135 54 155 2 11 8 29 13 40 4 11
16 49 25 85 9 36 25 92 35 125 10 33 30 101 45 150 15 50 49 158 75 240 27 83
61 209 75 280 14 72 30 148 35 170 5 22 14 72 21 110 6 39 15 93 21 120 25
129 29 173 34 355 5 145 9 198 19 206 35 27 40 133 45 891 1 150 5 275 10 278
5 3 7 12 4 19 -5 13 12 19 125 42 36 8 21 13 -54 19 -96 8 -105 18 -105 119 0
45 5 101 11 125 7 32 7 46 -1 51 -7 5 -3 10 12 15 l23 8 -25 5 c-24 4 -24 5
10 18 31 11 32 13 10 13 -14 0 -36 -5 -50 -12z m10 -112 c0 -8 -4 -15 -10 -15
-5 0 -7 7 -4 15 4 8 8 15 10 15 2 0 4 -7 4 -15z m-296 -8229 c-4 -11 -15 -29
-26 -40 -16 -18 -20 -19 -28 -6 -16 24 -11 41 16 67 21 19 29 22 35 11 5 -7 6
-22 3 -32z m1416 -102 c0 -8 -6 -11 -15 -8 -8 4 -15 12 -15 20 0 8 6 11 15 8
8 -4 15 -12 15 -20z m-365 -154 c-3 -5 -13 -10 -21 -10 -8 0 -14 5 -14 10 0 6
9 10 21 10 11 0 17 -4 14 -10z"/>
<path d="M2280 9081 c0 -6 4 -13 10 -16 6 -3 7 1 4 9 -7 18 -14 21 -14 7z"/>
<path d="M2288 8820 c-10 -9 -18 -28 -18 -41 0 -22 1 -22 21 10 23 39 22 56
-3 31z"/>
<path d="M2272 8720 c0 -14 2 -19 5 -12 2 6 2 18 0 25 -3 6 -5 1 -5 -13z"/>
<path d="M2273 8635 c0 -22 2 -30 4 -17 2 12 2 30 0 40 -3 9 -5 -1 -4 -23z"/>
<path d="M2283 8465 c0 -22 2 -30 4 -17 2 12 2 30 0 40 -3 9 -5 -1 -4 -23z"/>
<path d="M2282 8350 c0 -19 2 -27 5 -17 2 9 2 25 0 35 -3 9 -5 1 -5 -18z"/>
<path d="M2282 8260 c0 -14 2 -19 5 -12 2 6 2 18 0 25 -3 6 -5 1 -5 -13z"/>
<path d="M2294 8085 c0 -49 1 -71 3 -48 2 23 2 64 0 90 -2 26 -3 8 -3 -42z"/>
<path d="M2303 7800 c0 -47 2 -66 4 -42 2 23 2 61 0 85 -2 23 -4 4 -4 -43z"/>
<path d="M1960 3308 c-8 -49 -8 -128 0 -128 6 0 10 28 10 65 0 36 -2 65 -5 65
-3 0 -5 -1 -5 -2z"/>
<path d="M1774 3269 c3 -17 6 -47 6 -66 0 -19 3 -32 8 -30 11 7 2 127 -10 127
-6 0 -8 -12 -4 -31z"/>
<path d="M2148 3276 c26 -34 27 -42 8 -78 -12 -23 -12 -26 0 -21 34 13 30 88
-6 112 l-25 16 23 -29z"/>
<path d="M1696 3275 c4 -8 8 -15 10 -15 2 0 4 7 4 15 0 8 -4 15 -10 15 -5 0
-7 -7 -4 -15z"/>
<path d="M2066 3274 c-9 -8 -16 -28 -16 -44 0 -16 7 -36 16 -44 23 -23 24 -20
8 14 -14 27 -14 33 0 60 16 34 15 37 -8 14z"/>
<path d="M1601 3273 c4 -11 114 -103 123 -103 17 0 1 20 -41 51 -25 19 -55 41
-66 49 -11 8 -18 10 -16 3z"/>
<path d="M2230 3248 c-1 -13 -7 -40 -14 -60 -11 -31 -11 -38 0 -42 10 -4 14 3
14 22 1 15 7 44 14 65 12 31 12 37 0 37 -8 0 -14 -10 -14 -22z"/>
<path d="M1527 3248 c6 -7 16 -37 23 -65 6 -29 15 -51 19 -48 13 8 -22 125
-38 125 -9 0 -10 -4 -4 -12z"/>
<path d="M1472 3220 c0 -19 2 -27 5 -17 2 9 2 25 0 35 -3 9 -5 1 -5 -18z"/>
<path d="M1712 3230 c0 -14 2 -19 5 -12 2 6 2 18 0 25 -3 6 -5 1 -5 -13z"/>
<path d="M1818 3243 c7 -3 16 -2 19 1 4 3 -2 6 -13 5 -11 0 -14 -3 -6 -6z"/>
<path d="M2331 3188 c-11 -34 -19 -64 -16 -66 7 -7 9 -4 32 61 11 31 17 59 13
62 -5 3 -18 -23 -29 -57z"/>
<path d="M1420 3215 c0 -8 2 -15 4 -15 2 0 6 7 10 15 3 8 1 15 -4 15 -6 0 -10
-7 -10 -15z"/>
<path d="M1393 3182 c15 -15 27 -34 27 -42 0 -7 3 -10 7 -7 3 4 15 0 25 -10
10 -9 21 -13 26 -9 4 4 -5 17 -21 28 -15 11 -27 26 -27 34 0 9 -4 13 -9 10 -5
-3 -14 1 -21 9 -7 8 -17 15 -23 15 -6 0 1 -13 16 -28z"/>
<path d="M2440 3164 c0 -25 -5 -54 -10 -65 -8 -14 -7 -19 3 -19 15 0 16 4 22
78 2 28 -1 52 -6 52 -5 0 -9 -21 -9 -46z"/>
<path d="M1367 3139 c29 -29 55 -50 58 -47 7 6 -79 91 -98 97 -7 2 11 -21 40
-50z"/>
<path d="M1620 3170 c0 -11 4 -20 9 -20 5 0 7 9 4 20 -3 11 -7 20 -9 20 -2 0
-4 -9 -4 -20z"/>
<path d="M2505 3170 c-3 -6 1 -7 9 -4 18 7 21 14 7 14 -6 0 -13 -4 -16 -10z"/>
<path d="M1849 3041 c-20 -20 -29 -39 -29 -61 0 -42 47 -90 88 -90 47 0 92 43
92 88 -1 85 -91 122 -151 63z m59 -3 c9 -9 12 -9 12 0 0 7 4 12 10 12 14 0 40
-55 40 -86 l0 -26 -20 23 -19 24 8 -32 c12 -40 4 -48 -20 -20 l-18 22 -1 -24
c0 -31 -13 -20 -39 34 -20 43 -18 60 6 51 10 -4 13 -2 10 8 -10 25 11 34 31
14z"/>
<path d="M1115 2482 c-68 -14 -85 -114 -26 -159 36 -28 121 -2 121 37 0 15
-10 12 -28 -9 -42 -49 -112 -21 -112 45 0 77 97 103 123 32 2 -7 8 -10 12 -6
4 4 1 18 -8 31 -16 25 -47 36 -82 29z"/>
<path d="M1998 2474 c-54 -29 -65 -98 -23 -139 51 -52 145 -12 145 61 0 31
-30 72 -61 83 -18 6 -32 11 -33 11 -1 -1 -13 -7 -28 -16z m83 -25 c29 -29 23
-85 -13 -112 -23 -17 -31 -18 -57 -8 -35 15 -55 60 -41 96 18 46 76 59 111 24z"/>
<path d="M1250 2401 c0 -44 5 -83 10 -86 6 -4 10 10 10 34 l0 41 49 0 50 0 4
-42 c2 -24 4 -2 4 47 0 57 -2 76 -6 50 -6 -40 -6 -40 -53 -43 l-48 -3 0 40 c0
23 -4 41 -10 41 -6 0 -10 -33 -10 -79z"/>
<path d="M1460 2408 c-47 -106 -47 -106 -27 -89 9 7 17 20 17 27 0 10 14 14
48 14 43 0 50 -3 61 -26 6 -15 14 -24 17 -22 7 7 -62 162 -74 166 -5 1 -24
-30 -42 -70z m59 11 c6 -18 11 -34 11 -35 0 -2 -14 -4 -31 -4 -26 0 -30 3 -24
18 4 9 10 25 12 35 8 26 20 21 32 -14z"/>
<path d="M1610 2401 c0 -44 5 -83 10 -86 6 -4 10 7 10 24 0 26 4 31 23 31 14
0 32 -12 45 -30 30 -40 50 -39 22 1 -21 28 -21 31 -5 43 23 17 22 66 -1 83
-10 7 -37 13 -61 13 l-43 0 0 -79z m101 43 c20 -24 -1 -48 -45 -52 -35 -3 -36
-2 -36 32 0 34 2 36 34 36 18 0 39 -7 47 -16z"/>
<path d="M1770 2400 c0 -90 5 -97 66 -86 50 10 74 38 74 85 0 52 -34 81 -96
81 l-44 0 0 -80z m108 47 c40 -47 8 -117 -54 -117 l-34 0 0 65 0 65 39 0 c21
0 43 -6 49 -13z"/>
<path d="M2162 2393 l2 -88 5 70 6 69 53 -67 c30 -37 56 -67 58 -67 2 0 3 39
2 88 l-2 87 -5 -70 -6 -70 -54 68 c-30 37 -56 67 -58 67 -2 0 -2 -39 -1 -87z"/>
<path d="M2342 2398 c2 -77 2 -78 5 -20 2 34 7 62 11 62 4 0 29 -30 56 -65 27
-36 50 -65 52 -65 2 0 3 39 2 88 l-2 87 -5 -70 -6 -70 -50 67 c-27 37 -53 67
-57 68 -5 0 -7 -37 -6 -82z"/>
<path d="M2545 2403 c-20 -42 -34 -81 -32 -87 3 -6 10 1 17 17 11 23 19 27 56
27 37 0 46 -4 58 -27 27 -50 17 -4 -16 72 -18 41 -36 75 -40 75 -5 0 -24 -35
-43 -77z m63 7 c11 -30 10 -30 -23 -30 l-35 0 17 35 c18 39 27 38 41 -5z"/>
<path d="M2660 2475 c0 -3 14 -27 30 -53 17 -28 30 -63 30 -81 0 -19 4 -30 10
-26 6 3 10 20 10 37 0 16 8 42 19 56 28 40 43 72 34 72 -5 0 -21 -21 -37 -47
l-28 -47 -26 47 c-23 40 -42 59 -42 42z"/>
<path d="M1439 1500 c-21 -67 -11 -74 13 -8 21 60 20 58 11 58 -5 0 -15 -23
-24 -50z"/>
<path d="M1876 1510 c-9 -22 -16 -46 -16 -53 1 -6 10 10 20 37 11 28 18 51 16
53 -2 2 -11 -14 -20 -37z"/>
<path d="M2070 1508 c0 -7 -3 -24 -6 -38 -4 -18 -1 -16 10 9 19 39 19 41 6 41
-5 0 -10 -6 -10 -12z"/>
<path d="M1595 1490 c3 -5 8 -10 11 -10 2 0 4 5 4 10 0 6 -5 10 -11 10 -5 0
-7 -4 -4 -10z"/>
<path d="M1635 1480 c-4 -12 -5 -24 -2 -27 3 -2 8 5 12 17 4 12 5 24 2 27 -3
2 -8 -5 -12 -17z"/>
<path d="M1690 1491 c0 -5 -3 -17 -7 -27 -4 -11 -3 -15 4 -11 14 9 24 47 12
47 -5 0 -9 -4 -9 -9z"/>
<path d="M1726 1485 c-3 -9 -6 -22 -5 -28 0 -7 5 -1 10 12 5 13 8 26 5 28 -2
2 -6 -3 -10 -12z"/>
<path d="M1826 1474 c-4 -14 -5 -28 -3 -31 3 -2 8 8 11 23 4 14 5 28 3 31 -3
2 -8 -8 -11 -23z"/>
<path d="M1901 1484 c0 -11 3 -14 6 -6 3 7 2 16 -1 19 -3 4 -6 -2 -5 -13z"/>
<path d="M1960 1485 c0 -8 2 -15 4 -15 2 0 6 7 10 15 3 8 1 15 -4 15 -6 0 -10
-7 -10 -15z"/>
<path d="M1994 1484 c-4 -10 -9 -22 -11 -26 -2 -5 0 -8 5 -8 10 0 24 41 17 48
-3 3 -8 -4 -11 -14z"/>
<path d="M2031 1493 c-1 -6 -4 -20 -7 -30 -5 -17 -5 -17 6 0 6 10 9 23 6 30
-3 9 -5 9 -5 0z"/>
<path d="M2230 1479 c-7 -11 -10 -23 -7 -25 2 -2 9 7 15 21 14 30 7 33 -8 4z"/>
<path d="M2270 1491 c0 -5 -3 -17 -7 -27 -4 -11 -3 -15 4 -11 14 9 24 47 12
47 -5 0 -9 -4 -9 -9z"/>
<path d="M2311 1493 c-1 -6 -4 -20 -7 -30 -5 -17 -5 -17 6 0 6 10 9 23 6 30
-3 9 -5 9 -5 0z"/>
<path d="M2142 1470 c0 -14 2 -19 5 -12 2 6 2 18 0 25 -3 6 -5 1 -5 -13z"/>
<path d="M2172 1470 c0 -14 2 -19 5 -12 2 6 2 18 0 25 -3 6 -5 1 -5 -13z"/>
<path d="M1493 1473 c-19 -7 -15 -29 5 -29 10 0 18 8 18 18 0 19 -3 20 -23 11z"/>
<path d="M1555 1469 c-4 -6 -5 -12 -2 -15 2 -3 7 2 10 11 7 17 1 20 -8 4z"/>
<path d="M1786 1471 c-4 -7 -5 -15 -2 -18 9 -9 19 4 14 18 -4 11 -6 11 -12 0z"/>
<path d="M1925 1469 c-4 -6 -5 -12 -2 -15 2 -3 7 2 10 11 7 17 1 20 -8 4z"/>
<path d="M2334 1469 c-3 -6 -1 -16 4 -21 8 -8 11 -5 9 11 -1 24 -3 25 -13 10z"/>
<path d="M1825 1360 c3 -5 8 -10 11 -10 2 0 4 5 4 10 0 6 -5 10 -11 10 -5 0
-7 -4 -4 -10z"/>
<path d="M1905 1314 c-9 -25 -14 -48 -11 -51 8 -8 8 -7 28 50 22 60 6 62 -17
1z"/>
<path d="M1956 1325 c-19 -45 -20 -65 -4 -65 6 0 9 3 5 6 -3 4 1 24 10 46 8
21 13 41 10 44 -3 4 -13 -11 -21 -31z"/>
<path d="M1796 1335 c-4 -11 -10 -31 -12 -45 -3 -14 -12 -36 -21 -50 l-16 -25
21 19 c12 10 24 28 28 40 4 11 10 23 14 26 3 3 4 16 0 30 -6 23 -6 24 -14 5z"/>
<path d="M1505 1300 c-3 -5 -1 -18 4 -27 9 -16 10 -14 11 10 0 28 -5 34 -15
17z"/>
<path d="M1536 1293 c-4 -9 -2 -21 4 -27 7 -7 10 -2 10 17 0 31 -5 34 -14 10z"/>
<path d="M1595 1289 c-6 -19 0 -38 9 -28 10 12 16 49 7 49 -5 0 -13 -9 -16
-21z"/>
<path d="M1643 1293 c-3 -10 -8 -21 -10 -25 -2 -5 0 -8 5 -8 5 0 14 11 20 25
7 16 8 25 1 25 -5 0 -12 -8 -16 -17z"/>
<path d="M1683 1304 c3 -4 2 -15 -4 -25 -7 -14 -6 -19 3 -19 8 0 15 11 16 25
1 14 -3 25 -10 25 -6 0 -8 -3 -5 -6z"/>
<path d="M1726 1294 c-22 -22 -20 -34 7 -34 16 0 18 3 8 9 -7 5 -10 14 -7 20
4 6 11 9 16 6 5 -3 11 -1 15 5 10 16 -22 12 -39 -6z"/>
<path d="M1858 1285 c-4 -20 -3 -23 8 -14 16 13 19 39 5 39 -5 0 -11 -11 -13
-25z"/>
<path d="M1988 1285 c2 -14 8 -25 13 -25 5 0 9 11 9 25 0 14 -6 25 -14 25 -9
0 -12 -8 -8 -25z"/>
<path d="M2025 1283 c-9 -38 -23 -53 -43 -46 -13 5 -14 3 -6 -6 17 -19 50 2
63 40 13 39 13 39 2 39 -5 0 -12 -12 -16 -27z"/>
<path d="M2100 1291 c-13 -26 -13 -31 4 -31 8 0 13 8 12 18 0 9 5 16 12 15 6
-2 12 2 12 7 0 18 -29 11 -40 -9z"/>
<path d="M2187 1290 c-3 -11 -1 -20 4 -20 5 0 9 2 9 4 0 2 3 11 6 20 3 9 2 16
-4 16 -5 0 -12 -9 -15 -20z"/>
<path d="M2223 1293 c-3 -10 -8 -21 -10 -25 -2 -5 0 -8 5 -8 5 0 14 11 20 25
7 16 8 25 1 25 -5 0 -12 -8 -16 -17z"/>
<path d="M2257 1288 c-4 -12 -4 -24 -1 -27 6 -7 24 20 24 37 0 21 -17 13 -23
-10z"/>
<path d="M2297 1288 c-6 -21 -2 -36 7 -27 10 11 16 49 8 49 -5 0 -12 -10 -15
-22z"/>
<path d="M1827 1293 c-10 -9 -9 -33 1 -33 4 0 8 9 9 20 2 21 0 24 -10 13z"/>
<path d="M2152 1288 c-14 -14 -16 -28 -3 -28 5 0 11 9 14 20 6 23 5 24 -11 8z"/>
</g>
</svg>
