<?xml version="1.0" standalone="no"?>
<!DOCTYPE svg PUBLIC "-//W3C//DTD SVG 20010904//EN"
 "http://www.w3.org/TR/2001/REC-SVG-20010904/DTD/svg10.dtd">
<svg version="1.0" xmlns="http://www.w3.org/2000/svg"
 width="960.000000pt" height="639.000000pt" viewBox="0 0 960.000000 639.000000"
 preserveAspectRatio="xMidYMid meet">

<g transform="translate(0.000000,639.000000) scale(0.100000,-0.100000)"
fill="#000000" stroke="none">
<path d="M0 3195 l0 -3195 4800 0 4800 0 0 3195 0 3195 -4036 0 c-3996 0
-4037 0 -4068 -20 -18 -10 -38 -31 -46 -44 -7 -14 -21 -28 -32 -32 -10 -3 -18
-10 -18 -15 0 -5 -8 -9 -19 -9 -10 0 -24 -7 -31 -15 -7 -8 -9 -15 -5 -15 8 0
-6 -13 -66 -64 -38 -32 -51 -63 -51 -115 1 -51 4 -70 15 -88 5 -7 5 -13 2 -13
-4 0 7 -16 24 -35 17 -20 31 -40 31 -45 0 -12 37 -50 49 -50 5 0 16 -15 25
-34 9 -19 28 -44 42 -55 14 -11 26 -33 29 -49 2 -17 8 -39 14 -51 17 -30 30
-140 17 -138 -6 1 -12 -8 -14 -21 -3 -20 -1 -21 23 -12 15 6 33 6 43 1 17 -9
58 -15 167 -27 33 -3 62 -10 65 -14 8 -13 81 -41 165 -64 70 -19 95 -21 207
-15 79 4 134 11 143 19 19 16 247 5 317 -15 43 -12 49 -12 58 3 10 15 10 15 6
-3 -3 -11 -21 -99 -40 -195 -20 -96 -50 -240 -67 -320 -17 -80 -34 -167 -39
-195 -5 -27 -19 -99 -30 -160 -36 -188 -69 -398 -64 -407 3 -4 0 -8 -7 -8 -7
0 -9 -10 -5 -30 3 -18 1 -30 -5 -30 -6 0 -8 -9 -4 -21 4 -12 2 -31 -4 -43 -15
-30 -85 -502 -123 -831 -14 -122 -17 -622 -6 -805 4 -63 6 -110 3 -105 -3 6
-72 8 -197 3 -154 -5 -220 -12 -323 -34 -112 -23 -155 -27 -310 -28 -185 -1
-215 2 -370 34 -49 10 -112 23 -140 28 -27 6 -81 18 -120 27 -38 8 -119 18
-180 20 -132 5 -225 15 -225 25 0 4 -18 13 -40 20 -32 10 -40 18 -40 37 0 13
-7 26 -16 30 -9 3 -13 12 -9 21 3 9 3 13 -1 10 -12 -12 -44 12 -44 32 0 11 -6
19 -12 17 -7 -1 -14 8 -16 20 -2 12 -10 27 -18 33 -8 7 -14 20 -14 29 0 9 -10
32 -22 51 -16 26 -22 56 -26 119 -4 81 12 196 29 207 5 3 9 18 9 34 0 15 6 30
13 33 7 2 23 35 36 72 15 42 36 79 57 99 62 60 82 76 92 76 14 0 263 247 280
278 8 15 23 42 33 61 10 18 27 39 37 47 12 8 18 23 17 43 -1 17 2 28 6 26 4
-3 10 2 13 10 3 9 -1 18 -9 21 -28 11 -7 79 27 90 11 3 17 12 14 20 -3 7 -2
13 2 13 24 -4 31 6 38 46 3 25 3 53 -1 62 -4 10 -7 42 -8 72 -1 32 -7 56 -14
58 -9 3 -9 10 -1 28 8 18 8 28 -1 39 -8 10 -9 16 -1 21 27 17 -2 105 -35 105
-35 0 -83 108 -89 200 -6 88 -19 138 -44 171 -31 41 -72 117 -72 134 0 9 -4
14 -9 10 -18 -10 -31 58 -23 120 6 44 11 59 22 58 11 -2 16 9 17 45 3 58 20
180 28 192 3 5 1 11 -5 15 -5 3 -10 17 -10 30 0 13 -5 27 -11 30 -5 4 -9 17
-8 28 2 35 -2 44 -10 22 -6 -15 -10 -5 -16 40 -4 33 -13 67 -20 75 -7 8 -27
44 -44 80 -18 36 -41 74 -51 85 -15 16 -30 50 -35 75 0 3 -11 25 -24 49 -20
38 -23 57 -22 155 1 64 5 112 11 114 6 2 13 21 16 43 4 22 11 42 15 45 5 3 9
22 9 43 0 21 7 55 15 75 8 20 12 36 9 36 -4 0 -1 6 5 14 6 7 8 21 5 31 -5 11
-1 22 8 29 8 6 17 28 20 49 l4 37 -233 0 -233 0 0 -3195z m4985 2809 c138 -4
259 -10 270 -15 19 -7 19 -8 -2 -8 -45 -2 -22 -20 30 -24 l52 -3 -62 -2 c-65
-2 -99 -21 -41 -23 18 -1 -12 -6 -67 -11 -134 -11 -1964 13 -2033 28 -21 4
-22 6 -7 34 l15 30 188 3 c258 5 1352 -1 1657 -9z m-2066 -8 c14 -9 10 -43 -7
-71 -12 -18 -12 -16 -7 13 4 20 3 32 -4 32 -6 0 -11 -1 -12 -2 0 -2 -2 -23 -5
-48 -4 -33 -2 -41 5 -30 20 29 12 -13 -18 -96 -16 -43 -40 -124 -54 -179 -77
-301 -99 -395 -132 -545 -72 -332 -78 -359 -85 -355 -4 2 -5 -8 -2 -23 3 -15
1 -23 -4 -19 -13 12 -34 -92 -29 -143 3 -34 2 -39 -4 -20 -8 23 -9 23 -10 4
-1 -12 -3 -37 -6 -55 -4 -28 -4 -30 5 -14 9 16 9 14 5 -14 -3 -18 -5 -41 -5
-50 0 -12 -2 -13 -9 -3 -11 18 -23 -58 -16 -96 4 -19 3 -22 -3 -8 -8 18 -20
-35 -53 -234 -6 -36 -17 -84 -25 -107 -14 -48 -13 -50 22 -27 13 9 27 14 30
11 10 -10 -30 -54 -44 -49 -7 2 -22 -6 -32 -19 -16 -17 -20 -18 -20 -6 0 9 4
18 9 21 4 3 11 22 14 43 13 92 89 535 102 604 9 41 13 84 9 94 -6 14 -4 16 6
10 10 -6 12 0 7 31 -5 29 -4 35 4 24 8 -11 9 -5 5 25 -3 22 -2 32 2 22 10 -24
46 145 37 176 -5 17 -4 19 4 7 9 -13 11 -13 11 2 0 9 3 25 6 35 5 15 4 16 -6
3 -9 -13 -11 -12 -6 5 38 151 65 269 71 305 13 91 107 473 145 597 22 70 37
135 34 145 -4 15 0 17 24 14 16 -2 34 -6 41 -10z m145 8 c13 -5 12 -9 -7 -26
l-22 -20 23 5 c12 3 22 1 22 -4 0 -10 -48 -12 -101 -3 -29 5 -36 10 -32 25 4
13 17 19 52 22 25 2 47 4 48 5 1 1 8 -1 17 -4z m79 -85 c-11 -4 -23 -19 -25
-33 -5 -23 -2 -26 24 -26 33 0 33 9 -3 -105 -11 -34 -37 -97 -58 -140 -31 -63
-37 -85 -30 -104 12 -29 4 -74 -27 -172 -29 -89 -49 -121 -63 -100 -5 8 -11 9
-15 3 -11 -18 -77 -206 -88 -251 -6 -27 -13 -39 -18 -31 -4 7 -4 26 1 44 5 17
29 113 54 213 25 100 54 205 65 233 11 28 20 64 20 80 0 16 7 50 16 76 9 25
17 54 19 63 2 9 20 61 39 115 20 55 34 102 31 104 -2 3 -30 0 -61 -7 -32 -6
-60 -9 -62 -6 -3 3 0 16 6 30 11 25 14 25 104 24 56 -1 84 -5 71 -10z m777 -9
c272 -6 668 -15 880 -20 212 -5 491 -10 620 -12 221 -3 235 -4 238 -22 4 -20
-6 -20 -433 -1 -89 4 -105 3 -85 -6 l25 -12 -30 -6 c-29 -6 -30 -8 -27 -51 2
-25 5 -75 7 -112 3 -56 8 -72 30 -95 15 -16 31 -40 37 -55 5 -16 15 -28 22
-28 6 0 19 -9 29 -20 9 -11 26 -20 38 -20 14 0 19 -5 16 -14 -7 -18 43 -32 54
-15 4 8 20 10 43 6 25 -4 40 -1 51 9 8 9 15 11 15 6 0 -6 12 -13 28 -16 15 -4
38 -9 52 -12 71 -17 83 -17 97 2 7 10 13 12 13 5 0 -7 8 -11 19 -9 27 5 87
-72 106 -137 14 -49 14 -57 1 -70 -8 -8 -22 -12 -30 -9 -9 3 -16 1 -16 -5 0
-15 -16 -14 -32 2 -21 21 -137 77 -167 81 -14 1 -36 8 -49 15 -12 6 -66 13
-121 15 -54 2 -104 7 -111 11 -6 4 -109 9 -227 11 -121 2 -234 9 -257 16 -22
6 -53 10 -68 9 -14 -1 -28 2 -32 7 -3 5 -32 4 -68 -1 -35 -5 -86 -10 -114 -11
-28 0 -57 -6 -65 -12 -8 -6 -31 -10 -51 -9 -27 1 -38 -3 -38 -13 0 -11 -3 -12
-13 -4 -10 9 -20 7 -37 -5 -16 -11 -47 -17 -91 -18 -40 -1 -77 -8 -91 -17 -36
-22 -127 -39 -188 -34 -30 3 -59 5 -65 5 -14 1 -76 -7 -187 -26 -73 -12 -101
-13 -111 -5 -16 13 -177 5 -177 -9 0 -5 -7 -6 -15 -3 -14 6 -75 -50 -75 -69 0
-4 -4 -6 -9 -3 -4 3 -16 -28 -26 -69 -9 -41 -21 -72 -27 -69 -5 3 -6 14 -3 25
13 41 -13 16 -34 -33 -26 -59 -38 -128 -26 -155 13 -31 15 -117 4 -145 -18
-44 -4 -76 36 -87 29 -8 52 -5 118 14 45 14 94 25 108 25 14 0 60 16 102 35
101 47 206 64 268 43 42 -14 47 -14 124 14 l80 28 225 -6 c229 -6 348 -20 443
-54 80 -28 291 -131 300 -147 9 -15 22 -27 50 -46 10 -7 19 -20 20 -29 2 -9 9
-24 17 -34 12 -13 16 -54 17 -178 4 -236 8 -295 21 -308 15 -15 16 -58 2 -58
-5 0 -10 -25 -10 -55 0 -51 2 -55 23 -55 25 0 67 -30 67 -47 0 -6 7 -17 16
-24 15 -12 16 -11 9 11 -4 14 -11 29 -15 34 -5 4 -6 24 -3 42 6 37 -3 44 -22
17 -10 -14 -14 -5 -22 53 -5 38 -9 83 -8 99 2 26 6 30 30 28 29 -2 76 -44 89
-78 4 -11 0 -49 -10 -86 -9 -37 -14 -75 -10 -85 6 -15 11 -11 33 26 23 38 27
41 34 24 4 -10 8 -13 8 -6 1 6 7 12 14 12 9 0 11 -19 9 -76 -5 -82 15 -404 28
-469 5 -29 8 0 10 105 2 86 5 131 9 110 7 -34 8 -33 14 20 3 30 8 104 11 163
4 83 10 119 26 153 22 45 47 61 34 22 -6 -20 -5 -21 10 -6 9 9 16 19 16 22 0
3 9 15 20 26 12 12 18 25 15 30 -4 6 10 25 29 44 56 53 46 91 -15 55 -19 -11
-42 -22 -51 -25 -10 -4 -18 -10 -18 -14 0 -4 -8 -10 -18 -12 -12 -4 -23 -21
-30 -50 -7 -25 -21 -56 -31 -69 l-20 -24 -1 40 c0 30 -8 48 -30 73 -16 17 -33
32 -37 32 -5 0 -19 9 -32 19 -20 15 -22 21 -11 40 9 17 9 26 -1 37 -7 8 -13
44 -15 80 -2 36 -7 71 -12 77 -14 18 -20 69 -13 97 5 16 1 36 -11 57 -13 20
-15 33 -8 38 7 4 7 12 0 25 -8 15 -6 21 9 29 25 14 157 -9 256 -42 88 -30 261
-136 331 -202 64 -60 64 -63 34 -255 -12 -79 -20 -177 -20 -265 -1 -112 -5
-151 -20 -195 -21 -58 -26 -120 -11 -135 5 -6 -1 -71 -15 -155 -25 -158 -29
-209 -15 -194 17 17 40 113 52 217 8 65 19 112 31 128 14 21 15 29 5 37 -8 7
-11 26 -9 51 3 32 9 40 28 45 17 5 24 13 24 32 0 14 -4 23 -9 20 -25 -16 -28
126 -6 298 8 65 17 121 20 124 3 3 5 0 5 -6 0 -18 27 -14 34 4 3 9 6 28 6 43
0 14 7 37 16 49 l16 23 14 -26 c7 -14 11 -32 7 -40 -3 -9 1 -15 8 -15 10 -1 9
-5 -4 -14 -9 -7 -15 -20 -13 -27 2 -8 7 -27 11 -44 l7 -30 -24 21 c-45 41 -48
39 -47 -28 0 -56 7 -76 55 -175 39 -80 53 -119 49 -134 -5 -13 -3 -19 3 -15 6
4 9 -9 8 -33 -1 -22 2 -38 6 -35 10 7 10 -4 -1 -43 -5 -18 -6 -35 -2 -37 4 -3
8 -20 9 -38 1 -18 8 -78 17 -133 16 -110 18 -165 8 -270 -4 -44 -9 -62 -13
-50 -6 17 -9 16 -25 -15 -10 -19 -21 -37 -25 -40 -3 -3 -15 -19 -25 -36 -15
-26 -26 -33 -64 -38 -25 -3 -71 -10 -101 -16 -30 -6 -63 -11 -72 -11 -10 0
-18 -6 -18 -12 0 -8 -4 -7 -9 2 -5 8 -13 51 -17 95 l-8 81 -10 -75 -11 -75
-40 -3 c-22 -2 -43 -8 -47 -15 -8 -13 -48 -17 -48 -5 0 4 -11 8 -25 8 -19 0
-25 5 -26 23 -1 65 -8 101 -29 157 -13 34 -26 58 -29 53 -3 -4 -16 -13 -28
-20 -27 -15 -33 -2 -33 70 0 62 -55 449 -70 492 -7 22 -8 -8 -3 -105 3 -74 7
-154 7 -177 1 -22 5 -39 10 -36 4 3 5 -9 1 -26 -4 -20 -3 -31 4 -31 6 0 11 -9
11 -21 0 -13 -4 -18 -12 -14 -7 4 -6 1 3 -7 25 -21 30 -99 13 -190 -9 -46 -13
-102 -10 -125 3 -26 1 -43 -6 -45 -6 -2 -43 0 -82 4 -39 4 -84 9 -101 10 -17
2 -33 10 -37 21 -4 9 -14 17 -23 17 -20 0 -19 16 1 24 13 5 13 9 -5 32 -28 36
-27 41 14 55 40 15 44 35 24 115 -13 49 -19 53 -37 24 -7 -12 -17 -18 -22 -15
-5 3 -6 80 -3 175 5 125 3 170 -5 170 -16 0 -15 27 0 32 8 3 9 23 2 76 -6 40
-7 78 -2 85 11 17 9 144 -3 197 -5 24 -7 46 -2 47 10 4 7 150 -6 278 -10 94
-9 101 9 117 25 21 25 21 -9 60 -37 43 -68 147 -51 177 6 12 15 19 20 16 4 -3
3 5 -3 18 -11 24 -96 77 -123 77 -23 0 0 -26 29 -34 12 -3 28 -14 35 -26 19
-31 -15 -26 -64 9 -38 28 -169 101 -180 101 -4 0 0 -7 7 -17 13 -15 10 -16
-31 -10 -44 7 -44 6 23 -22 60 -26 92 -48 173 -121 12 -10 24 -16 27 -14 3 3
8 0 13 -7 4 -8 3 -10 -4 -5 -20 12 -13 -11 7 -25 10 -8 21 -30 25 -49 4 -25 3
-31 -4 -20 -5 8 -10 23 -10 32 0 9 -13 26 -30 38 -16 12 -30 28 -30 36 0 8 -4
14 -10 14 -5 0 -10 -6 -10 -14 0 -8 5 -18 10 -21 6 -3 10 -16 10 -29 0 -14 12
-32 29 -45 26 -20 28 -27 24 -64 -3 -23 -9 -46 -13 -51 -5 -4 -4 -21 2 -37 6
-16 7 -45 4 -64 -4 -19 -6 -38 -4 -42 2 -3 -28 -13 -66 -20 -73 -15 -115 -38
-116 -63 0 -9 -9 -42 -20 -73 -20 -55 -19 -84 0 -72 12 7 24 -40 15 -54 -10
-17 -43 -13 -49 7 -2 9 -8 37 -11 62 -11 69 -30 98 -73 111 -20 6 -51 9 -67 7
-29 -3 -30 -5 -32 -53 -1 -35 1 -42 6 -25 19 66 120 14 121 -62 0 -26 -15 -22
-29 9 -11 24 -13 25 -28 10 -14 -14 -15 -22 -4 -59 7 -24 31 -73 53 -110 22
-37 38 -75 35 -85 -3 -14 -8 -9 -20 18 -9 19 -23 42 -32 49 -9 7 -23 27 -32
43 -12 23 -17 27 -24 16 -6 -9 -9 6 -9 44 0 44 -3 57 -15 57 -10 0 -15 -10
-16 -27 0 -16 -3 -48 -7 -73 -10 -64 -6 -222 6 -262 6 -18 16 -52 22 -75 10
-40 13 -43 45 -43 l34 0 -6 48 c-3 32 -1 57 8 73 12 23 13 21 25 -41 8 -43 11
-108 7 -192 -4 -94 -3 -128 5 -128 7 0 12 16 12 39 0 21 3 53 7 72 5 27 8 29
13 14 4 -11 10 29 14 87 13 200 47 225 47 35 0 -149 1 -167 10 -161 4 2 14 -5
22 -17 11 -14 21 -19 35 -15 14 5 27 -2 47 -26 15 -18 33 -33 39 -33 6 -1 29
-10 51 -20 22 -10 45 -19 50 -20 6 0 9 -6 7 -13 -1 -7 5 -12 13 -12 11 0 14
-7 11 -22 -14 -72 -15 -98 -5 -145 7 -32 18 -53 26 -53 15 0 15 -2 7 -24 -4
-11 -11 -13 -31 -5 -14 5 -46 11 -72 12 -25 2 -52 6 -58 10 -6 4 -44 8 -84 9
-60 1 -74 -2 -86 -18 -13 -18 -14 -18 -19 3 -9 33 -42 36 -58 5 l-13 -25 -19
21 c-16 19 -29 22 -89 22 -39 0 -76 -5 -81 -10 -15 -15 -173 -28 -212 -18 -18
5 -41 6 -52 3 -10 -3 -36 3 -57 13 -41 21 -105 41 -155 47 -17 2 -36 9 -41 14
-6 6 -16 11 -22 11 -5 0 -4 -4 4 -9 26 -17 2 -28 -46 -21 -26 4 -67 6 -90 4
-41 -3 -43 -2 -48 29 -3 18 -9 104 -14 192 l-8 160 -2 -205 c-1 -113 -6 -196
-10 -186 -7 19 -8 18 -15 -5 -7 -23 -8 -23 -16 -4 -5 11 -9 16 -9 11 -1 -5 -7
-3 -15 3 -11 9 -42 13 -158 20 -13 1 -18 10 -19 34 l-1 32 -8 -33 c-9 -40 -15
-46 -34 -39 -10 4 -13 13 -10 24 4 12 3 14 -3 6 -12 -17 -78 -20 -96 -5 -12
10 -16 10 -20 0 -5 -15 -51 -15 -90 1 -37 14 -64 14 -71 -1 -3 -7 -4 -4 -1 7
13 63 16 115 7 115 -6 0 -14 -17 -18 -37 -14 -80 -34 -59 -34 37 0 102 -14
103 -42 4 l-25 -88 -54 -2 c-30 -1 -64 2 -76 7 -16 6 -27 2 -46 -17 l-25 -25
-11 33 c-6 17 -8 34 -3 37 12 9 13 61 1 61 -12 0 -8 40 22 220 25 147 47 242
48 211 1 -36 16 -15 35 48 10 36 12 59 6 71 -5 9 -6 20 -3 24 4 3 8 23 10 43
2 20 9 43 15 50 13 16 13 16 -42 32 -39 12 -42 15 -27 26 11 8 34 11 65 7 43
-5 46 -4 33 11 -7 10 -27 17 -43 17 -20 0 -28 4 -25 13 5 12 11 13 37 3 24 -9
39 7 33 37 -4 18 -11 26 -22 25 -18 -3 -19 15 -5 102 5 30 6 93 3 139 -6 72
-4 89 13 117 16 27 17 40 10 81 l-9 48 -8 -41 c-4 -23 -15 -53 -24 -67 -16
-24 -71 -74 -71 -64 0 3 15 36 32 73 21 46 33 87 35 121 1 28 8 62 16 75 17
26 24 62 32 163 6 67 28 175 80 391 14 56 25 112 25 125 0 48 81 397 127 549
37 124 68 213 76 228 10 15 53 15 687 2z m-890 -118 c0 -5 -27 -86 -59 -180
-54 -158 -119 -399 -156 -577 -46 -228 -87 -456 -100 -555 -8 -69 -25 -176
-36 -239 -18 -93 -27 -119 -50 -146 -37 -42 -38 -59 -1 -50 15 3 35 14 44 22
10 8 24 13 32 10 9 -4 18 -2 21 3 7 12 36 13 34 3 -6 -35 8 -24 52 41 46 70
69 96 69 81 0 -13 -52 -95 -60 -95 -4 0 -18 -25 -31 -55 -12 -30 -26 -55 -31
-55 -5 0 -14 12 -20 28 -16 37 -16 36 -32 23 -8 -7 -21 -9 -28 -5 -7 4 -10 3
-5 -1 4 -5 -1 -18 -12 -29 -28 -30 -41 -89 -41 -182 0 -53 -5 -92 -16 -112 -8
-18 -19 -45 -24 -62 l-9 -30 27 21 c15 11 42 27 60 34 22 10 32 21 32 36 0 18
-2 19 -15 9 -9 -7 -19 -10 -23 -6 -4 4 3 16 16 26 18 15 26 40 41 127 10 59
17 111 14 116 -9 16 15 6 32 -13 18 -20 18 -24 2 -83 -9 -35 -19 -90 -22 -122
-4 -33 -10 -71 -15 -85 -5 -14 -11 -56 -15 -95 -3 -38 -7 -81 -9 -95 -2 -14
-4 -33 -4 -42 -1 -10 -10 -18 -20 -18 -24 0 -26 40 -5 137 8 40 12 77 8 83
-12 19 -34 10 -50 -20 -9 -17 -20 -28 -24 -25 -12 7 -31 -18 -47 -62 l-13 -38
-1 35 c0 39 -13 65 -31 65 -6 0 -15 10 -20 23 -11 29 14 30 34 1 21 -30 30 -7
17 42 -8 29 -8 60 -1 109 6 38 11 89 11 114 0 37 5 48 28 66 15 11 38 29 52
40 24 18 22 18 -30 -1 -30 -12 -61 -25 -67 -31 -27 -22 -13 25 17 59 17 18 30
45 30 58 0 30 33 237 65 405 13 69 29 159 35 200 12 74 62 317 121 585 34 152
99 390 122 443 7 18 27 42 43 52 31 20 64 26 64 12z m3320 -122 c0 -20 2 -22
11 -10 8 12 9 9 4 -10 l-6 -25 15 25 c9 14 15 20 16 13 0 -17 32 -22 50 -7 12
10 25 10 65 -1 28 -7 51 -9 53 -4 4 9 31 1 52 -17 8 -7 26 -14 40 -16 14 -1
25 -8 25 -15 0 -6 14 -25 30 -41 43 -44 52 -56 76 -102 12 -22 29 -45 38 -50
15 -9 15 -11 -1 -24 -25 -19 -22 -36 5 -36 16 0 27 -9 37 -32 7 -18 13 -40 12
-48 -6 -52 -2 -154 6 -159 5 -3 12 -36 16 -72 5 -56 3 -69 -13 -87 -11 -13
-21 -46 -25 -81 -5 -42 -12 -61 -24 -66 -16 -7 -15 -8 2 -14 16 -6 16 -9 5
-22 -8 -8 -16 -21 -17 -29 -7 -29 -8 -190 -1 -190 4 0 14 -12 24 -26 15 -24
15 -30 0 -92 -9 -37 -18 -84 -19 -105 -1 -21 -8 -42 -16 -47 -12 -7 -11 -12 4
-29 11 -13 14 -21 7 -21 -8 0 -9 -5 -2 -18 5 -10 9 -24 8 -32 -2 -20 36 -120
45 -120 5 0 8 -16 8 -35 0 -19 5 -35 10 -35 7 0 10 -38 8 -107 -2 -83 -6 -107
-16 -105 -10 2 -11 -4 -6 -20 4 -13 8 -33 7 -45 0 -13 3 -23 8 -23 5 0 9 -12
8 -27 0 -16 2 -39 7 -53 4 -14 8 -106 9 -205 1 -99 7 -214 13 -255 7 -41 10
-102 9 -135 -2 -33 2 -74 8 -91 16 -40 21 -184 11 -299 -8 -91 -12 -111 -40
-200 -9 -27 -16 -62 -16 -77 0 -15 -4 -30 -10 -33 -5 -3 -10 -17 -10 -30 0
-13 -4 -26 -9 -29 -4 -3 -11 -19 -14 -36 -4 -17 -13 -30 -21 -30 -8 0 -23 -13
-32 -30 -13 -21 -20 -26 -26 -17 -6 9 -8 9 -8 -1 0 -7 -4 -11 -9 -7 -6 3 -15
-3 -20 -12 -13 -21 -8 39 14 157 54 301 45 616 -40 1310 -74 601 -143 1014
-270 1615 -54 254 -78 358 -119 528 -4 13 0 10 9 -8 8 -16 14 -41 15 -55z
m-3763 -822 c-3 -8 -6 -5 -6 6 -1 11 2 17 5 13 3 -3 4 -12 1 -19z m2836 -25
c9 -3 17 -9 17 -13 0 -4 11 -11 25 -14 17 -4 22 -11 18 -22 -4 -12 0 -14 20
-9 28 7 113 -18 140 -42 9 -9 20 -14 23 -10 3 3 14 -3 25 -14 13 -13 31 -19
54 -17 28 2 42 -5 75 -37 22 -22 40 -46 40 -54 0 -8 7 -21 15 -30 38 -39 68
-99 75 -150 5 -31 14 -81 20 -111 10 -41 10 -55 1 -58 -8 -3 -7 -8 4 -16 13
-9 9 -11 -24 -8 -52 5 -55 -15 -3 -23 73 -13 103 -27 157 -77 31 -28 53 -53
50 -56 -3 -3 -20 8 -38 24 -42 39 -91 65 -114 61 -26 -4 -44 -17 -38 -27 3 -5
0 -12 -6 -16 -6 -4 -16 1 -21 10 -12 21 -30 21 -27 -1 3 -24 -19 -101 -31
-108 -14 -9 -12 14 5 70 16 56 12 66 -69 145 -25 24 -46 49 -46 55 0 5 14 -5
30 -23 17 -18 30 -29 31 -25 0 5 4 -1 8 -11 5 -13 10 -16 14 -9 4 6 0 18 -8
26 -8 9 -15 20 -15 26 0 6 -3 11 -7 11 -5 1 -34 25 -66 54 -60 56 -154 116
-247 159 -73 33 -299 99 -312 90 -6 -3 -8 -1 -4 5 3 5 0 13 -6 16 -9 3 -7 10
8 23 11 10 23 30 27 43 3 14 8 35 12 46 5 17 1 23 -17 29 -20 6 -21 8 -4 12
10 3 23 0 29 -6 17 -17 27 -13 27 8 0 11 -8 22 -17 24 -14 4 -12 5 5 6 15 1
22 7 22 21 0 14 9 21 38 25 20 4 42 8 47 10 6 2 17 1 25 -2 8 -3 23 -8 33 -10z
m-2846 -15 c-3 -8 -6 -5 -6 6 -1 11 2 17 5 13 3 -3 4 -12 1 -19z m2563 -79 c0
-33 -4 -58 -9 -55 -12 8 -25 102 -16 116 14 23 25 -4 25 -61z m-2573 29 c-3
-7 -5 -2 -5 12 0 14 2 19 5 13 2 -7 2 -19 0 -25z m2663 -48 c0 -5 -7 -10 -15
-10 -10 0 -15 -11 -15 -35 0 -19 -5 -35 -11 -35 -16 0 -4 71 13 82 18 11 28
10 28 -2z m-96 -182 c-18 -32 -39 -48 -62 -48 -21 0 -22 2 -12 15 7 8 21 15
32 15 10 0 21 7 24 15 4 8 10 15 16 15 5 0 6 -6 2 -12z m266 -51 c14 -8 58
-26 96 -41 77 -29 170 -83 160 -93 -3 -3 -14 0 -23 8 -35 29 -120 68 -218 99
-55 17 -102 33 -104 36 -11 10 67 2 89 -9z m313 -156 c15 -8 27 -18 27 -23 0
-10 -25 2 -55 27 -22 18 -15 17 28 -4z m-3196 -128 c-3 -10 -5 -4 -5 12 0 17
2 24 5 18 2 -7 2 -21 0 -30z m-10 -55 c-3 -7 -5 -2 -5 12 0 14 2 19 5 13 2 -7
2 -19 0 -25z m3770 -80 c-3 -8 -6 -5 -6 6 -1 11 2 17 5 13 3 -3 4 -12 1 -19z
m-1437 -68 c-13 -9 -13 -12 3 -21 21 -13 22 -29 1 -29 -9 0 -27 -9 -41 -20
-14 -11 -32 -20 -39 -20 -35 0 13 -49 64 -64 27 -9 28 -21 1 -39 -26 -19 -58
-11 -69 17 -14 34 -40 124 -40 136 0 18 63 50 100 50 27 0 31 -3 20 -10z m147
-62 c-3 -7 -5 -2 -5 12 0 14 2 19 5 13 2 -7 2 -19 0 -25z m503 -38 c0 -5 -5
-10 -11 -10 -5 0 -7 5 -4 10 3 6 8 10 11 10 2 0 4 -4 4 -10z m845 -70 c6 -54
6 -54 -9 -26 -9 15 -16 44 -16 64 0 53 17 27 25 -38z m-181 -65 c9 -71 28
-157 45 -210 17 -49 31 -92 31 -95 0 -16 -23 36 -47 105 -14 44 -28 74 -30 68
-3 -7 1 -29 7 -48 6 -19 9 -44 5 -55 -3 -11 -2 -28 4 -37 8 -14 11 -15 11 -3
1 8 12 -5 25 -30 19 -36 24 -59 23 -115 -1 -43 -3 -55 -5 -30 -6 58 -23 69
-22 14 1 -50 16 -154 18 -125 3 46 13 0 20 -95 6 -80 5 -106 -5 -116 -16 -16
-18 -5 -34 202 -14 175 -18 200 -55 320 -25 77 -29 108 -29 215 -1 112 6 171
19 158 2 -2 11 -58 19 -123z m-1210 73 c-4 -13 -24 -43 -45 -67 -22 -24 -39
-48 -39 -54 0 -11 -70 -77 -82 -77 -5 0 -8 9 -8 19 0 10 -7 22 -17 25 -14 6
-14 9 5 26 12 11 32 20 45 20 16 0 41 20 81 65 31 36 60 65 62 65 3 0 2 -10
-2 -22z m50 -32 c2 -47 -8 -58 -32 -34 -17 17 -15 48 5 70 21 23 23 20 27 -36z
m-2578 -74 c-19 -118 -20 -144 -6 -122 5 8 10 11 10 6 0 -5 -7 -17 -16 -27
-11 -12 -18 -50 -23 -127 -5 -60 -12 -115 -16 -122 -4 -6 -11 -48 -16 -93 -6
-45 -12 -103 -15 -129 -5 -40 -3 -48 10 -48 9 0 16 8 16 18 0 9 5 24 11 32 7
11 9 -2 7 -47 -3 -47 -1 -63 9 -63 8 0 13 -12 13 -29 0 -42 -16 -47 -26 -8
l-8 32 -3 -38 c-3 -22 0 -52 6 -68 5 -16 6 -29 2 -29 -15 0 -31 86 -25 137 5
40 3 51 -10 56 -12 5 -16 0 -16 -18 0 -14 -5 -25 -11 -25 -7 0 -9 9 -5 23 3
13 10 65 16 117 6 52 15 122 20 155 17 115 20 166 8 159 -8 -5 -9 -1 -4 12 17
40 26 91 26 151 0 34 4 64 9 67 4 3 11 24 15 45 7 43 26 94 33 87 3 -2 -2 -49
-11 -104z m3974 -32 c0 -5 -5 -10 -11 -10 -5 0 -7 5 -4 10 3 6 8 10 11 10 2 0
4 -4 4 -10z m-1760 -21 c17 -30 6 -34 -14 -4 -9 14 -12 25 -7 25 6 0 15 -9 21
-21z m-2097 -131 c5 -37 -16 -214 -31 -258 -2 -8 -4 -32 -2 -54 1 -24 -2 -36
-8 -32 -6 4 -12 -6 -15 -21 l-4 -28 -1 30 c-1 17 7 94 17 173 11 79 18 153 16
165 -5 25 4 67 15 67 4 0 10 -19 13 -42z m3867 -158 c21 -331 27 -485 20 -505
-10 -28 -17 57 -30 365 -6 140 -13 267 -16 282 -5 24 3 55 11 46 1 -2 8 -86
15 -188z m-3830 40 c-10 -74 -21 -171 -25 -215 -8 -95 -13 -117 -26 -110 -13
9 -10 117 6 205 41 225 51 268 60 258 1 -2 -5 -64 -15 -138z m3745 64 c-3 -24
-11 -44 -16 -44 -6 0 -7 5 -4 10 4 6 2 17 -4 24 -7 9 -7 24 0 51 9 33 12 36
21 21 6 -10 7 -37 3 -62z m-1545 40 c0 -8 -7 -14 -15 -14 -15 0 -21 21 -9 33
10 9 24 -2 24 -19z m1840 -51 c0 -32 -5 -28 -14 10 -4 19 -3 26 4 22 5 -3 10
-18 10 -32z m-3834 -162 c-22 -149 -35 -195 -51 -179 -9 8 17 218 26 213 4 -3
10 10 13 28 36 182 43 145 12 -62z m-52 57 c-7 -100 -38 -241 -54 -246 -6 -2
-10 -16 -10 -30 -1 -15 -7 -38 -15 -52 l-14 -25 0 35 c0 55 17 290 24 336 6
34 11 41 25 37 12 -3 22 3 29 16 7 12 14 21 17 21 3 0 2 -42 -2 -92z m3753
-50 c-3 -7 -5 -2 -5 12 0 14 2 19 5 13 2 -7 2 -19 0 -25z m-3881 -34 c-3 -26
-6 -65 -7 -88 -1 -35 -2 -38 -9 -16 -10 31 -12 134 -3 143 18 18 25 3 19 -39z
m-183 -234 c3 -11 1 -20 -4 -20 -5 0 -9 9 -9 20 0 11 2 20 4 20 2 0 6 -9 9
-20z m64 -12 c-3 -7 -5 -2 -5 12 0 14 2 19 5 13 2 -7 2 -19 0 -25z m-151 -131
c8 3 14 0 14 -6 0 -6 -4 -11 -10 -11 -6 0 -10 -28 -10 -65 0 -85 -16 -84 -23
2 -5 62 1 113 10 86 3 -7 11 -9 19 -6z m3919 -7 c7 -11 -4 -60 -14 -60 -4 0
-7 16 -8 35 -1 34 9 46 22 25z m-3435 -20 c0 -5 -2 -10 -4 -10 -3 0 -8 5 -11
10 -3 6 -1 10 4 10 6 0 11 -4 11 -10z m231 -93 c-14 -14 -23 -4 -27 33 -3 21
1 30 11 30 8 0 16 8 17 18 1 9 3 -3 5 -27 3 -24 0 -48 -6 -54z m169 68 c-7 -9
-15 -13 -17 -11 -7 7 7 26 19 26 6 0 6 -6 -2 -15z m2222 -71 c-4 -21 -2 -25 9
-19 8 5 5 -1 -5 -13 -24 -28 -56 -29 -56 -2 0 14 7 20 21 20 19 0 19 1 4 17
-14 14 -18 14 -26 2 -7 -11 -9 -11 -9 4 0 13 8 17 34 17 31 0 33 -2 28 -26z
m823 -9 c-2 -16 -4 -33 -4 -37 -1 -5 -8 -8 -16 -8 -11 0 -15 11 -15 39 0 33 3
40 20 38 16 -1 19 -7 15 -32z m-3955 -61 c0 -14 4 -22 10 -19 15 9 11 -17 -5
-39 -15 -20 -15 -20 -15 0 0 10 -3 37 -7 58 -4 28 -3 37 5 32 7 -4 12 -18 12
-32z m3330 18 c0 -10 -57 -31 -65 -24 -5 5 25 20 63 31 1 1 2 -3 2 -7z m-3323
-154 c-2 -13 -4 -5 -4 17 -1 22 1 32 4 23 2 -10 2 -28 0 -40z m341 -16 c2 -7
-3 -12 -12 -12 -9 0 -16 7 -16 16 0 17 22 14 28 -4z m-139 -241 c1 -10 -4 -9
-14 5 -8 10 -14 33 -14 49 l1 30 13 -35 c7 -19 14 -41 14 -49z m20 9 c0 -10
-3 -8 -9 5 -12 27 -12 43 0 25 5 -8 9 -22 9 -30z m3288 -42 c-3 -8 -6 -5 -6 6
-1 11 2 17 5 13 3 -3 4 -12 1 -19z m-2852 -49 c0 -8 10 -14 23 -14 13 0 37
-13 53 -29 26 -27 29 -35 29 -98 0 -60 -2 -68 -19 -68 -34 0 -145 120 -127
137 3 3 12 0 20 -6 10 -8 16 -9 21 -1 7 12 -34 30 -53 23 -8 -4 -11 4 -8 28 2
21 10 35 22 40 25 10 39 6 39 -12z m432 -84 c82 -40 85 -41 123 -18 32 18 50
13 101 -28 25 -20 28 -20 64 -5 26 11 42 13 49 6 5 -5 16 -10 24 -10 7 0 36
-19 63 -42 41 -34 53 -40 67 -31 12 7 16 20 14 42 -5 43 13 40 63 -14 43 -47
75 -53 75 -14 0 11 8 23 18 26 9 4 23 13 31 20 24 24 46 11 43 -25 -4 -39 5
-40 40 -3 30 32 72 42 135 32 33 -5 55 -18 98 -59 30 -29 55 -58 55 -64 0 -6
-11 -1 -24 11 -27 25 -79 21 -69 -6 4 -9 14 -13 29 -9 16 4 31 -1 51 -18 26
-23 27 -25 9 -32 -12 -5 -21 -3 -24 4 -5 15 -52 16 -52 1 0 -7 -10 -9 -27 -4
-16 4 -40 7 -55 8 -16 1 -27 5 -25 8 4 11 -33 40 -43 34 -17 -10 -219 -14
-226 -4 -9 15 -34 10 -34 -6 0 -19 -18 -19 -63 0 -36 15 -90 17 -81 3 3 -4 -7
-10 -21 -14 -14 -3 -25 -11 -25 -18 0 -6 -4 -5 -9 3 -8 12 -14 13 -36 3 -22
-10 -25 -15 -15 -27 14 -16 10 -18 -14 -9 -9 3 -13 11 -9 18 4 6 -1 5 -10 -3
-10 -8 -20 -11 -24 -7 -3 3 0 6 7 6 7 0 -14 14 -48 31 -58 29 -62 29 -86 14
-26 -17 -59 -15 -150 11 -61 17 -66 17 -42 -1 26 -19 3 -19 -34 0 -21 11 -31
12 -36 3 -4 -7 -3 -8 4 -4 7 4 12 3 12 -3 0 -15 -14 -21 -38 -14 -13 3 -22 13
-22 24 0 12 -7 17 -21 16 -19 -1 -19 -2 -3 -14 19 -14 15 -17 -10 -7 -9 3 -16
13 -16 21 0 10 -6 12 -19 8 -24 -7 -34 18 -36 97 -2 72 7 89 33 65 10 -9 23
-17 28 -17 5 0 3 4 -5 9 -10 6 -5 11 20 16 28 6 35 4 49 -16 46 -71 76 -72 65
-3 -3 24 -2 44 2 44 5 0 41 -16 80 -35z m503 -26 c0 -5 -4 -9 -10 -9 -5 0 -10
7 -10 16 0 8 5 12 10 9 6 -3 10 -10 10 -16z m1497 2 c42 -16 52 -17 73 -6 22
12 27 11 43 -6 10 -10 26 -19 36 -19 10 0 24 -6 30 -14 28 -34 74 -24 100 21
8 15 13 15 50 3 31 -10 47 -11 66 -2 21 10 26 9 36 -11 6 -12 23 -34 36 -49
14 -14 22 -31 19 -37 -4 -6 -2 -11 4 -11 21 0 22 31 1 53 -23 26 -47 85 -37
94 10 10 74 -59 76 -82 4 -25 -27 -95 -40 -95 -6 0 -10 -6 -10 -14 0 -16 -87
-95 -126 -117 -48 -25 -37 4 24 63 34 33 62 64 62 68 0 19 -39 19 -95 -1 -33
-11 -66 -25 -72 -31 -9 -7 -13 -7 -13 2 0 7 -11 3 -26 -9 -27 -21 -64 -28 -64
-13 0 5 15 14 34 22 19 7 34 20 34 29 0 9 3 25 7 37 6 18 3 20 -23 16 -21 -3
-42 4 -71 23 -22 15 -41 31 -41 35 0 12 -36 18 -51 9 -10 -6 -9 -10 6 -15 24
-9 65 -44 65 -57 0 -5 -14 3 -31 17 -37 31 -41 32 -64 6 -16 -18 -16 -20 -1
-26 11 -4 16 -18 16 -46 0 -24 -4 -37 -10 -33 -6 4 -26 1 -46 -5 -26 -9 -39
-9 -47 -1 -8 8 -5 11 11 11 12 0 26 9 32 20 9 16 6 22 -16 37 -25 16 -27 16
-40 -2 -8 -11 -12 -26 -9 -33 3 -8 0 -21 -6 -28 -6 -8 -9 -21 -5 -29 4 -10 -1
-15 -16 -15 -12 0 -32 -10 -45 -22 -31 -29 -53 -12 -35 27 7 14 12 28 12 30 0
12 -47 3 -85 -15 -22 -11 -64 -24 -94 -30 -52 -10 -67 -7 -248 37 -16 4 -23 1
-23 -10 0 -26 -26 -39 -64 -32 l-35 7 25 40 c14 22 24 44 22 49 -2 5 -28 -4
-58 -21 -72 -38 -113 -39 -148 -2 -76 80 -142 162 -142 176 0 22 45 20 96 -3
35 -16 94 -23 177 -22 10 0 21 -8 24 -17 7 -20 38 -52 51 -52 4 0 18 14 30 30
20 26 29 30 71 30 41 0 51 4 65 25 13 20 22 24 39 19 31 -9 34 -14 17 -24 -8
-6 -12 -10 -7 -11 4 -1 10 -2 15 -3 4 -1 12 -5 19 -9 7 -4 29 -8 50 -8 21 -1
54 -10 73 -21 29 -17 46 -19 103 -14 38 3 77 11 88 16 14 8 25 6 43 -6 23 -14
46 -13 46 4 0 4 -11 20 -24 35 -14 16 -22 35 -19 43 6 17 3 18 60 -5z m-2499
-33 c17 -24 60 -73 96 -110 74 -76 77 -92 4 -24 -26 24 -49 42 -52 40 -3 -2
-4 -1 -1 3 7 9 -16 34 -26 28 -8 -6 -59 74 -59 93 0 20 8 14 38 -30z m1102 6
c0 -31 -2 -35 -15 -24 -8 7 -15 23 -15 36 0 15 6 24 15 24 11 0 15 -11 15 -36z
m1200 -28 c0 -8 -61 -12 -66 -4 -3 4 11 8 30 8 20 0 36 -2 36 -4z m1214 -75
c3 -5 -3 -11 -14 -14 -20 -5 -26 3 -13 16 9 10 21 9 27 -2z m-388 -65 c-23
-36 -48 -47 -64 -30 -11 12 -8 15 18 20 17 4 35 15 41 26 6 11 13 17 16 14 3
-3 -2 -17 -11 -30z m-2504 -10 c31 0 55 -3 53 -6 -8 -13 -101 -10 -146 5 l-44
14 40 -7 c22 -4 66 -7 97 -6z m748 -36 c-11 -20 -30 -28 -30 -12 0 11 22 32
32 32 5 0 4 -9 -2 -20z m-1285 -139 c-20 -8 -175 -5 -183 4 -3 3 42 5 99 4 62
0 96 -4 84 -8z m62 -2 c-14 -8 -22 -8 -30 0 -8 8 -3 11 19 11 25 -1 27 -2 11
-11z m103 1 c11 -7 6 -10 -22 -10 -20 0 -40 5 -43 10 -8 13 45 13 65 0z m1120
-5 c327 -3 699 -8 825 -11 127 -4 235 -6 240 -5 40 4 54 4 88 3 20 -1 37 -7
37 -14 0 -12 -1122 -5 -1855 12 -466 11 -451 10 -405 20 19 4 134 6 255 4 121
-2 488 -6 815 -9z m1438 -21 c7 -2 10 -8 7 -14 -6 -10 -123 -5 -155 7 -45 17
97 23 148 7z"/>
<path d="M4653 5943 c37 -2 96 -2 130 0 34 2 4 3 -68 3 -71 0 -99 -1 -62 -3z"/>
<path d="M4378 4723 c6 -2 18 -2 25 0 6 3 1 5 -13 5 -14 0 -19 -2 -12 -5z"/>
<path d="M4205 4710 c3 -5 10 -10 15 -10 5 0 20 -4 35 -10 26 -10 26 -10 8
-35 -15 -20 -26 -24 -70 -25 -47 0 -53 2 -53 21 0 18 4 20 26 15 19 -5 25 -3
22 6 -7 21 -212 28 -232 8 -8 -8 -4 -10 17 -6 15 3 38 8 51 11 28 6 76 -10 76
-25 0 -5 -18 -10 -41 -10 -52 0 -130 -20 -123 -31 3 -5 -4 -9 -15 -9 -11 0
-23 -6 -28 -12 -13 -22 -13 -80 2 -94 19 -19 28 -18 43 6 13 22 66 28 77 10 5
-8 11 -7 21 1 7 6 21 9 29 5 21 -8 19 10 -2 19 -14 6 -8 10 22 16 23 4 44 3
50 -3 7 -6 4 -7 -6 -3 -10 4 -19 0 -23 -10 -3 -10 1 -18 12 -22 9 -4 21 -13
25 -20 5 -7 12 -11 16 -9 4 3 8 -15 8 -40 1 -54 10 -66 29 -40 8 11 14 14 14
8 0 -13 69 -82 82 -82 8 0 12 16 9 33 0 4 10 8 24 9 14 0 31 1 38 2 9 1 12
-30 13 -122 0 -74 5 -127 12 -134 18 -18 24 48 13 146 -10 82 -9 92 9 121 11
18 21 40 23 51 4 27 30 64 44 64 21 0 82 33 77 42 -3 4 4 8 15 8 35 0 23 20
-11 21 -31 1 -31 1 -8 8 19 6 9 9 -44 15 -38 4 -87 14 -109 22 -64 23 -84 18
-131 -31 -25 -25 -52 -45 -61 -45 -24 0 -72 27 -79 45 -9 24 -9 24 27 16 46
-10 96 3 124 33 28 30 56 32 153 11 65 -14 138 -20 128 -10 -3 3 -34 10 -69
16 -67 10 -152 33 -181 50 -24 12 -111 12 -103 -1z m-98 -126 c-3 -3 -12 -4
-19 -1 -8 3 -5 6 6 6 11 1 17 -2 13 -5z m143 -39 c-7 -8 -22 -15 -34 -15 -20
0 -19 1 4 14 34 19 45 19 30 1z m-69 -13 c-7 -2 -18 1 -23 6 -8 8 -4 9 13 5
13 -4 18 -8 10 -11z m126 -19 c3 -10 12 -25 19 -33 7 -9 11 -25 8 -37 -5 -17
-10 -20 -32 -13 -17 4 -26 13 -26 23 1 10 -2 17 -7 17 -10 0 -12 43 -2 53 12
13 34 7 40 -10z m99 -50 c11 -11 13 -18 5 -21 -6 -2 -8 -8 -5 -14 4 -6 -3 -8
-16 -6 -31 4 -50 35 -30 48 21 13 26 12 46 -7z"/>
<path d="M4458 4693 c7 -3 16 -2 19 1 4 3 -2 6 -13 5 -11 0 -14 -3 -6 -6z"/>
<path d="M3879 4641 c-16 -16 -29 -38 -29 -48 1 -14 6 -12 25 12 14 17 25 33
25 36 0 3 10 11 23 17 18 9 19 11 4 11 -10 1 -32 -12 -48 -28z"/>
<path d="M3748 4649 c17 -19 15 -29 -8 -29 -27 0 -101 -30 -95 -40 2 -4 -8
-13 -23 -20 l-27 -13 28 -8 c16 -4 35 -13 43 -20 11 -9 14 -8 14 8 0 28 9 34
31 20 10 -6 22 -8 26 -4 4 5 1 12 -7 17 -18 11 -13 16 30 27 52 14 52 52 0 68
-20 6 -23 5 -12 -6z"/>
<path d="M3746 4535 c-23 -24 -36 -72 -36 -123 0 -13 -9 -31 -19 -40 -10 -10
-27 -30 -36 -47 -14 -23 -8 -20 24 15 22 24 41 54 41 66 0 17 8 24 31 29 22 5
28 10 18 15 -9 6 -10 12 -2 22 6 7 14 30 18 51 9 45 -5 49 -39 12z"/>
<path d="M4606 4551 c-18 -7 -18 -8 5 -14 34 -10 69 -9 69 2 0 5 -10 11 -22
15 -27 7 -27 7 -52 -3z"/>
<path d="M3472 4512 c-36 -42 -44 -79 -13 -63 16 9 57 89 49 97 -2 1 -18 -14
-36 -34z"/>
<path d="M4560 4520 c0 -5 7 -10 15 -10 8 0 15 5 15 10 0 6 -7 10 -15 10 -8 0
-15 -4 -15 -10z"/>
<path d="M3846 4489 c-19 -33 -16 -45 9 -36 9 4 15 19 15 37 0 16 -1 30 -3 30
-1 0 -11 -14 -21 -31z"/>
<path d="M3177 4486 c-6 -15 1 -26 15 -26 4 0 8 9 8 20 0 23 -15 27 -23 6z"/>
<path d="M3330 4485 c-18 -21 4 -45 42 -45 l30 0 -24 29 c-27 35 -31 36 -48
16z"/>
<path d="M3115 4469 c-4 -6 -5 -12 -2 -15 2 -3 7 2 10 11 7 17 1 20 -8 4z"/>
<path d="M3277 4456 c-18 -27 -42 -114 -34 -122 3 -3 11 11 18 30 7 20 17 36
21 36 4 0 8 9 8 21 0 11 5 29 10 40 15 28 -5 24 -23 -5z"/>
<path d="M3187 4423 c-4 -3 -4 -23 -1 -43 4 -23 2 -40 -5 -44 -6 -4 -11 -11
-11 -17 0 -5 7 -4 18 2 12 7 18 26 20 60 2 45 -5 59 -21 42z"/>
<path d="M4470 4420 c0 -5 4 -10 9 -10 6 0 13 5 16 10 3 6 -1 10 -9 10 -9 0
-16 -4 -16 -10z"/>
<path d="M3033 4398 c-23 -26 -48 -86 -40 -94 3 -3 15 17 27 45 13 28 26 48
31 45 5 -3 9 2 9 10 0 21 -3 20 -27 -6z"/>
<path d="M4141 4329 c-17 -48 -13 -76 11 -99 32 -30 52 -25 21 6 -23 23 -25
31 -20 75 7 57 3 62 -12 18z"/>
<path d="M2938 4317 c-4 -19 -1 -27 8 -27 15 0 16 6 5 35 -7 17 -8 17 -13 -8z"/>
<path d="M4260 4324 c0 -3 4 -13 9 -22 12 -23 19 -142 9 -142 -5 0 -13 10 -18
23 -7 18 -9 19 -9 3 -1 -13 -6 -17 -20 -13 -15 4 -20 -2 -26 -30 -4 -21 -2
-40 4 -46 13 -13 15 -30 3 -23 -5 3 -6 -15 -2 -39 4 -25 3 -45 -2 -45 -4 0 -8
-5 -8 -11 0 -5 5 -7 10 -4 6 3 10 2 10 -4 0 -5 -5 -13 -10 -16 -8 -5 -7 -12 1
-22 10 -11 10 -16 0 -22 -7 -5 22 -11 66 -15 49 -4 79 -2 81 4 2 5 16 10 32
10 22 0 29 5 33 27 7 36 -2 56 -22 47 -47 -19 -47 -19 -65 68 -10 46 -22 108
-27 138 -6 30 -13 72 -18 92 -5 25 -4 39 3 42 6 2 1 5 -11 5 -13 1 -23 -2 -23
-5z m-10 -399 c0 -8 -4 -15 -10 -15 -5 0 -10 7 -10 15 0 8 5 15 10 15 6 0 10
-7 10 -15z"/>
<path d="M4552 4308 c-16 -21 -58 -128 -73 -188 -8 -30 -23 -63 -34 -73 -20
-17 -20 -18 0 -15 16 2 19 -2 17 -22 -5 -51 15 5 28 75 15 81 43 168 66 203
17 25 14 41 -4 20z"/>
<path d="M3416 4297 c3 -10 9 -15 12 -12 3 3 0 11 -7 18 -10 9 -11 8 -5 -6z"/>
<path d="M4245 4260 c-4 -12 -5 -24 -2 -27 3 -2 8 5 12 17 4 12 5 24 2 27 -3
2 -8 -5 -12 -17z"/>
<path d="M4224 4209 c-3 -6 -1 -16 5 -22 8 -8 11 -5 11 11 0 24 -5 28 -16 11z"/>
<path d="M4011 3985 c0 -68 2 -75 20 -75 14 0 19 7 19 30 0 37 -22 120 -32
120 -4 0 -7 -34 -7 -75z"/>
<path d="M3070 3988 c-15 -71 -24 -144 -17 -138 7 7 38 182 33 188 -2 2 -9
-21 -16 -50z"/>
<path d="M3451 3964 c0 -11 3 -14 6 -6 3 7 2 16 -1 19 -3 4 -6 -2 -5 -13z"/>
<path d="M3492 3940 c0 -14 2 -19 5 -12 2 6 2 18 0 25 -3 6 -5 1 -5 -13z"/>
<path d="M3985 3875 c-22 -7 -65 -27 -95 -44 -30 -17 -67 -31 -81 -31 -14 0
-34 -7 -45 -15 -19 -14 -19 -14 1 -15 36 0 98 22 130 45 16 13 44 29 60 35 39
16 220 23 244 11 17 -9 19 -28 21 -208 5 -372 1 -336 33 -351 40 -19 57 -9 57
33 0 19 5 35 10 35 6 0 10 6 10 14 0 7 11 30 25 50 16 24 25 50 24 74 0 31 -2
34 -10 17 -7 -16 -8 -12 -4 14 3 18 5 45 6 60 0 23 1 24 9 6 7 -15 9 -10 10
25 2 38 3 41 10 20 5 -16 8 10 9 76 l1 101 -47 16 c-34 11 -41 16 -23 16 19 1
21 4 12 13 -18 18 -314 21 -367 3z m415 -170 c0 -14 -2 -25 -4 -25 -2 0 -6 11
-8 25 -3 14 -1 25 3 25 5 0 9 -11 9 -25z"/>
<path d="M4021 3848 c-1 -7 -4 -101 -7 -208 -4 -122 -10 -200 -18 -209 -9 -11
-8 -13 4 -9 17 5 25 67 37 296 6 100 5 142 -3 142 -6 0 -12 -6 -13 -12z"/>
<path d="M5550 3816 c0 -9 5 -16 10 -16 6 0 10 4 10 9 0 6 -4 13 -10 16 -5 3
-10 -1 -10 -9z"/>
<path d="M3622 3678 c-7 -68 -11 -208 -11 -313 l2 -190 8 125 c7 111 26 350
35 436 2 18 -3 39 -9 49 -11 14 -15 -4 -25 -107z"/>
<path d="M3436 3754 c-4 -14 -5 -29 -2 -31 3 -3 8 7 12 21 3 15 4 29 1 32 -2
3 -8 -7 -11 -22z"/>
<path d="M5067 3690 c-4 -54 -1 -81 14 -124 25 -73 24 -87 -10 -125 -24 -27
-28 -38 -21 -56 5 -13 14 -81 20 -152 7 -70 16 -132 20 -137 5 -5 6 -15 3 -22
-3 -8 0 -14 6 -14 6 0 11 7 11 15 0 8 6 15 14 15 8 0 27 5 43 12 15 6 32 10
37 9 4 -1 14 3 21 9 7 6 19 8 27 5 11 -4 17 3 21 24 8 39 -1 65 -17 52 -9 -8
-11 -1 -8 24 2 20 0 35 -6 35 -6 0 -12 -15 -14 -32 l-4 -33 -11 26 c-7 15 -22
35 -35 44 l-23 17 25 -7 c14 -4 28 -13 32 -19 4 -6 7 0 6 14 -1 14 -5 30 -9
35 -7 11 -24 102 -22 123 1 8 -5 11 -13 8 -9 -3 -14 2 -14 14 0 11 -4 20 -8
20 -4 0 -8 16 -9 36 -1 20 -6 41 -11 46 -6 6 -8 16 -6 23 3 6 1 30 -5 53 -7
33 -6 42 5 42 9 0 12 12 11 40 -1 23 -6 39 -12 37 -5 -2 -20 -1 -31 4 -20 7
-22 3 -27 -61z"/>
<path d="M3035 3710 c7 -42 -7 -54 -33 -28 -10 10 -15 10 -22 -2 -29 -44 -35
-140 -9 -124 6 3 8 12 5 19 -6 16 19 38 45 40 21 2 24 -16 9 -46 -7 -12 -7
-19 -1 -19 22 0 30 40 24 119 -3 45 -10 81 -15 81 -6 0 -7 -17 -3 -40z"/>
<path d="M5414 3723 c-3 -16 -8 -35 -10 -43 -4 -10 -2 -12 4 -5 11 12 26 75
18 75 -3 0 -8 -12 -12 -27z"/>
<path d="M3227 3653 c-24 -62 -85 -246 -91 -279 -4 -16 -2 -41 4 -55 10 -23
10 -22 7 9 -2 17 -1 32 3 32 3 0 14 33 25 73 10 39 33 114 51 165 18 50 29 92
25 92 -5 0 -16 -17 -24 -37z"/>
<path d="M3480 3671 c0 -5 5 -13 10 -16 6 -3 10 -2 10 4 0 5 -4 13 -10 16 -5
3 -10 2 -10 -4z"/>
<path d="M3671 3571 c-6 -39 -10 -103 -10 -143 2 -77 3 -75 20 95 6 60 9 110
6 113 -2 2 -9 -27 -16 -65z"/>
<path d="M3410 3572 c0 -18 28 -45 39 -38 9 6 8 13 -5 27 -18 20 -34 25 -34
11z"/>
<path d="M4399 3518 c-1 -18 0 -39 1 -47 1 -8 -4 -18 -12 -22 -10 -7 -9 -9 5
-9 14 0 17 9 17 55 0 59 -9 77 -11 23z"/>
<path d="M3090 3425 c0 -8 5 -15 10 -15 6 0 10 7 10 15 0 8 -4 15 -10 15 -5 0
-10 -7 -10 -15z"/>
<path d="M4375 3401 c-24 -5 -32 -13 -39 -43 -16 -63 24 -119 59 -85 20 20 19
24 -5 30 -25 6 -27 36 -2 35 37 -2 72 21 72 47 0 21 -4 25 -27 24 -16 -1 -41
-4 -58 -8z"/>
<path d="M3961 3309 c-15 -45 -14 -104 4 -119 15 -13 35 -6 35 12 0 6 -3 8 -7
5 -9 -9 -33 12 -33 29 0 9 8 13 23 10 12 -2 33 1 46 6 33 12 50 -5 33 -32 -17
-28 -16 -46 2 -31 17 14 26 78 15 108 -8 21 -17 26 -75 38 -29 6 -33 3 -43
-26z"/>
<path d="M4525 3332 c-36 -3 -54 -15 -55 -34 0 -4 7 -5 17 -1 13 5 15 2 11
-15 -4 -12 -2 -22 2 -22 5 0 16 -3 26 -7 12 -4 15 -3 10 5 -4 7 -2 12 3 12 6
0 11 -8 11 -17 0 -11 3 -13 9 -7 10 10 19 81 11 86 -3 2 -23 2 -45 0z"/>
<path d="M5470 3320 c0 -5 5 -10 10 -10 6 0 10 5 10 10 0 6 -4 10 -10 10 -5 0
-10 -4 -10 -10z"/>
<path d="M5715 3308 c-12 -55 -35 -278 -33 -333 1 -37 3 -47 5 -25 2 19 11 73
19 120 17 90 30 260 20 260 -3 0 -8 -10 -11 -22z"/>
<path d="M5357 3125 c3 -33 7 -62 9 -64 7 -8 2 74 -6 99 -5 16 -6 2 -3 -35z"/>
<path d="M3103 3070 c0 -25 2 -35 4 -22 2 12 2 32 0 45 -2 12 -4 2 -4 -23z"/>
<path d="M3412 2970 c0 -14 2 -19 5 -12 2 6 2 18 0 25 -3 6 -5 1 -5 -13z"/>
<path d="M4685 2900 c-3 -5 1 -10 10 -10 9 0 13 5 10 10 -3 6 -8 10 -10 10 -2
0 -7 -4 -10 -10z"/>
<path d="M3478 2893 c7 -3 16 -2 19 1 4 3 -2 6 -13 5 -11 0 -14 -3 -6 -6z"/>
<path d="M6795 4841 c-3 -5 -1 -12 5 -16 5 -3 10 1 10 9 0 18 -6 21 -15 7z"/>
<path d="M5607 4716 c-7 -17 18 -42 27 -27 7 11 -3 41 -14 41 -4 0 -10 -6 -13
-14z"/>
<path d="M5430 4690 c0 -5 5 -10 11 -10 5 0 7 5 4 10 -3 6 -8 10 -11 10 -2 0
-4 -4 -4 -10z"/>
<path d="M5660 4689 c0 -5 5 -7 10 -4 6 3 10 8 10 11 0 2 -4 4 -10 4 -5 0 -10
-5 -10 -11z"/>
<path d="M5941 4324 c0 -11 3 -14 6 -6 3 7 2 16 -1 19 -3 4 -6 -2 -5 -13z"/>
<path d="M3558 2113 c7 -3 16 -2 19 1 4 3 -2 6 -13 5 -11 0 -14 -3 -6 -6z"/>
<path d="M4066 2052 c-2 -4 -7 -21 -10 -39 -6 -25 -3 -34 12 -42 28 -15 46 9
37 48 -6 28 -30 48 -39 33z"/>
<path d="M3360 2011 c0 -15 59 -31 109 -30 l46 0 -40 19 c-42 19 -115 26 -115
11z"/>
<path d="M3613 1981 c-10 -16 -8 -20 13 -30 30 -13 64 -14 84 -1 18 11 15 14
-34 34 -48 20 -49 20 -63 -3z"/>
<path d="M4480 2055 c0 -4 7 -19 15 -35 22 -42 63 -70 103 -70 37 0 122 35
122 51 0 5 -30 9 -67 9 -54 0 -77 5 -112 25 -42 25 -61 30 -61 20z"/>
<path d="M5685 2025 c-24 -23 -34 -55 -17 -55 4 0 26 18 47 40 36 37 37 40 17
40 -13 0 -34 -11 -47 -25z"/>
</g>
</svg>
