<?xml version="1.0" standalone="no"?>
<!DOCTYPE svg PUBLIC "-//W3C//DTD SVG 20010904//EN"
 "http://www.w3.org/TR/2001/REC-SVG-20010904/DTD/svg10.dtd">
<svg version="1.0" xmlns="http://www.w3.org/2000/svg"
 width="369.000000pt" height="1000.000000pt" viewBox="0 0 369.000000 1000.000000"
 preserveAspectRatio="xMidYMid meet">

<g transform="translate(0.000000,1000.000000) scale(0.100000,-0.100000)"
fill="#000000" stroke="none">
<path d="M1611 9310 c-85 -13 -139 -31 -157 -51 -9 -10 -19 -41 -22 -69 -2
-27 -11 -55 -18 -61 -11 -9 -14 -44 -14 -149 0 -127 2 -138 21 -156 21 -19 21
-21 16 -459 -4 -380 -9 -486 -35 -780 -63 -704 -136 -1026 -399 -1765 -166
-467 -229 -727 -280 -1145 -17 -140 -18 -277 -18 -2025 0 -1989 -1 -1959 46
-2035 63 -106 217 -147 659 -176 392 -26 1251 11 1413 61 75 23 140 67 162
110 8 16 23 67 32 112 16 76 17 205 16 1543 -3 2169 -6 2284 -89 2725 -53 281
-99 442 -254 880 -282 797 -349 1147 -399 2085 -13 244 -8 852 7 867 19 19 16
287 -3 312 -8 11 -15 34 -15 52 0 67 -25 86 -143 110 -85 17 -446 27 -526 14z
m567 -46 c12 -4 22 -12 22 -19 0 -17 -90 -8 -110 11 -12 12 -9 14 25 14 22 0
50 -3 63 -6z m-624 -48 c-3 -7 -16 -13 -29 -13 -16 0 -22 4 -18 13 3 8 16 14
29 14 16 0 22 -4 18 -14z m626 -5 c0 -19 -20 -22 -42 -7 -22 16 -22 16 10 16
17 0 32 -4 32 -9z m53 -1900 c4 -48 9 -96 13 -105 3 -9 1 -16 -5 -16 -6 0 -11
15 -12 33 0 17 -4 65 -8 105 -4 39 -4 72 0 72 3 0 9 -40 12 -89z m14 -228 c-3
-10 -5 -4 -5 12 0 17 2 24 5 18 2 -7 2 -21 0 -30z m10 -60 c-3 -10 -5 -4 -5
12 0 17 2 24 5 18 2 -7 2 -21 0 -30z m10 -105 c-3 -8 -6 -5 -6 6 -1 11 2 17 5
13 3 -3 4 -12 1 -19z m32 -183 l0 -20 -8 20 c-5 11 -11 46 -15 78 -4 31 -12
57 -17 57 -5 0 -9 5 -9 11 0 5 5 7 10 4 6 -3 10 0 11 7 1 17 27 -131 28 -157z
m-21 -30 c-3 -3 -9 2 -12 12 -6 14 -5 15 5 6 7 -7 10 -15 7 -18z m50 -142 c24
-159 98 -500 129 -598 11 -33 33 -103 48 -155 15 -52 50 -156 78 -230 27 -74
60 -173 73 -220 48 -170 62 -226 73 -280 23 -116 40 -217 46 -265 3 -27 8 -61
11 -75 3 -18 2 -21 -5 -10 -5 8 -14 56 -20 105 -13 102 -19 127 -29 121 -4 -2
-5 16 -3 41 2 31 0 43 -8 39 -7 -4 -9 -1 -5 8 3 8 -4 24 -15 35 -13 13 -22 40
-27 80 -4 34 -11 61 -15 61 -5 0 -9 5 -9 11 0 5 -12 36 -27 67 -14 31 -26 66
-25 77 1 10 -3 24 -8 30 -4 5 -15 35 -23 65 -9 30 -23 75 -32 99 -9 24 -13 51
-10 59 10 26 -5 99 -21 99 -18 0 -18 -3 3 -38 16 -27 16 -30 0 -61 l-17 -33 6
33 c3 18 0 47 -6 63 -10 23 -10 35 0 60 9 22 10 33 2 41 -8 8 -9 5 -5 -11 3
-12 1 -21 -6 -21 -6 0 -12 12 -13 28 -2 43 -5 56 -13 75 -4 9 -5 26 -2 36 6
24 -28 128 -37 110 -3 -8 -3 6 0 30 4 31 3 41 -5 37 -7 -5 -11 3 -11 22 0 16
-3 32 -7 36 -5 4 -9 20 -10 34 -2 23 -9 75 -12 92 -1 3 -6 -2 -12 -10 -7 -11
-8 -4 -4 27 4 25 2 58 -6 80 -12 37 -13 37 -20 13 -6 -21 -7 -22 -8 -4 -1 11
4 25 9 30 7 7 7 20 1 40 -5 16 -13 68 -16 117 -5 68 -10 87 -22 87 -11 0 -14
6 -9 23 3 12 6 28 6 35 0 6 3 12 8 12 4 0 17 -66 30 -147z m9 -285 c-2 -13 -4
-3 -4 22 0 25 2 35 4 23 2 -13 2 -33 0 -45z m100 -960 c-3 -8 -6 -5 -6 6 -1
11 2 17 5 13 3 -3 4 -12 1 -19z m16 -48 c-3 -12 -8 -19 -11 -16 -5 6 5 36 12
36 2 0 2 -9 -1 -20z m26 -159 c1 -35 -5 -22 -12 24 -5 28 -4 34 3 20 5 -11 9
-31 9 -44z m29 -141 c0 -9 -3 -7 -8 5 -5 11 -8 29 -8 40 0 16 2 15 8 -5 4 -14
8 -32 8 -40z m289 -322 c-3 -8 -6 -5 -6 6 -1 11 2 17 5 13 3 -3 4 -12 1 -19z
m10 -130 c-3 -7 -5 -2 -5 12 0 14 2 19 5 13 2 -7 2 -19 0 -25z m-1602 -479
c235 -17 1105 -14 1395 5 135 9 278 16 318 16 l72 0 0 -1528 0 -1528 -157 -22
c-497 -69 -1152 -78 -1718 -21 -106 10 -305 36 -342 44 l-23 5 0 1527 0 1526
153 -7 c83 -4 220 -12 302 -17z"/>
<path d="M2587 5484 c-4 -4 -7 -14 -7 -23 0 -11 3 -12 11 -4 6 6 10 16 7 23
-2 6 -7 8 -11 4z"/>
<path d="M2682 5180 c0 -14 2 -19 5 -12 2 6 2 18 0 25 -3 6 -5 1 -5 -13z"/>
<path d="M1912 3545 c-2 -47 1 -75 8 -75 5 0 10 15 10 34 0 32 3 35 33 39 l32
4 -32 1 c-29 2 -33 5 -33 31 0 20 6 31 18 34 11 3 9 5 -8 6 -24 1 -25 -1 -28
-74z"/>
<path d="M1975 3610 c3 -5 11 -10 16 -10 6 0 7 5 4 10 -3 6 -11 10 -16 10 -6
0 -7 -4 -4 -10z"/>
<path d="M1708 3540 c3 -47 8 -70 16 -70 9 0 10 16 5 62 -4 35 -5 66 -3 70 3
5 -1 8 -8 8 -10 0 -12 -17 -10 -70z"/>
<path d="M1627 3580 c3 -11 7 -20 9 -20 2 0 4 9 4 20 0 11 -4 20 -9 20 -5 0
-7 -9 -4 -20z"/>
<path d="M2036 3578 c-22 -31 -20 -81 4 -103 11 -10 22 -16 25 -13 3 3 -1 11
-10 18 -20 17 -19 79 2 102 9 10 11 18 5 18 -6 0 -18 -10 -26 -22z"/>
<path d="M2135 3578 c19 -29 19 -67 -1 -96 -8 -12 -11 -22 -5 -22 16 0 41 42
41 68 0 30 -15 58 -35 66 -14 5 -14 4 0 -16z"/>
<path d="M1516 3565 c4 -8 11 -15 16 -15 5 0 36 -21 69 -46 40 -30 59 -40 59
-30 0 8 -10 21 -22 27 -13 7 -41 27 -64 46 -44 35 -67 43 -58 18z"/>
<path d="M2220 3557 c0 -13 -6 -45 -14 -70 -8 -26 -10 -47 -6 -47 5 0 17 -3
27 -6 14 -5 15 -4 3 4 -12 9 -12 19 2 76 13 55 13 66 2 66 -8 0 -14 -10 -14
-23z"/>
<path d="M1435 3553 c4 -10 12 -43 18 -74 7 -32 17 -54 23 -52 13 4 -25 143
-39 143 -5 0 -6 -8 -2 -17z"/>
<path d="M1756 3551 c-19 -7 -19 -8 2 -13 15 -4 22 -2 22 8 0 8 -1 14 -2 13
-2 0 -12 -4 -22 -8z"/>
<path d="M1367 3530 c3 -11 7 -20 9 -20 2 0 4 9 4 20 0 11 -4 20 -9 20 -5 0
-7 -9 -4 -20z"/>
<path d="M1642 3530 c0 -14 2 -19 5 -12 2 6 2 18 0 25 -3 6 -5 1 -5 -13z"/>
<path d="M2336 3490 c-9 -33 -22 -62 -27 -66 -8 -4 -7 -9 2 -15 18 -11 32 -11
25 -1 -6 10 20 100 34 117 8 9 6 14 -4 18 -10 4 -18 -11 -30 -53z"/>
<path d="M1310 3515 c0 -8 2 -15 4 -15 2 0 6 7 10 15 3 8 1 15 -4 15 -6 0 -10
-7 -10 -15z"/>
<path d="M1532 3510 c0 -14 2 -19 5 -12 2 6 2 18 0 25 -3 6 -5 1 -5 -13z"/>
<path d="M2455 3461 c0 -31 -4 -66 -8 -78 -5 -14 -4 -23 1 -23 22 0 37 146 17
154 -6 2 -10 -19 -10 -53z"/>
<path d="M1278 3477 c18 -18 32 -42 32 -52 0 -15 2 -17 9 -7 7 11 13 9 30 -9
18 -20 21 -21 21 -5 0 10 -11 27 -25 38 -14 11 -25 26 -25 34 0 8 -4 13 -9 10
-5 -3 -14 1 -21 9 -7 8 -20 15 -28 15 -11 0 -6 -10 16 -33z"/>
<path d="M1792 3484 c-7 -8 -8 -14 -3 -14 10 0 25 19 20 25 -2 1 -10 -3 -17
-11z"/>
<path d="M1200 3482 c0 -12 100 -102 114 -102 5 0 -14 25 -44 55 -52 53 -70
65 -70 47z"/>
<path d="M1540 3460 c0 -11 4 -20 9 -20 5 0 7 9 4 20 -3 11 -7 20 -9 20 -2 0
-4 -9 -4 -20z"/>
<path d="M2526 3464 c-5 -14 -4 -15 9 -4 17 14 19 20 6 20 -5 0 -12 -7 -15
-16z"/>
<path d="M2380 3389 c0 -5 5 -7 10 -4 6 3 10 8 10 11 0 2 -4 4 -10 4 -5 0 -10
-5 -10 -11z"/>
<path d="M1824 3350 c-12 -4 -31 -21 -43 -36 -64 -82 38 -201 127 -148 55 32
71 113 30 151 -45 41 -74 49 -114 33z m35 -37 c10 -17 10 -17 11 0 0 27 26 20
38 -10 14 -35 25 -93 19 -93 -3 0 -15 15 -27 33 -13 20 -20 25 -17 12 15 -63
16 -75 8 -75 -5 0 -13 9 -16 20 -3 11 -10 20 -15 20 -5 0 -11 8 -14 18 -3 9
-3 -1 -1 -22 4 -39 4 -39 -15 -18 -10 11 -26 36 -34 56 -14 33 -14 37 0 43 9
3 20 0 25 -8 7 -9 8 -5 3 14 -5 20 -2 27 9 27 9 0 21 -8 26 -17z"/>
<path d="M1110 2564 c0 -61 4 -93 10 -89 6 3 10 19 10 36 0 27 3 29 38 29 42
0 72 23 72 56 0 39 -37 64 -94 64 l-36 0 0 -96z m98 64 c21 -21 14 -58 -14
-68 -53 -20 -64 -14 -64 35 0 44 1 45 33 45 18 0 38 -5 45 -12z"/>
<path d="M1277 2653 c-11 -10 -8 -171 3 -178 6 -4 10 28 10 89 0 96 -1 102
-13 89z"/>
<path d="M1350 2565 c0 -111 17 -122 22 -16 l3 65 59 -73 c32 -39 61 -69 63
-67 8 7 6 176 -1 183 -3 4 -6 -26 -6 -65 0 -40 -3 -72 -8 -72 -4 0 -27 24 -51
54 -82 104 -81 104 -81 -9z"/>
<path d="M1583 2642 c-32 -25 -44 -64 -32 -105 27 -99 172 -84 180 18 3 40 -1
53 -27 79 -32 31 -87 35 -121 8z m112 -23 c25 -24 25 -81 0 -109 -12 -13 -30
-20 -56 -20 -49 0 -84 39 -75 84 14 71 80 94 131 45z"/>
<path d="M1745 2650 c-4 -6 8 -10 29 -10 l36 0 0 -79 c0 -44 5 -83 10 -86 6
-4 10 25 10 79 l0 86 35 0 c19 0 35 5 35 10 0 6 -31 10 -74 10 -41 0 -78 -4
-81 -10z"/>
<path d="M2012 2570 c2 -79 2 -84 5 -27 2 37 7 67 11 67 4 0 30 -27 57 -61 78
-94 75 -95 75 15 0 62 -4 95 -10 91 -5 -3 -10 -36 -10 -73 l-1 -67 -27 30
c-15 17 -44 51 -64 75 l-37 45 1 -95z"/>
<path d="M2239 2631 c-21 -22 -29 -39 -29 -66 0 -99 134 -130 176 -41 47 97
-71 183 -147 107z m119 -17 c28 -31 28 -64 1 -98 -34 -44 -102 -34 -124 17
-16 40 -2 82 34 102 32 17 59 11 89 -21z"/>
<path d="M2440 2565 c0 -57 4 -95 10 -95 6 0 10 38 10 95 0 57 -4 95 -10 95
-6 0 -10 -38 -10 -95z"/>
<path d="M2517 2653 c-9 -14 -5 -173 5 -179 4 -3 8 11 8 30 0 32 3 36 25 36
17 0 36 -12 57 -35 37 -43 49 -39 18 5 l-22 31 21 15 c25 18 28 66 6 84 -19
16 -110 26 -118 13z m101 -25 c17 -17 15 -55 -4 -62 -9 -3 -31 -6 -50 -6 -33
0 -34 1 -34 40 0 40 0 40 38 40 21 0 43 -5 50 -12z"/>
<path d="M1360 1583 c-8 -27 -16 -54 -18 -60 -2 -7 1 -13 6 -13 5 0 13 15 16
33 3 17 13 44 20 60 11 20 12 27 2 27 -6 0 -18 -21 -26 -47z"/>
<path d="M1847 1583 c-9 -26 -17 -55 -17 -63 1 -8 10 10 20 40 11 30 19 58 17
63 -1 5 -10 -13 -20 -40z"/>
<path d="M2067 1572 c-2 -9 -8 -25 -12 -34 -4 -11 -3 -18 4 -18 6 0 11 8 11
18 0 10 5 23 11 29 7 7 7 13 1 17 -5 3 -12 -2 -15 -12z"/>
<path d="M1533 1550 c-6 -17 -8 -32 -3 -35 4 -2 10 9 14 27 8 41 3 45 -11 8z"/>
<path d="M1610 1570 c0 -5 5 -10 11 -10 5 0 7 5 4 10 -3 6 -8 10 -11 10 -2 0
-4 -4 -4 -10z"/>
<path d="M1677 1552 c-7 -35 -3 -38 11 -7 6 13 7 27 3 30 -5 2 -11 -8 -14 -23z"/>
<path d="M1793 1550 c-6 -17 -8 -32 -3 -35 4 -2 10 9 14 27 8 41 3 45 -11 8z"/>
<path d="M1943 1552 c-1 -22 0 -24 9 -8 6 10 6 22 2 26 -5 5 -10 -3 -11 -18z"/>
<path d="M2210 1570 c0 -5 5 -10 10 -10 6 0 10 5 10 10 0 6 -4 10 -10 10 -5 0
-10 -4 -10 -10z"/>
<path d="M1577 1548 c-9 -31 -2 -33 11 -3 6 14 8 25 3 25 -5 0 -11 -10 -14
-22z"/>
<path d="M1635 1549 c-10 -30 0 -33 13 -4 6 14 7 25 2 25 -5 0 -12 -9 -15 -21z"/>
<path d="M1876 1555 c-9 -26 -7 -32 5 -12 6 10 9 21 6 23 -2 3 -7 -2 -11 -11z"/>
<path d="M1975 1549 c-10 -30 0 -33 13 -4 6 14 7 25 2 25 -5 0 -12 -9 -15 -21z"/>
<path d="M2017 1548 c-9 -31 -2 -33 11 -3 6 14 8 25 3 25 -5 0 -11 -10 -14
-22z"/>
<path d="M2152 1545 c0 -16 2 -22 5 -12 2 9 2 23 0 30 -3 6 -5 -1 -5 -18z"/>
<path d="M2182 1545 c0 -16 2 -22 5 -12 2 9 2 23 0 30 -3 6 -5 -1 -5 -18z"/>
<path d="M2246 1544 c-10 -37 -2 -39 11 -4 6 17 8 30 3 30 -4 0 -11 -12 -14
-26z"/>
<path d="M2290 1561 c0 -5 -3 -17 -7 -27 -4 -11 -3 -15 4 -11 14 9 24 47 12
47 -5 0 -9 -4 -9 -9z"/>
<path d="M2326 1544 c-10 -37 -2 -39 11 -4 6 17 8 30 3 30 -4 0 -11 -12 -14
-26z"/>
<path d="M1490 1541 c-6 -11 -6 -22 -1 -25 5 -3 11 5 13 19 6 30 2 32 -12 6z"/>
<path d="M1750 1541 c-6 -11 -6 -22 -1 -25 5 -3 11 5 13 19 6 30 2 32 -12 6z"/>
<path d="M1903 1544 c-3 -8 -2 -19 3 -24 5 -5 10 1 10 16 2 27 -4 31 -13 8z"/>
<path d="M2363 1544 c-3 -8 -2 -19 3 -24 5 -5 10 1 10 16 2 27 -4 31 -13 8z"/>
<path d="M1430 1530 c0 -11 4 -20 9 -20 5 0 7 9 4 20 -3 11 -7 20 -9 20 -2 0
-4 -9 -4 -20z"/>
<path d="M1407 1533 c-4 -3 -7 -11 -7 -17 0 -6 5 -5 12 2 6 6 9 14 7 17 -3 3
-9 2 -12 -2z"/>
<path d="M1790 1420 c0 -5 5 -10 10 -10 6 0 10 5 10 10 0 6 -4 10 -10 10 -5 0
-10 -4 -10 -10z"/>
<path d="M1887 1388 c-23 -61 -24 -70 -8 -76 8 -2 11 0 7 6 -3 6 3 31 14 57
23 53 23 55 11 55 -4 0 -15 -19 -24 -42z"/>
<path d="M1934 1378 c-20 -60 -20 -61 -3 -67 6 -2 9 1 5 7 -4 6 0 24 7 39 22
43 30 73 18 73 -5 0 -17 -24 -27 -52z"/>
<path d="M1560 1409 c0 -5 5 -7 10 -4 6 3 10 8 10 11 0 2 -4 4 -10 4 -5 0 -10
-5 -10 -11z"/>
<path d="M1763 1390 c-3 -11 -10 -20 -15 -20 -5 0 -7 -4 -4 -8 10 -16 -14 -81
-32 -85 -16 -4 -16 -5 0 -6 11 -1 26 15 39 42 12 23 27 45 33 49 8 6 8 8 -1 8
-6 0 -9 9 -6 20 3 11 2 20 -2 20 -4 0 -9 -9 -12 -20z"/>
<path d="M1500 1355 c0 -8 5 -15 10 -15 6 0 10 7 10 15 0 8 -4 15 -10 15 -5 0
-10 -7 -10 -15z"/>
<path d="M1534 1345 c-6 -23 0 -45 10 -34 10 12 15 59 6 59 -5 0 -12 -11 -16
-25z"/>
<path d="M1586 1348 c-3 -13 -6 -27 -6 -33 1 -15 30 27 30 42 0 22 -17 15 -24
-9z"/>
<path d="M1630 1356 c0 -8 -3 -21 -6 -30 -4 -10 -1 -16 7 -16 8 0 15 12 16 30
1 17 -2 30 -7 30 -6 0 -10 -6 -10 -14z"/>
<path d="M1680 1350 c-21 -21 -19 -40 4 -40 7 0 12 10 12 23 -1 16 4 21 17 19
9 -2 17 2 17 8 0 17 -29 11 -50 -10z"/>
<path d="M1797 1352 c-21 -23 -22 -42 -1 -42 27 0 54 20 54 40 0 26 -31 26
-53 2z m24 -25 c-16 -16 -26 0 -10 19 9 11 15 12 17 4 2 -6 -1 -17 -7 -23z"/>
<path d="M1978 1340 c2 -16 8 -30 13 -30 5 0 9 14 9 30 0 18 -5 30 -13 30 -9
0 -12 -10 -9 -30z"/>
<path d="M2021 1348 c-19 -51 -23 -73 -13 -63 18 17 43 85 32 85 -6 0 -14 -10
-19 -22z"/>
<path d="M2107 1352 c-23 -26 -21 -42 6 -42 16 0 18 3 8 9 -10 7 -11 13 -2 27
6 11 11 13 11 6 0 -15 20 -6 20 9 0 15 -26 10 -43 -9z"/>
<path d="M2167 1352 c-22 -24 -21 -42 1 -42 28 0 56 25 49 44 -8 21 -30 20
-50 -2z m24 -25 c-16 -16 -26 0 -10 19 9 11 15 12 17 4 2 -6 -1 -17 -7 -23z"/>
<path d="M2241 1352 c-13 -25 -14 -42 -2 -42 10 0 25 50 17 57 -2 3 -9 -4 -15
-15z"/>
<path d="M2277 1343 c-3 -16 -3 -30 -1 -33 7 -7 24 23 24 43 0 27 -17 20 -23
-10z"/>
<path d="M2326 1354 c-9 -22 -7 -44 2 -44 5 0 9 6 9 13 0 6 4 20 8 30 4 9 3
17 -3 17 -5 0 -13 -7 -16 -16z"/>
<path d="M1430 1341 c0 -11 5 -23 10 -26 6 -4 10 5 10 19 0 14 -4 26 -10 26
-5 0 -10 -9 -10 -19z"/>
<path d="M1466 1352 c-4 -7 -3 -19 2 -28 12 -21 22 -5 12 20 -4 13 -9 16 -14
8z"/>
<path d="M2056 1331 c-4 -7 -5 -15 -2 -18 9 -9 19 4 14 18 -4 11 -6 11 -12 0z"/>
<path d="M1960 1280 c0 -5 7 -10 16 -10 8 0 12 5 9 10 -3 6 -10 10 -16 10 -5
0 -9 -4 -9 -10z"/>
</g>
</svg>
