<?xml version="1.0" standalone="no"?>
<!DOCTYPE svg PUBLIC "-//W3C//DTD SVG 20010904//EN"
 "http://www.w3.org/TR/2001/REC-SVG-20010904/DTD/svg10.dtd">
<svg version="1.0" xmlns="http://www.w3.org/2000/svg"
 width="348.000000pt" height="1000.000000pt" viewBox="0 0 348.000000 1000.000000"
 preserveAspectRatio="xMidYMid meet">

<g transform="translate(0.000000,1000.000000) scale(0.100000,-0.100000)"
fill="#000000" stroke="none">
<path d="M1690 9614 c-158 -15 -221 -41 -240 -99 -10 -31 -10 -43 6 -76 15
-34 15 -43 4 -64 -11 -21 -11 -29 0 -49 11 -21 10 -30 -3 -59 -11 -23 -18 -76
-22 -168 -6 -126 -5 -137 14 -161 25 -31 25 -36 6 -58 -12 -14 -15 -86 -16
-486 -2 -449 -4 -533 -29 -884 -38 -538 -158 -1158 -356 -1836 -139 -476 -164
-575 -208 -834 -42 -245 -57 -404 -63 -676 l-6 -261 48 -6 c26 -4 50 -5 55 -2
4 2 10 136 13 297 10 509 40 696 212 1328 81 297 79 289 129 485 80 318 119
509 161 800 21 142 75 620 75 662 0 17 4 34 9 37 8 5 7 -19 -4 -154 -18 -219
-18 -205 -10 -245 4 -22 3 -25 -3 -10 -11 25 -27 -102 -17 -137 4 -15 3 -19
-3 -10 -6 9 -11 -15 -16 -70 -3 -46 -13 -108 -21 -138 -17 -64 -19 -81 -5 -60
5 8 10 10 10 4 0 -6 -3 -14 -8 -18 -4 -4 -8 -17 -9 -29 -23 -195 -29 -238 -33
-234 -3 3 -5 -4 -6 -16 -5 -93 -14 -170 -22 -180 -5 -7 -12 -31 -16 -54 -3
-23 -9 -48 -12 -57 -4 -11 -1 -16 10 -16 16 0 16 -15 3 -52 -16 -43 -16 -52 3
-95 11 -26 18 -48 15 -51 -3 -3 -5 -1 -5 5 0 5 -10 21 -21 34 l-22 24 7 -35
c3 -19 11 -36 16 -38 6 -2 10 -17 10 -33 0 -28 1 -28 18 -11 17 18 48 90 61
147 5 17 15 44 23 60 8 17 19 48 22 69 6 29 10 36 17 25 7 -11 9 -9 9 9 0 12
-4 22 -10 22 -5 0 -10 7 -10 15 0 8 6 15 14 15 8 0 17 11 20 25 4 14 10 25 15
25 14 0 29 51 36 123 4 37 10 67 15 67 4 0 8 6 7 13 0 6 1 37 3 67 2 49 3 52
11 25 6 -20 7 -9 3 35 -4 50 -3 62 6 54 9 -9 17 -7 32 8 17 17 19 28 13 81
-18 168 -5 633 18 648 6 5 7 41 3 95 -10 122 -25 373 -25 409 0 61 4 70 37 73
l32 3 -5 -103 c-2 -57 -7 -170 -11 -253 -3 -82 -8 -172 -10 -200 -2 -27 -6
-126 -8 -220 -5 -217 -25 -639 -31 -685 -3 -19 -12 -159 -21 -310 -8 -151 -18
-321 -21 -378 -3 -56 -10 -105 -14 -108 -5 -3 -9 -29 -9 -57 0 -29 -7 -117
-16 -195 -14 -115 -15 -145 -4 -152 9 -6 9 -12 -3 -31 -8 -13 -20 -70 -26
-127 -13 -120 -13 -148 0 -112 6 16 7 -8 5 -73 -2 -54 -1 -96 1 -93 11 10 20
139 13 171 -9 40 5 178 22 211 5 12 8 30 6 40 -2 11 2 24 10 29 8 7 15 38 17
85 2 41 12 107 21 145 9 39 19 99 21 135 2 36 7 72 10 80 3 8 5 42 5 75 0 33
4 65 10 72 5 7 9 22 7 35 -1 13 1 30 4 38 3 8 8 37 10 65 3 27 10 51 16 53 6
2 11 28 11 61 0 32 3 61 7 65 5 4 9 41 10 81 1 41 7 84 13 95 6 12 13 67 16
123 3 55 9 119 14 140 4 22 6 45 4 52 -3 7 -1 39 5 71 5 33 13 160 16 284 4
124 9 228 11 231 3 5 5 359 3 597 0 23 -4 42 -10 42 -6 0 -7 5 -4 10 7 12 264
14 281 2 8 -5 11 -43 8 -117 -3 -107 6 -299 27 -555 5 -69 12 -159 14 -200 3
-41 7 -86 10 -100 2 -14 9 -81 15 -150 6 -69 15 -143 20 -165 5 -22 16 -98 24
-170 17 -143 22 -170 31 -185 4 -6 8 -25 10 -43 19 -165 80 -492 99 -527 7
-14 19 -64 26 -112 7 -49 16 -88 20 -88 4 0 13 -18 20 -40 7 -22 17 -40 22
-40 4 0 8 -9 8 -19 0 -11 5 -23 10 -26 6 -3 10 -19 10 -34 0 -15 3 -31 7 -35
7 -6 31 -67 38 -96 2 -8 4 -15 5 -15 1 0 3 -9 5 -20 2 -11 9 -21 14 -23 6 -2
11 -19 11 -37 0 -19 7 -40 15 -49 8 -8 15 -22 15 -30 0 -9 5 -16 11 -16 5 0 8
-4 5 -9 -8 -13 4 -42 15 -35 5 3 9 -12 10 -33 0 -29 2 -34 8 -18 5 11 7 23 5
26 -2 3 3 6 11 6 13 0 13 -13 0 -79 -2 -10 1 -18 6 -18 11 0 11 1 11 65 0 28
-9 106 -20 175 -12 68 -19 126 -17 128 5 6 61 -258 69 -333 3 -27 10 -75 16
-105 28 -162 41 -322 47 -603 3 -169 9 -309 12 -311 3 -1 27 -1 54 2 l47 4 0
237 c0 510 -60 869 -250 1496 -135 446 -244 962 -294 1385 -66 557 -67 577
-67 1232 -1 502 -3 609 -14 625 -19 24 -18 43 2 65 14 16 16 38 14 146 -1 91
-6 133 -17 149 -8 14 -12 33 -8 47 3 13 1 34 -6 46 -7 14 -8 26 -2 33 5 7 13
43 17 80 6 63 5 70 -19 102 -17 22 -40 38 -64 44 -91 24 -315 36 -442 25z
m270 -14 l55 -7 -55 -3 -55 -3 47 -6 c82 -12 66 -24 -22 -17 -47 3 -116 6
-155 7 -53 1 -63 3 -40 9 25 6 20 8 -30 10 l-60 3 60 7 c84 9 190 9 255 0z
m-57 -187 c-13 -2 -33 -2 -45 0 -13 2 -3 4 22 4 25 0 35 -2 23 -4z m32 -23
c17 -4 -22 -6 -85 -3 -63 3 -117 7 -119 9 -8 7 174 2 204 -6z m-38 -77 c-20
-2 -52 -2 -70 0 -17 2 0 4 38 4 39 0 53 -2 32 -4z m118 -31 c9 -5 -10 -7 -47
-6 -35 1 -109 3 -165 3 -71 1 -103 5 -103 13 0 13 290 5 315 -10z m-290 -112
c3 -5 1 -10 -4 -10 -6 0 -11 5 -11 10 0 6 2 10 4 10 3 0 8 -4 11 -10z m45 0
c0 -5 -4 -10 -10 -10 -5 0 -10 5 -10 10 0 6 5 10 10 10 6 0 10 -4 10 -10z m42
-2 c-9 -9 -15 -9 -24 0 -9 9 -7 12 12 12 19 0 21 -3 12 -12z m216 -3 c3 -3
-40 -5 -96 -5 -69 0 -102 4 -102 11 0 8 28 10 96 6 53 -3 99 -9 102 -12z m-88
-84 c0 -7 -50 -10 -155 -10 -85 1 -155 4 -155 7 0 4 70 9 155 11 107 2 155 0
155 -8z m67 -7 c-3 -3 -12 -4 -19 -1 -8 3 -5 6 6 6 11 1 17 -2 13 -5z m-22
-163 c23 -4 -23 -6 -105 -3 -80 2 -149 5 -155 7 -21 7 222 4 260 -4z m-382
-988 c-7 -2 -19 -2 -25 0 -7 3 -2 5 12 5 14 0 19 -2 13 -5z m-82 -53 c6 0 7
-5 4 -10 -11 -19 -25 1 -24 33 2 30 2 31 6 5 2 -16 9 -28 14 -28z m-24 -102
c-3 -7 -5 -2 -5 12 0 14 2 19 5 13 2 -7 2 -19 0 -25z m3 -59 c0 -10 -4 -19
-10 -19 -5 0 -10 12 -10 26 0 14 4 23 10 19 6 -3 10 -15 10 -26z m8 -69 c-1
-22 -5 -40 -10 -40 -4 0 -8 18 -8 40 0 22 4 40 10 40 5 0 9 -18 8 -40z m79
-992 c-3 -7 -5 -2 -5 12 0 14 2 19 5 13 2 -7 2 -19 0 -25z m950 -1200 c-3 -8
-6 -5 -6 6 -1 11 2 17 5 13 3 -3 4 -12 1 -19z m20 -80 c-3 -8 -6 -5 -6 6 -1
11 2 17 5 13 3 -3 4 -12 1 -19z m50 -330 c-3 -8 -6 -5 -6 6 -1 11 2 17 5 13 3
-3 4 -12 1 -19z"/>
<path d="M1292 6020 c0 -14 2 -19 5 -12 2 6 2 18 0 25 -3 6 -5 1 -5 -13z"/>
<path d="M1490 4920 c0 -22 5 -40 10 -40 6 0 10 18 10 40 0 22 -4 40 -10 40
-5 0 -10 -18 -10 -40z"/>
<path d="M1478 4783 c-1 -27 -2 -64 -3 -83 -1 -19 -4 -132 -8 -250 -4 -155 -3
-183 3 -100 4 63 13 132 18 153 11 40 10 79 -2 115 -5 13 -3 22 3 22 15 0 14
77 0 82 -9 3 -9 9 -1 23 18 35 22 85 6 85 -10 0 -15 -14 -16 -47z"/>
<path d="M2665 4567 c-4 -10 -5 -21 -1 -24 10 -10 18 4 13 24 -4 17 -4 17 -12
0z"/>
<path d="M2660 4464 c0 -8 -4 -12 -10 -9 -5 3 -10 -3 -10 -15 0 -13 4 -18 11
-14 7 4 9 -2 7 -16 -2 -13 2 -25 8 -27 17 -6 26 25 14 47 -5 10 -7 26 -4 34 3
9 1 16 -5 16 -6 0 -11 -7 -11 -16z"/>
<path d="M1642 3498 c3 -76 4 -78 28 -78 21 1 22 2 8 10 -12 8 -17 24 -16 59
0 27 -5 58 -11 68 -9 14 -11 1 -9 -59z"/>
<path d="M1690 3566 c0 -2 7 -6 15 -10 8 -3 15 -1 15 4 0 6 -7 10 -15 10 -8 0
-15 -2 -15 -4z"/>
<path d="M1843 3500 c-1 -39 3 -70 8 -70 5 0 9 15 10 33 0 17 1 49 2 70 1 20
-2 37 -8 37 -6 0 -11 -31 -12 -70z"/>
<path d="M1900 3566 c0 -2 7 -6 15 -10 8 -3 15 -1 15 4 0 6 -7 10 -15 10 -8 0
-15 -2 -15 -4z"/>
<path d="M1561 3543 c1 -10 5 -31 9 -48 7 -25 8 -23 6 17 0 27 -4 48 -8 48 -5
0 -7 -8 -7 -17z"/>
<path d="M2058 3541 c24 -23 29 -69 12 -102 -13 -24 -2 -25 16 -1 19 25 17 76
-3 94 -30 25 -49 32 -25 9z"/>
<path d="M1967 3532 c-23 -25 -21 -78 3 -102 11 -11 25 -20 30 -20 6 0 1 9
-10 20 -22 22 -26 70 -10 101 13 24 8 24 -13 1z"/>
<path d="M1446 3528 c4 -7 11 -28 15 -48 l7 -35 1 33 1 34 54 -46 c58 -50 66
-54 66 -31 0 8 -6 15 -13 15 -7 0 -35 20 -64 45 -48 43 -83 60 -67 33z"/>
<path d="M2150 3488 c-5 -24 -14 -55 -19 -70 -7 -20 -6 -28 2 -28 7 0 19 32
28 70 9 39 12 70 8 70 -5 0 -13 -19 -19 -42z"/>
<path d="M1357 3513 c13 -9 44 -119 35 -127 -3 -3 2 -6 11 -6 10 0 17 1 17 3
-1 1 -9 31 -19 67 -13 48 -23 66 -37 68 -12 2 -15 0 -7 -5z"/>
<path d="M1297 3503 c-2 -5 0 -21 4 -38 7 -29 7 -29 8 8 1 35 -3 46 -12 30z"/>
<path d="M1905 3500 c-3 -5 -1 -10 4 -10 6 0 11 5 11 10 0 6 -2 10 -4 10 -3 0
-8 -4 -11 -10z"/>
<path d="M2266 3443 c-9 -32 -20 -64 -23 -70 -2 -7 0 -13 5 -13 6 0 20 29 31
65 24 72 24 75 13 75 -4 0 -16 -26 -26 -57z"/>
<path d="M1245 3480 c-3 -5 -1 -10 4 -10 6 0 11 5 11 10 0 6 -2 10 -4 10 -3 0
-8 -4 -11 -10z"/>
<path d="M1191 3462 c-6 -2 3 -15 19 -29 18 -15 30 -34 30 -49 0 -33 -10 -30
-55 16 -21 22 -44 40 -49 40 -6 0 14 -25 44 -55 30 -30 58 -55 62 -55 4 0 8
14 8 32 l0 31 25 -23 c14 -13 25 -19 25 -13 0 17 -96 109 -109 105z"/>
<path d="M2388 3420 c3 -35 -1 -58 -12 -75 -14 -21 -14 -25 -2 -25 8 0 18 12
23 28 11 34 9 115 -3 119 -5 2 -7 -20 -6 -47z"/>
<path d="M1720 3435 c-11 -13 -10 -14 4 -9 9 3 16 10 16 15 0 13 -6 11 -20 -6z"/>
<path d="M1470 3414 c0 -14 4 -23 9 -20 5 3 7 15 4 26 -7 28 -13 25 -13 -6z"/>
<path d="M2444 3408 l-19 -21 30 18 c41 26 40 25 23 25 -8 0 -23 -10 -34 -22z"/>
<path d="M2198 3383 c7 -3 16 -2 19 1 4 3 -2 6 -13 5 -11 0 -14 -3 -6 -6z"/>
<path d="M2308 3343 c7 -3 16 -2 19 1 4 3 -2 6 -13 5 -11 0 -14 -3 -6 -6z"/>
<path d="M1738 3293 c-84 -52 -47 -182 52 -183 45 0 78 23 96 66 36 86 -66
167 -148 117z m57 -35 c12 -28 13 -29 9 -7 -3 15 -1 30 5 33 15 10 38 -33 46
-84 l6 -45 -21 25 -21 25 6 -40 5 -40 -22 30 -23 29 -5 -29 -6 -30 -27 46
c-33 56 -36 84 -6 76 15 -4 19 -2 15 10 -3 8 -4 19 0 24 10 17 24 9 39 -23z"/>
<path d="M1760 3225 c0 -5 5 -17 10 -25 5 -8 10 -10 10 -5 0 6 -5 17 -10 25
-5 8 -10 11 -10 5z"/>
<path d="M1655 2722 c-70 -15 -52 -102 22 -102 33 0 55 -27 43 -51 -15 -28
-74 -26 -94 3 -9 12 -19 18 -23 14 -12 -11 45 -56 70 -56 37 0 69 28 65 58 -3
27 -30 46 -80 57 -21 4 -28 11 -28 29 0 41 50 49 88 14 22 -21 24 -21 21 -4
-4 22 -54 45 -84 38z"/>
<path d="M1190 2630 c0 -49 4 -90 9 -90 6 0 11 15 13 33 3 28 6 32 28 29 14
-1 37 -17 52 -35 14 -17 30 -29 34 -24 4 4 -3 18 -16 32 l-24 25 22 20 c50 47
13 100 -70 100 l-48 0 0 -90z m104 64 c23 -9 20 -51 -4 -64 -12 -6 -33 -10
-48 -8 -23 3 -27 8 -30 41 -3 36 -3 37 32 37 19 0 41 -3 50 -6z"/>
<path d="M1380 2630 c0 -53 4 -90 10 -90 6 0 10 37 10 90 0 53 -4 90 -10 90
-6 0 -10 -37 -10 -90z"/>
<path d="M1450 2630 l0 -90 63 2 62 1 -55 6 c-53 6 -55 7 -55 36 0 29 2 30 50
36 l50 5 -50 5 c-48 4 -50 5 -53 37 l-3 32 55 0 c31 0 56 5 56 10 0 6 -27 10
-60 10 l-60 0 0 -90z"/>
<path d="M1790 2630 l0 -90 63 2 62 2 -52 3 -53 4 0 85 c0 49 -4 84 -10 84 -6
0 -10 -37 -10 -90z"/>
<path d="M1940 2630 c0 -53 4 -90 10 -90 6 0 10 37 10 90 0 53 -4 90 -10 90
-6 0 -10 -37 -10 -90z"/>
<path d="M2010 2630 c0 -107 18 -122 22 -19 l3 72 55 -71 c30 -39 61 -71 68
-72 9 0 12 24 12 90 0 108 -18 122 -22 18 l-3 -73 -60 73 c-32 39 -63 72 -67
72 -4 0 -8 -40 -8 -90z"/>
<path d="M2252 2713 c-19 -7 -42 -58 -42 -91 0 -65 71 -108 130 -79 16 9 30
11 30 6 0 -5 5 -9 10 -9 6 0 10 20 10 45 l0 45 -47 -2 c-44 -1 -45 -2 -10 -5
41 -5 42 -5 26 -36 -16 -29 -28 -37 -61 -37 -43 0 -70 33 -66 82 6 75 77 101
128 46 11 -12 23 -19 26 -15 3 3 -5 17 -19 31 -25 25 -78 34 -115 19z"/>
<path d="M1281 1738 c-7 -24 -18 -49 -23 -55 -8 -9 -6 -13 4 -13 9 0 20 18 27
43 7 23 18 48 23 55 8 8 6 12 -4 12 -9 0 -20 -18 -27 -42z"/>
<path d="M1767 1736 c-23 -68 -21 -82 3 -21 11 28 19 54 17 60 -2 5 -11 -12
-20 -39z"/>
<path d="M1986 1726 c-3 -13 -9 -31 -12 -40 -3 -9 -1 -16 5 -16 6 0 10 3 9 8
-1 4 2 20 7 35 4 15 5 30 2 33 -2 3 -7 -6 -11 -20z"/>
<path d="M1385 1720 c-3 -5 -1 -10 4 -10 6 0 11 5 11 10 0 6 -2 10 -4 10 -3 0
-8 -4 -11 -10z"/>
<path d="M1453 1718 c0 -7 -4 -21 -8 -30 -4 -11 -3 -18 4 -18 6 0 11 6 11 14
0 8 3 21 6 30 3 9 2 16 -3 16 -5 0 -10 -6 -10 -12z"/>
<path d="M1496 1704 c-10 -38 0 -41 12 -5 6 17 7 31 3 31 -5 0 -12 -12 -15
-26z"/>
<path d="M1556 1708 c-10 -38 -6 -45 9 -18 17 29 18 40 6 40 -5 0 -11 -10 -15
-22z"/>
<path d="M1596 1704 c-4 -14 -5 -29 -2 -31 3 -3 8 7 12 21 3 15 4 29 1 32 -2
3 -8 -7 -11 -22z"/>
<path d="M1713 1718 c0 -7 -4 -21 -8 -30 -4 -11 -3 -18 4 -18 6 0 11 6 11 14
0 8 3 21 6 30 3 9 2 16 -3 16 -5 0 -10 -6 -10 -12z"/>
<path d="M1793 1710 c-1 -11 2 -18 8 -15 11 7 12 35 1 35 -4 0 -8 -9 -9 -20z"/>
<path d="M1864 1711 c0 -11 4 -17 8 -15 4 3 8 12 8 20 0 8 -4 14 -8 14 -4 0
-8 -9 -8 -19z"/>
<path d="M1896 1704 c-10 -38 0 -41 12 -5 6 17 7 31 3 31 -5 0 -12 -12 -15
-26z"/>
<path d="M1940 1709 c-6 -11 -10 -25 -7 -32 2 -6 9 3 15 21 12 36 8 42 -8 11z"/>
<path d="M2072 1705 c0 -16 2 -22 5 -12 2 9 2 23 0 30 -3 6 -5 -1 -5 -18z"/>
<path d="M2166 1704 c-10 -37 -2 -39 11 -4 6 17 8 30 3 30 -4 0 -11 -12 -14
-26z"/>
<path d="M2210 1706 c-15 -39 -12 -46 6 -13 9 16 13 31 10 34 -3 3 -10 -6 -16
-21z"/>
<path d="M2246 1708 c-10 -38 -6 -45 9 -18 17 29 18 40 6 40 -5 0 -11 -10 -15
-22z"/>
<path d="M2102 1700 c0 -14 2 -19 5 -12 2 6 2 18 0 25 -3 6 -5 1 -5 -13z"/>
<path d="M1348 1703 c-17 -4 -34 -33 -19 -33 5 0 12 6 14 13 4 10 6 10 6 0 2
-21 17 -14 17 7 0 11 0 19 -1 19 0 -1 -7 -3 -17 -6z"/>
<path d="M1667 1696 c-4 -10 -5 -21 -2 -24 9 -9 17 6 13 25 -3 17 -4 17 -11
-1z"/>
<path d="M1827 1703 c-10 -9 -9 -33 1 -33 4 0 8 9 8 20 0 23 0 22 -9 13z"/>
<path d="M2287 1703 c-10 -9 -9 -33 1 -33 4 0 8 9 8 20 0 23 0 22 -9 13z"/>
<path d="M1405 1691 c-3 -5 -1 -12 5 -16 5 -3 10 1 10 9 0 18 -6 21 -15 7z"/>
<path d="M2340 1680 c0 -5 5 -10 11 -10 5 0 7 5 4 10 -3 6 -8 10 -11 10 -2 0
-4 -4 -4 -10z"/>
<path d="M1710 1580 c0 -5 5 -10 11 -10 5 0 7 5 4 10 -3 6 -8 10 -11 10 -2 0
-4 -4 -4 -10z"/>
<path d="M1481 1564 c0 -11 3 -14 6 -6 3 7 2 16 -1 19 -3 4 -6 -2 -5 -13z"/>
<path d="M1813 1563 c-3 -10 -12 -33 -19 -52 -8 -18 -11 -37 -8 -42 8 -14 26
-11 21 4 -2 6 4 33 14 60 11 26 14 47 9 47 -6 0 -13 -8 -17 -17z"/>
<path d="M1856 1540 c-19 -47 -21 -80 -5 -80 6 0 9 6 6 13 -2 6 4 31 15 55 21
50 21 52 9 52 -5 0 -16 -18 -25 -40z"/>
<path d="M1680 1543 c-7 -16 -14 -35 -15 -43 -4 -34 -17 -60 -31 -60 -8 0 -14
-4 -14 -10 0 -30 41 7 61 55 12 29 22 85 15 85 -1 0 -9 -12 -16 -27z"/>
<path d="M1357 1513 c-11 -10 -8 -43 3 -43 6 0 10 11 10 25 0 26 -2 29 -13 18z"/>
<path d="M1388 1508 c-7 -16 7 -46 17 -37 3 4 2 16 -3 29 -7 18 -10 20 -14 8z"/>
<path d="M1420 1504 c0 -8 5 -12 10 -9 6 3 10 10 10 16 0 5 -4 9 -10 9 -5 0
-10 -7 -10 -16z"/>
<path d="M1456 1504 c-9 -23 -7 -44 3 -44 5 0 11 14 13 30 5 32 -6 41 -16 14z"/>
<path d="M1506 1504 c-3 -9 -6 -23 -6 -32 1 -15 3 -14 15 2 17 22 20 46 6 46
-5 0 -12 -7 -15 -16z"/>
<path d="M1546 1494 c-6 -24 -2 -43 8 -33 11 10 17 59 8 59 -5 0 -13 -12 -16
-26z"/>
<path d="M1596 1498 c-16 -23 -13 -38 8 -38 9 0 12 9 8 27 -4 21 -2 25 11 20
9 -3 19 -2 22 3 13 21 -35 9 -49 -12z"/>
<path d="M1716 1504 c-19 -18 -20 -30 -6 -39 15 -9 60 22 60 40 0 20 -34 19
-54 -1z m34 -8 c0 -8 -7 -16 -15 -20 -17 -6 -18 -4 -9 18 8 20 24 21 24 2z"/>
<path d="M1898 1490 c2 -16 8 -30 13 -30 5 0 9 14 9 30 0 18 -5 30 -13 30 -9
0 -12 -10 -9 -30z"/>
<path d="M1940 1494 c-6 -14 -15 -35 -21 -46 -8 -16 -8 -19 2 -16 16 5 52 88
38 88 -5 0 -14 -12 -19 -26z"/>
<path d="M2020 1505 c-13 -16 -7 -45 10 -45 5 0 9 10 7 23 -1 16 3 21 16 19 9
-2 17 2 17 8 0 15 -36 12 -50 -5z"/>
<path d="M2080 1500 c-6 -11 -8 -25 -5 -30 11 -17 22 -11 21 11 -1 12 5 24 13
27 10 3 11 -2 6 -19 -7 -21 -6 -22 9 -10 24 20 20 41 -9 41 -14 0 -29 -8 -35
-20z"/>
<path d="M2156 1498 c-3 -13 -6 -27 -6 -33 1 -15 30 27 30 42 0 22 -17 15 -24
-9z"/>
<path d="M2197 1493 c-5 -27 -2 -41 7 -32 11 10 17 59 8 59 -5 0 -12 -12 -15
-27z"/>
<path d="M2244 1495 c-6 -23 0 -45 10 -34 10 12 15 59 6 59 -5 0 -12 -11 -16
-25z"/>
<path d="M1970 1480 c0 -5 5 -10 10 -10 6 0 10 5 10 10 0 6 -4 10 -10 10 -5 0
-10 -4 -10 -10z"/>
<path d="M1880 1441 c0 -5 5 -13 10 -16 6 -3 10 -2 10 4 0 5 -4 13 -10 16 -5
3 -10 2 -10 -4z"/>
<path d="M770 1198 c0 -8 -5 -86 -11 -172 -13 -195 -2 -300 43 -398 36 -79 77
-121 138 -141 113 -38 579 -58 1075 -46 610 14 694 36 772 205 39 85 45 143
37 357 l-7 197 -41 0 c-71 0 -69 4 -61 -203 4 -102 4 -199 0 -217 -6 -29 -8
-30 -21 -13 -7 10 -14 43 -14 76 0 73 -26 76 -57 6 -6 -15 -25 -42 -42 -62
-25 -28 -39 -35 -74 -37 -99 -5 -246 8 -270 25 -24 17 -98 8 -115 -14 -17 -22
-25 -16 -37 26 l-10 36 -100 5 c-347 17 -446 14 -585 -17 -25 -6 -74 -14 -110
-20 -36 -5 -85 -15 -110 -21 -25 -7 -63 -17 -85 -22 -22 -6 -57 -17 -78 -24
-48 -18 -46 -18 -40 9 4 21 4 22 -11 3 -12 -16 -13 -22 -3 -28 9 -6 9 -12 -1
-28 -7 -12 -10 -31 -7 -43 5 -19 2 -17 -23 9 -52 55 -65 141 -57 364 l8 190
-36 0 c-19 0 -42 3 -51 6 -10 4 -16 1 -16 -8z m520 -582 c0 -11 -19 -15 -25
-6 -3 5 1 10 9 10 9 0 16 -2 16 -4z m200 -6 c0 -5 -10 -10 -22 -9 -22 0 -22 1
-3 9 11 5 21 9 23 9 1 1 2 -3 2 -9z m835 0 c3 -5 -1 -10 -10 -10 -9 0 -13 5
-10 10 3 6 8 10 10 10 2 0 7 -4 10 -10z m95 0 c0 -5 -7 -10 -16 -10 -8 0 -12
5 -9 10 3 6 10 10 16 10 5 0 9 -4 9 -10z m-723 -6 c-3 -3 -12 -4 -19 -1 -8 3
-5 6 6 6 11 1 17 -2 13 -5z m226 -1 c-7 -2 -19 -2 -25 0 -7 3 -2 5 12 5 14 0
19 -2 13 -5z m210 0 c-7 -2 -19 -2 -25 0 -7 3 -2 5 12 5 14 0 19 -2 13 -5z
m100 0 c-7 -2 -19 -2 -25 0 -7 3 -2 5 12 5 14 0 19 -2 13 -5z"/>
<path d="M2587 1159 c4 -16 8 -17 14 -7 7 11 12 11 29 0 26 -16 61 -7 53 14
-3 9 -20 14 -53 14 -44 0 -48 -2 -43 -21z"/>
<path d="M1472 900 c0 -14 2 -19 5 -12 2 6 2 18 0 25 -3 6 -5 1 -5 -13z"/>
<path d="M1451 894 c0 -11 3 -14 6 -6 3 7 2 16 -1 19 -3 4 -6 -2 -5 -13z"/>
</g>
</svg>
