<?xml version="1.0" standalone="no"?>
<!DOCTYPE svg PUBLIC "-//W3C//DTD SVG 20010904//EN"
 "http://www.w3.org/TR/2001/REC-SVG-20010904/DTD/svg10.dtd">
<svg version="1.0" xmlns="http://www.w3.org/2000/svg"
 width="349.000000pt" height="1000.000000pt" viewBox="0 0 349.000000 1000.000000"
 preserveAspectRatio="xMidYMid meet">

<g transform="translate(0.000000,1000.000000) scale(0.100000,-0.100000)"
fill="#000000" stroke="none">
<path d="M1502 9370 c-108 -11 -146 -25 -177 -62 -24 -28 -25 -36 -19 -87 3
-31 13 -64 21 -73 13 -15 13 -20 -2 -46 -13 -22 -15 -34 -7 -48 7 -13 6 -26
-4 -46 -11 -20 -15 -65 -15 -154 -1 -115 1 -129 21 -156 l22 -30 -23 -24 -24
-24 6 -532 c4 -459 3 -560 -13 -728 -34 -389 -45 -444 -100 -554 -42 -83 -68
-117 -169 -218 -162 -162 -279 -375 -325 -592 -17 -80 -22 -169 -28 -438 -4
-207 -7 -198 65 -198 23 0 41 5 44 13 2 6 6 127 9 267 5 263 13 324 55 449 33
96 56 138 121 226 32 44 66 96 75 116 11 24 35 47 75 73 33 21 60 42 60 46 0
7 29 19 60 24 8 2 51 13 95 26 126 36 233 18 235 -38 0 -7 9 -31 20 -54 11
-22 25 -85 32 -142 7 -63 17 -104 26 -109 19 -12 31 -48 37 -114 3 -31 9 -60
14 -63 9 -6 11 -24 10 -98 0 -75 26 -97 82 -70 25 12 59 76 59 111 0 9 7 17
17 17 9 0 14 3 10 6 -9 9 19 34 37 34 11 0 16 9 16 30 0 19 5 30 14 30 8 0 12
8 9 23 -3 14 2 29 11 36 9 8 16 19 16 27 0 7 10 14 23 16 16 2 23 11 25 33 2
17 9 35 16 40 7 6 17 21 21 35 10 33 25 50 51 60 26 10 74 -8 74 -27 0 -7 5
-13 10 -13 6 0 10 5 10 12 0 7 9 3 20 -8 31 -31 45 -41 68 -48 12 -4 20 -11
17 -16 -3 -5 4 -11 15 -15 11 -4 28 -17 36 -31 9 -13 21 -21 27 -17 6 3 7 1 3
-5 -3 -6 3 -16 14 -22 11 -6 20 -17 20 -25 0 -8 4 -15 10 -15 5 0 24 -28 42
-61 55 -103 59 -109 69 -109 5 0 9 -8 9 -18 0 -10 7 -28 16 -40 23 -33 37
-211 31 -382 -3 -80 -8 -157 -11 -171 -8 -36 7 -41 120 -33 l94 7 -5 176 c-12
401 -21 464 -85 625 -72 181 -134 276 -290 440 -97 102 -126 140 -159 208 -50
101 -62 158 -95 478 -24 228 -26 283 -28 788 -1 433 -4 545 -15 554 -17 14
-16 33 3 63 30 45 17 298 -18 355 -10 15 -9 22 5 38 15 16 16 24 6 46 -10 21
-10 34 -1 60 29 80 -6 135 -98 155 -70 15 -410 22 -518 11z m478 -105 c10 -12
10 -15 -1 -15 -8 -1 -3 -7 11 -15 24 -14 24 -14 -20 -15 -59 0 -90 9 -90 26 0
30 79 44 100 19z m28 -105 c2 0 0 -5 -3 -10 -4 -6 -14 -9 -23 -6 -10 2 -39 8
-67 12 l-50 8 40 6 c22 3 53 2 70 -2 16 -4 31 -8 33 -8z m-43 -41 c20 -5 9 -6
-30 -2 -33 3 -62 7 -64 9 -8 7 63 2 94 -7z m45 -59 c10 -7 1 -9 -31 -10 -60 0
-109 10 -109 23 0 11 116 1 140 -13z m-13 -105 c-2 -26 1 -46 7 -49 6 -2 -14
-4 -44 -4 -30 0 -47 2 -37 5 20 5 23 23 5 23 -9 0 -8 4 2 10 8 5 10 10 4 10
-13 0 -25 35 -16 44 3 3 23 6 44 6 l39 0 -4 -45z m18 -95 c15 -6 7 -9 -30 -9
-27 0 -59 4 -70 9 -15 6 -7 9 30 9 28 0 59 -4 70 -9z m-118 -26 c-3 -3 -12 -4
-19 -1 -8 3 -5 6 6 6 11 1 17 -2 13 -5z m115 -55 c21 -11 21 -12 3 -25 -23
-17 -78 -18 -108 -1 -12 6 -24 13 -26 14 -1 1 0 6 4 12 8 14 101 14 127 0z
m-27 -69 c37 -9 17 -13 -55 -10 -75 3 -102 20 -30 19 30 -1 69 -5 85 -9z m40
-79 c3 -5 1 -13 -5 -16 -6 -4 -8 -15 -5 -26 4 -12 2 -19 -7 -19 -9 0 -10 -2
-1 -8 8 -5 13 -117 17 -402 3 -217 6 -415 7 -440 0 -25 0 -48 0 -51 -1 -4 -15
-9 -31 -13 -26 -5 -29 -9 -22 -23 5 -10 12 -58 16 -108 7 -91 19 -196 37 -315
10 -72 20 -169 23 -243 1 -37 -3 -52 -19 -66 -21 -20 -95 -35 -95 -19 0 13
-50 58 -65 58 -15 0 -29 93 -21 142 3 18 8 143 11 278 3 135 10 246 15 248 5
2 7 9 4 16 -3 8 2 16 12 20 15 6 15 8 2 24 -11 13 -13 34 -8 92 3 41 2 93 -3
115 -5 22 -6 72 -3 110 3 39 8 175 12 304 3 129 7 238 10 242 2 4 6 21 8 38 3
26 -1 31 -28 41 -25 9 -28 13 -16 20 19 12 147 13 155 1z m-405 -990 c0 -5 -6
-12 -12 -14 -7 -3 -2 -6 12 -6 18 -1 21 -4 12 -10 -11 -7 -12 -35 -3 -157 6
-82 13 -212 16 -289 3 -77 8 -161 11 -188 7 -58 -1 -97 -21 -97 -8 0 -15 -7
-15 -15 0 -33 -261 -6 -299 31 -13 12 -13 40 3 221 9 115 22 242 27 283 5 41
11 111 15 155 3 44 8 83 11 88 6 10 243 9 243 -2z"/>
<path d="M1753 5353 c20 -2 54 -2 75 0 20 2 3 4 -38 4 -41 0 -58 -2 -37 -4z"/>
<path d="M1574 4964 c3 -26 6 -60 6 -75 0 -23 4 -29 23 -29 16 0 18 3 8 9 -13
8 -19 41 -20 109 -1 17 -6 32 -12 32 -8 0 -10 -15 -5 -46z"/>
<path d="M1628 5003 c7 -3 16 -2 19 1 4 3 -2 6 -13 5 -11 0 -14 -3 -6 -6z"/>
<path d="M1778 4940 c-2 -42 1 -70 7 -70 6 0 11 32 13 70 2 40 -1 70 -7 70 -5
0 -11 -32 -13 -70z"/>
<path d="M1845 5000 c3 -5 8 -10 11 -10 2 0 4 5 4 10 0 6 -5 10 -11 10 -5 0
-7 -4 -4 -10z"/>
<path d="M1496 4973 c10 -40 14 -41 14 -5 0 18 -5 32 -10 32 -6 0 -8 -11 -4
-27z"/>
<path d="M1902 4977 c-32 -38 -22 -96 20 -118 l21 -12 -21 28 c-26 33 -28 62
-6 93 16 23 4 31 -14 9z"/>
<path d="M2005 4963 c17 -33 10 -72 -17 -95 -22 -20 -17 -23 12 -8 30 16 42
67 25 101 -9 16 -20 29 -25 29 -5 0 -2 -12 5 -27z"/>
<path d="M1378 4968 c7 -7 13 -21 13 -32 1 -17 2 -18 6 -3 4 14 14 10 62 -28
31 -25 60 -45 62 -45 3 0 3 15 1 32 -4 24 -7 28 -11 16 -5 -15 -14 -11 -61 27
-30 24 -62 44 -69 45 -12 0 -12 -3 -3 -12z"/>
<path d="M2081 4919 c-6 -33 -14 -66 -18 -74 -3 -9 1 -15 10 -15 8 0 14 6 14
13 -2 22 15 102 24 113 6 8 5 14 -4 17 -10 4 -17 -12 -26 -54z"/>
<path d="M1298 4948 c5 -7 15 -39 22 -70 7 -32 17 -58 23 -58 5 0 6 10 3 23
-4 12 -12 43 -18 70 -7 29 -17 47 -26 47 -10 0 -12 -4 -4 -12z"/>
<path d="M1230 4883 l0 -66 -23 21 c-17 16 -22 31 -21 59 l3 38 -7 -34 -7 -33
-19 21 c-10 11 -23 18 -27 15 -9 -5 88 -114 102 -114 4 0 9 36 11 80 2 44 0
80 -4 80 -5 0 -8 -30 -8 -67z"/>
<path d="M2220 4938 c0 -2 -11 -33 -23 -70 -21 -61 -22 -67 -6 -71 12 -3 15 1
12 13 -2 9 5 42 16 73 11 31 15 57 10 57 -5 0 -9 -1 -9 -2z"/>
<path d="M2321 4858 c1 -30 -3 -64 -10 -76 -7 -13 -8 -22 -2 -22 6 0 16 10 22
23 6 12 21 33 33 47 l21 25 -22 -19 -23 -19 0 41 c0 22 -5 44 -10 47 -7 4 -10
-13 -9 -47z"/>
<path d="M1401 4866 c-1 -26 2 -37 9 -30 6 6 6 21 1 39 -9 30 -9 30 -10 -9z"/>
<path d="M1101 4838 c79 -74 79 -75 79 -42 0 18 -3 24 -8 17 -6 -9 -19 -1 -47
27 -22 22 -46 40 -54 40 -9 0 4 -18 30 -42z"/>
<path d="M2397 4866 c-4 -10 -1 -13 8 -9 8 3 12 9 9 14 -7 12 -11 11 -17 -5z"/>
<path d="M2238 4783 c7 -3 16 -2 19 1 4 3 -2 6 -13 5 -11 0 -14 -3 -6 -6z"/>
<path d="M1659 4722 c-26 -24 -32 -36 -32 -72 0 -107 143 -139 192 -43 49 97
-78 188 -160 115z m68 -19 c10 -26 11 -27 10 -4 -1 13 4 26 11 28 13 5 35 -41
46 -97 l6 -35 -25 30 -26 30 7 -44 c4 -31 3 -42 -5 -37 -6 4 -11 12 -11 17 0
6 -8 18 -17 27 -15 16 -16 15 -10 -16 10 -49 -6 -39 -38 24 -23 45 -26 57 -15
64 8 5 18 6 24 3 5 -4 7 1 3 9 -3 9 -3 19 0 22 14 13 30 5 40 -21z"/>
<path d="M1690 4675 c0 -5 5 -17 10 -25 5 -8 10 -10 10 -5 0 6 -5 17 -10 25
-5 8 -10 11 -10 5z"/>
<path d="M945 4192 c-31 -7 -45 -22 -45 -52 0 -22 7 -30 33 -40 17 -6 42 -16
55 -21 25 -10 30 -44 6 -53 -31 -12 -64 -6 -76 14 -14 21 -28 27 -28 10 0 -20
41 -50 68 -50 37 0 72 26 72 54 0 30 -14 41 -67 55 -30 8 -43 17 -43 29 0 43
47 55 81 21 23 -23 33 -21 23 4 -7 19 -51 35 -79 29z"/>
<path d="M1099 4105 c-22 -47 -39 -91 -36 -98 2 -7 11 3 21 21 15 29 21 32 61
32 39 0 47 -4 57 -25 10 -23 28 -34 28 -17 0 16 -75 172 -83 172 -4 0 -26 -38
-48 -85z m66 19 c21 -50 20 -54 -20 -52 -19 1 -35 5 -35 9 0 10 32 79 37 79 1
0 10 -16 18 -36z"/>
<path d="M1262 4114 c3 -65 7 -79 27 -95 13 -10 36 -19 51 -19 15 0 38 9 51
19 20 16 24 30 27 95 3 51 1 76 -7 76 -7 0 -11 -23 -11 -63 0 -75 -18 -107
-59 -107 -45 0 -61 27 -61 103 0 42 -4 67 -11 67 -8 0 -10 -25 -7 -76z"/>
<path d="M1450 4186 c0 -16 81 -176 89 -176 12 0 94 171 86 178 -9 9 -20 -10
-51 -80 -15 -38 -31 -68 -35 -68 -3 0 -21 34 -39 75 -18 41 -37 75 -41 75 -5
0 -9 -2 -9 -4z"/>
<path d="M1674 4100 c0 -52 1 -74 3 -47 2 26 2 68 0 95 -2 26 -3 4 -3 -48z"/>
<path d="M1756 4159 c-31 -36 -33 -73 -6 -116 26 -44 80 -54 120 -24 26 19 29
19 33 3 3 -9 5 4 6 31 l1 47 -47 -2 c-44 -1 -45 -2 -10 -5 42 -5 48 -22 17
-53 -27 -27 -71 -26 -98 3 -40 43 -21 118 33 131 27 7 80 -15 88 -36 2 -7 8
-10 12 -5 5 4 -2 18 -15 32 -36 38 -100 35 -134 -6z"/>
<path d="M1970 4100 c0 -53 4 -90 10 -90 6 0 10 30 10 71 l0 72 56 -69 c31
-38 60 -70 65 -72 5 -2 8 38 7 90 -2 89 -2 90 -5 21 -2 -40 -7 -73 -11 -73 -4
0 -32 31 -62 69 -30 39 -58 70 -62 70 -5 1 -8 -39 -8 -89z"/>
<path d="M2207 4179 c-26 -15 -46 -68 -40 -102 7 -36 57 -77 94 -77 17 0 40
11 58 28 66 60 30 162 -56 162 -21 0 -46 -5 -56 -11z m96 -19 c33 -26 41 -63
23 -99 -35 -67 -127 -50 -142 26 -5 27 -1 37 24 63 35 35 60 38 95 10z"/>
<path d="M2400 4100 c0 -107 18 -122 22 -19 l3 70 58 -70 c32 -39 62 -71 68
-71 5 0 9 40 9 90 0 53 -4 90 -10 90 -6 0 -10 -32 -10 -76 l0 -76 -62 76 c-34
42 -65 76 -70 76 -4 0 -8 -40 -8 -90z"/>
<path d="M1270 3820 l0 -90 59 0 c50 0 62 4 75 21 16 23 11 47 -13 66 -9 7
-11 13 -5 13 21 0 23 41 3 61 -14 14 -33 19 -69 19 l-50 0 0 -90z m110 55 c19
-23 -5 -45 -51 -45 -37 0 -39 2 -39 30 0 28 2 30 39 30 22 0 44 -6 51 -15z m8
-77 c16 -16 15 -23 -4 -42 -9 -9 -32 -16 -55 -16 -38 0 -39 1 -39 35 0 35 1
35 43 35 24 0 48 -5 55 -12z"/>
<path d="M1460 3820 l0 -90 63 2 62 2 -52 3 -53 4 0 85 c0 49 -4 84 -10 84 -6
0 -10 -37 -10 -90z"/>
<path d="M1671 3888 c-5 -13 -23 -53 -40 -90 -16 -38 -26 -68 -20 -68 5 0 14
11 19 25 8 22 15 25 58 25 42 0 50 -3 60 -25 6 -14 16 -25 21 -25 6 0 -9 41
-31 90 -23 50 -45 90 -50 90 -5 0 -12 -10 -17 -22z m40 -47 c10 -22 14 -42 11
-45 -8 -9 -74 -7 -70 2 2 4 10 24 18 45 8 20 16 37 20 37 3 0 12 -18 21 -39z"/>
<path d="M1817 3904 c-9 -15 -6 -174 4 -174 4 0 9 32 11 72 l3 71 59 -71 c32
-40 62 -72 67 -72 5 0 9 41 9 90 0 53 -4 90 -10 90 -6 0 -10 -31 -10 -72 l-1
-73 -42 50 c-23 27 -51 60 -63 74 -11 13 -23 20 -27 15z"/>
<path d="M2038 3880 c-27 -27 -30 -36 -25 -71 7 -50 30 -77 72 -85 37 -7 89
15 99 42 11 28 -3 29 -25 1 -42 -54 -129 -20 -129 50 0 76 87 106 135 48 13
-17 24 -24 25 -17 0 7 -11 24 -25 37 -36 36 -88 34 -127 -5z"/>
<path d="M1220 3286 c0 -8 -9 -35 -20 -60 -14 -33 -16 -46 -7 -46 7 0 18 19
24 43 7 23 15 50 18 60 4 10 3 17 -4 17 -6 0 -11 -6 -11 -14z"/>
<path d="M1693 3246 c-11 -31 -18 -58 -15 -61 3 -2 14 20 24 51 25 73 17 81
-9 10z"/>
<path d="M1911 3229 c-16 -53 -8 -61 9 -9 7 22 11 42 8 45 -3 3 -10 -13 -17
-36z"/>
<path d="M1793 3224 c0 -23 1 -24 9 -10 7 12 7 21 0 28 -6 6 -9 0 -9 -18z"/>
<path d="M2060 3240 c0 -5 5 -10 11 -10 5 0 7 5 4 10 -3 6 -8 10 -11 10 -2 0
-4 -4 -4 -10z"/>
<path d="M1376 3214 c-6 -24 -2 -44 8 -33 9 11 15 59 7 59 -5 0 -12 -12 -15
-26z"/>
<path d="M1425 3220 c-4 -12 -5 -24 -2 -27 3 -2 8 5 12 17 4 12 5 24 2 27 -3
2 -8 -5 -12 -17z"/>
<path d="M1485 3219 c-10 -30 0 -33 13 -4 6 14 7 25 2 25 -5 0 -12 -9 -15 -21z"/>
<path d="M1526 3214 c-4 -14 -5 -28 -3 -31 3 -2 8 8 11 23 4 14 5 28 3 31 -3
2 -8 -8 -11 -23z"/>
<path d="M1640 3226 c0 -8 -3 -21 -6 -30 -4 -10 -1 -16 7 -16 7 0 10 3 6 6 -3
3 -2 17 3 30 6 15 6 24 0 24 -6 0 -10 -6 -10 -14z"/>
<path d="M1723 3225 c0 -8 4 -12 9 -9 4 3 8 9 8 15 0 5 -4 9 -8 9 -5 0 -9 -7
-9 -15z"/>
<path d="M1827 3226 c-4 -10 -7 -25 -6 -34 0 -11 4 -9 10 7 5 13 8 29 6 35 -2
5 -6 2 -10 -8z"/>
<path d="M1867 3226 c-4 -10 -7 -25 -6 -34 0 -11 4 -9 10 7 5 13 8 29 6 35 -2
5 -6 2 -10 -8z"/>
<path d="M2002 3215 c0 -16 2 -22 5 -12 2 9 2 23 0 30 -3 6 -5 -1 -5 -18z"/>
<path d="M2027 3227 c-3 -8 -1 -20 4 -28 6 -10 9 -7 9 14 0 29 -5 35 -13 14z"/>
<path d="M2096 3225 c-3 -9 -6 -22 -5 -28 0 -7 5 -1 10 12 5 13 8 26 5 28 -2
2 -6 -3 -10 -12z"/>
<path d="M2137 3218 c-9 -31 -2 -33 11 -3 6 14 8 25 3 25 -5 0 -11 -10 -14
-22z"/>
<path d="M2176 3214 c-10 -37 -2 -39 11 -4 6 17 8 30 3 30 -4 0 -11 -12 -14
-26z"/>
<path d="M1600 3215 c-9 -11 -10 -19 -3 -26 7 -7 12 -2 15 15 6 30 5 31 -12
11z"/>
<path d="M1754 3215 c-3 -8 -4 -20 -2 -27 3 -7 7 -1 10 15 6 29 1 36 -8 12z"/>
<path d="M1250 3199 c-28 -15 -31 -19 -13 -19 12 0 25 5 29 11 4 8 9 7 15 -2
11 -18 18 -9 10 12 -5 15 -9 15 -41 -2z"/>
<path d="M1337 3205 c-4 -8 -2 -17 3 -20 6 -4 10 3 10 14 0 25 -6 27 -13 6z"/>
<path d="M2210 3200 c0 -11 4 -20 9 -20 5 0 7 9 4 20 -3 11 -7 20 -9 20 -2 0
-4 -9 -4 -20z"/>
<path d="M1617 3073 c-6 -16 -14 -30 -17 -33 -3 -3 -5 -9 -5 -15 -1 -33 -19
-74 -33 -78 -15 -4 -15 -5 1 -6 12 -1 24 13 38 44 11 25 25 45 32 45 9 0 9 2
0 8 -7 4 -10 17 -6 30 3 12 9 19 14 16 5 -3 9 0 9 5 0 21 -21 10 -33 -16z"/>
<path d="M1746 3090 c-9 -24 -36 -102 -36 -106 0 -2 7 -4 16 -4 8 0 13 4 9 9
-3 5 2 28 11 50 9 22 14 46 11 53 -3 10 -6 9 -11 -2z"/>
<path d="M1781 3044 c-25 -67 -25 -64 -5 -64 8 0 13 4 10 9 -4 5 3 30 13 55
11 25 16 48 12 50 -5 3 -18 -19 -30 -50z"/>
<path d="M1400 3080 c0 -5 5 -10 10 -10 6 0 10 5 10 10 0 6 -4 10 -10 10 -5 0
-10 -4 -10 -10z"/>
<path d="M1350 3025 c0 -8 5 -15 10 -15 6 0 10 7 10 15 0 8 -4 15 -10 15 -5 0
-10 -7 -10 -15z"/>
<path d="M1382 3016 c-11 -24 -7 -36 11 -36 6 0 8 3 4 6 -3 3 -2 17 3 30 12
31 -3 31 -18 0z"/>
<path d="M1436 3014 c-9 -36 1 -43 14 -10 12 33 12 36 1 36 -5 0 -12 -12 -15
-26z"/>
<path d="M1480 3026 c0 -8 -3 -21 -6 -30 -4 -10 -1 -16 7 -16 8 0 15 12 16 30
1 17 -2 30 -7 30 -6 0 -10 -6 -10 -14z"/>
<path d="M1530 3020 c-23 -23 -19 -40 8 -39 10 0 12 3 5 6 -10 3 -10 10 -2 24
5 11 14 17 20 14 5 -4 9 -1 9 4 0 17 -18 13 -40 -9z"/>
<path d="M1674 3019 c1 -12 -5 -24 -13 -27 -10 -3 -11 2 -6 19 7 21 6 22 -9
10 -9 -7 -16 -20 -16 -27 0 -19 35 -18 54 2 19 19 21 44 3 44 -8 0 -13 -10
-13 -21z"/>
<path d="M1828 3010 c2 -16 7 -30 11 -30 11 0 5 54 -6 57 -5 2 -8 -9 -5 -27z"/>
<path d="M1873 3020 c-29 -69 -27 -96 2 -39 9 17 14 38 12 47 -3 13 -6 12 -14
-8z"/>
<path d="M1957 3022 c-21 -23 -22 -42 -1 -42 8 0 12 4 9 10 -3 5 -1 18 4 27 6
11 11 13 11 5 0 -15 20 -6 20 9 0 15 -26 10 -43 -9z"/>
<path d="M2017 3022 c-22 -25 -21 -42 2 -42 23 0 53 28 48 44 -6 19 -32 18
-50 -2z m33 -6 c0 -15 -18 -31 -26 -23 -7 7 7 37 17 37 5 0 9 -6 9 -14z"/>
<path d="M2086 3014 c-6 -24 -2 -43 8 -33 11 10 17 59 8 59 -5 0 -13 -12 -16
-26z"/>
<path d="M2127 3013 c-3 -16 -3 -30 -1 -33 7 -7 24 23 24 43 0 27 -17 20 -23
-10z"/>
<path d="M2173 3034 c3 -3 2 -17 -3 -30 -7 -17 -6 -24 3 -24 7 0 14 14 15 30
1 18 -3 30 -10 30 -6 0 -9 -3 -5 -6z"/>
<path d="M1280 3011 c0 -11 5 -23 10 -26 6 -4 10 5 10 19 0 14 -4 26 -10 26
-5 0 -10 -9 -10 -19z"/>
<path d="M1315 3017 c-4 -10 -3 -23 3 -29 14 -14 21 3 12 27 -7 19 -8 19 -15
2z"/>
<path d="M1900 2990 c0 -5 5 -10 10 -10 6 0 10 5 10 10 0 6 -4 10 -10 10 -5 0
-10 -4 -10 -10z"/>
<path d="M1810 2950 c0 -6 7 -10 15 -10 8 0 15 2 15 4 0 2 -7 6 -15 10 -8 3
-15 1 -15 -4z"/>
<path d="M2790 2780 c-15 -8 -131 -32 -219 -46 -24 -3 -39 -9 -33 -13 11 -6
36 -128 34 -166 -1 -34 -13 -207 -18 -260 -2 -27 -6 -93 -9 -145 -12 -246 -25
-383 -37 -391 -6 -4 -5 -40 2 -95 17 -133 18 -166 5 -200 -8 -19 -9 -37 -4
-47 5 -8 6 -22 3 -30 -5 -15 -8 -199 -3 -259 1 -16 6 -28 11 -28 10 0 5 -66
-5 -77 -4 -3 -7 -1 -7 5 0 7 -8 12 -18 12 -23 0 -62 40 -62 63 0 9 -4 17 -10
17 -14 0 -79 72 -80 88 0 6 -7 12 -14 12 -8 0 -28 17 -43 37 -41 55 -51 64
-128 121 -111 81 -121 91 -109 99 15 11 25 43 14 43 -6 0 -10 9 -10 20 0 11
-6 20 -14 20 -7 0 -16 9 -19 19 -3 14 -1 18 9 14 11 -4 14 5 14 36 0 27 -5 44
-14 47 -16 6 -36 49 -36 79 0 11 -2 53 -6 93 -5 61 -3 72 10 72 9 0 16 2 16 5
0 8 -32 69 -39 75 -31 25 -61 84 -61 119 0 22 -7 46 -15 55 -8 8 -15 24 -15
36 0 14 -5 20 -17 18 -15 -3 -18 5 -18 45 0 26 -3 47 -7 47 -5 0 -8 19 -8 41
0 38 2 41 23 36 20 -5 20 -5 5 7 -21 15 -24 36 -5 36 18 1 67 47 67 65 0 21
20 19 21 -2 1 -29 26 37 33 87 4 29 13 50 26 59 26 18 25 29 -2 34 -18 4 -16
5 7 5 17 1 46 5 65 10 24 7 -52 10 -250 9 -157 0 -264 -2 -237 -4 26 -2 45 -8
42 -14 -4 -5 2 -9 12 -10 16 0 16 -1 -2 -9 -19 -8 -19 -9 2 -9 16 -1 21 -6 17
-16 -3 -8 -1 -38 6 -67 12 -49 19 -71 56 -156 19 -44 19 -172 -1 -198 -11 -14
-14 -48 -15 -131 0 -65 -5 -123 -12 -138 -9 -21 -9 -28 1 -34 9 -6 9 -14 -3
-37 -8 -16 -21 -74 -29 -128 -9 -54 -19 -102 -24 -105 -10 -7 -34 -86 -36
-121 -2 -22 -13 -28 -95 -56 -99 -34 -177 -78 -252 -140 -43 -36 -154 -156
-202 -218 -13 -17 -54 -65 -93 -109 -38 -43 -94 -106 -123 -139 l-52 -59 0 33
c0 19 5 39 12 46 6 6 11 28 10 48 -1 21 5 69 13 107 10 47 11 75 5 88 -13 24
-13 42 2 33 10 -6 8 97 -4 286 -1 8 2 40 6 70 4 34 4 50 -2 42 -10 -14 -11 54
-14 618 -1 261 1 356 11 390 8 25 17 73 20 106 l7 62 -79 16 c-44 10 -86 20
-94 23 -14 6 -15 -92 -9 -953 3 -527 11 -1004 16 -1059 14 -139 32 -196 75
-234 58 -50 77 -60 155 -76 267 -55 1404 -50 1655 6 60 14 92 29 134 65 80 67
89 135 101 749 6 270 9 720 8 1002 -3 451 -5 511 -18 503z"/>
<path d="M1900 2195 c0 -15 18 -40 24 -34 3 3 -1 14 -9 25 -8 10 -14 15 -15 9z"/>
</g>
</svg>
