<?xml version="1.0" standalone="no"?>
<!DOCTYPE svg PUBLIC "-//W3C//DTD SVG 20010904//EN"
 "http://www.w3.org/TR/2001/REC-SVG-20010904/DTD/svg10.dtd">
<svg version="1.0" xmlns="http://www.w3.org/2000/svg"
 width="783.000000pt" height="411.000000pt" viewBox="0 0 783.000000 411.000000"
 preserveAspectRatio="xMidYMid meet">

<g transform="translate(0.000000,411.000000) scale(0.100000,-0.100000)"
fill="#000000" stroke="none">
<path d="M1867 3801 c-32 -35 -34 -43 -30 -87 6 -61 10 -74 23 -74 6 0 10 26
10 63 0 57 3 66 30 92 17 16 30 32 30 37 0 20 -31 5 -63 -31z"/>
<path d="M1973 3808 c-6 -7 -13 -36 -17 -63 -10 -83 42 -128 80 -69 21 31 24
105 5 127 -16 20 -54 22 -68 5z m57 -54 c0 -49 -17 -79 -36 -63 -19 15 -18 59
2 87 20 29 34 19 34 -24z"/>
<path d="M2189 3814 c-1 -5 0 -22 1 -38 2 -33 -18 -76 -36 -76 -15 0 -24 23
-24 65 0 36 -17 56 -30 35 -10 -16 0 -102 14 -117 6 -6 22 -14 36 -18 22 -5
29 -1 48 33 25 46 29 94 7 112 -8 7 -15 9 -16 4z"/>
<path d="M2266 3800 c-15 -77 -15 -101 2 -98 9 2 19 14 22 26 5 23 6 22 43
-17 21 -23 42 -41 47 -41 17 0 31 41 28 82 -4 56 -28 64 -28 9 0 -30 -4 -41
-15 -41 -8 0 -15 3 -15 8 0 4 -18 27 -39 52 -39 44 -39 44 -45 20z"/>
<path d="M2486 3798 c-9 -12 -16 -42 -16 -65 0 -52 26 -83 69 -83 37 0 77 31
68 53 -7 18 -52 23 -62 7 -3 -5 1 -10 9 -10 9 0 16 -4 16 -10 0 -11 -30 -13
-54 -4 -11 4 -16 19 -16 49 0 35 4 45 21 50 11 4 18 12 16 18 -7 21 -35 19
-51 -5z"/>
<path d="M1730 3801 c0 -15 83 -80 94 -73 5 3 -10 23 -33 44 -43 38 -61 46
-61 29z"/>
<path d="M5518 3794 c-38 -20 -58 -86 -37 -122 8 -15 27 -31 43 -37 24 -8 31
-6 46 12 27 33 35 109 15 139 -18 28 -29 29 -67 8z m51 -99 c-7 -24 -16 -35
-28 -35 -50 0 -54 73 -6 100 29 17 30 16 37 -7 3 -13 2 -39 -3 -58z"/>
<path d="M5676 3793 c-3 -3 -6 -34 -6 -68 0 -81 15 -96 68 -69 l37 19 -37 3
-38 3 0 54 c0 51 -9 73 -24 58z"/>
<path d="M5828 3784 c-22 -7 -22 -8 -3 -72 18 -61 34 -65 105 -29 35 17 46 28
48 49 3 23 -2 30 -24 38 -34 13 -103 20 -126 14z m126 -44 c9 -9 -50 -50 -72
-50 -15 0 -35 47 -26 62 7 10 83 1 98 -12z"/>
<path d="M2305 3520 c-18 -35 -42 -38 -78 -10 -14 11 -30 20 -36 20 -12 0 -24
-57 -19 -89 5 -34 23 -30 26 7 4 37 1 36 51 16 22 -9 45 -14 52 -12 10 3 38
70 39 91 0 18 -21 4 -35 -23z"/>
<path d="M2422 3538 c-13 -13 -15 -49 -6 -97 6 -30 8 -31 60 -31 61 0 74 17
17 22 -47 4 -52 20 -11 37 l33 14 -33 6 c-39 7 -43 25 -7 29 31 4 33 18 3 26
-33 8 -43 7 -56 -6z"/>
<path d="M1864 3498 c8 -49 27 -92 41 -93 5 0 16 13 23 29 l14 28 30 -36 c16
-20 34 -36 39 -36 12 0 36 54 40 90 6 41 -15 33 -30 -11 l-14 -42 -33 39 -34
39 -19 -25 -19 -25 -7 30 c-11 49 -14 55 -26 55 -8 0 -9 -13 -5 -42z"/>
<path d="M6027 3533 c-4 -3 -7 -32 -7 -64 0 -73 22 -93 83 -79 64 14 59 26
-13 32 -44 4 -42 20 4 32 48 13 46 26 -4 26 -30 0 -40 4 -40 16 0 11 9 15 33
14 49 -3 54 -1 33 15 -20 15 -77 20 -89 8z"/>
<path d="M2084 3495 c12 -46 25 -75 36 -75 13 0 12 1 -1 56 -7 27 -17 44 -26
44 -11 0 -13 -7 -9 -25z"/>
<path d="M5894 3481 c-9 -23 -23 -41 -32 -41 -8 0 -37 14 -63 31 -27 17 -52
28 -57 25 -14 -9 -12 -108 2 -103 6 2 12 16 14 30 2 15 5 27 8 27 2 0 27 -12
54 -26 27 -14 54 -22 61 -19 20 13 52 96 40 108 -7 7 -15 -3 -27 -32z"/>
<path d="M5323 3485 c10 -52 37 -105 52 -105 8 0 22 15 31 32 l17 33 9 -25
c24 -64 69 -79 87 -29 15 45 14 79 -3 79 -10 0 -16 -13 -18 -37 -4 -46 -18
-49 -36 -8 -32 74 -42 78 -65 30 -19 -40 -32 -39 -42 4 -3 16 -14 36 -22 43
-15 12 -16 10 -10 -17z"/>
<path d="M5600 3466 c0 -39 19 -81 31 -69 7 7 7 23 -1 52 -12 45 -30 55 -30
17z"/>
<path d="M2175 3228 c-77 -6 -187 -10 -245 -9 -58 0 -114 -1 -126 -4 -15 -3
-39 -44 -92 -152 -134 -280 -185 -470 -186 -698 0 -132 2 -146 32 -238 48
-141 125 -252 258 -370 112 -99 113 -100 134 -227 12 -72 33 -625 25 -651 -9
-28 -138 -68 -255 -79 -134 -13 -190 -25 -200 -40 -6 -10 -61 -11 -251 -6
-148 5 -254 4 -269 -2 -42 -16 514 -25 820 -13 335 13 582 14 1200 5 261 -4
472 -3 468 1 -4 4 -213 11 -464 15 -362 7 -458 11 -465 22 -9 14 -122 26 -269
27 -177 2 -192 13 -201 156 -9 147 16 617 36 654 16 31 73 66 149 91 76 24
191 82 253 126 111 79 178 179 214 317 26 99 24 195 -7 335 -14 64 -32 144
-39 178 -7 33 -20 84 -28 112 -9 27 -13 53 -10 56 4 3 37 6 75 6 51 0 69 3 66
13 -3 7 -32 14 -79 17 l-74 5 -55 168 c-30 93 -62 172 -70 177 -27 15 -200 19
-345 8z m329 -43 c17 -17 82 -210 92 -275 l7 -41 -34 5 c-19 3 -79 8 -134 11
-54 4 -107 11 -116 16 -14 7 -22 3 -38 -17 -27 -34 -26 -50 3 -69 27 -18 53
-11 62 17 6 19 13 20 135 16 102 -2 132 -6 139 -18 5 -8 19 -58 31 -110 12
-52 34 -152 50 -221 16 -70 29 -153 29 -185 0 -135 -39 -262 -104 -344 -45
-57 -153 -140 -216 -167 -30 -13 -66 -29 -80 -37 -14 -7 -43 -19 -65 -26 -60
-19 -127 -55 -152 -82 -31 -33 -43 -115 -52 -360 -10 -275 -7 -416 8 -449 15
-30 60 -59 92 -59 12 0 20 -2 18 -4 -4 -5 -127 -11 -409 -20 l-125 -5 111 14
c113 15 212 44 239 71 18 18 18 34 5 374 -15 386 -32 470 -100 505 -17 9 -30
22 -30 30 0 8 -13 21 -29 29 -46 24 -155 150 -194 223 -19 37 -48 104 -63 148
-24 71 -27 94 -27 205 0 70 8 167 17 220 23 133 89 322 166 475 l65 130 143 1
c78 0 145 4 149 7 3 4 93 7 199 7 160 0 195 -3 208 -15z"/>
<path d="M1634 2175 c-22 -56 50 -196 152 -298 148 -148 239 -165 497 -93 177
50 251 103 337 246 65 108 71 104 -175 111 -116 4 -295 16 -398 28 -230 26
-405 28 -413 6z"/>
<path d="M5434 3212 c-27 -17 -85 -147 -118 -262 -32 -113 -43 -164 -61 -282
l-6 -37 -159 6 -159 6 6 -134 c9 -214 17 -294 28 -289 6 3 8 43 5 105 -3 55
-5 141 -5 190 l0 90 45 3 c25 2 86 1 136 -3 l91 -7 6 -126 c12 -256 82 -399
252 -516 33 -22 69 -46 79 -52 35 -19 57 -58 78 -140 23 -91 27 -214 17 -627
-5 -206 -10 -262 -21 -273 -13 -13 -64 -24 -308 -66 -56 -10 -76 -17 -78 -30
-6 -31 62 -37 448 -38 206 0 396 -3 422 -6 35 -5 54 -2 72 10 14 9 33 16 43
17 41 1 -103 32 -250 53 -171 25 -196 35 -231 95 -17 30 -19 59 -20 389 -1
356 -1 357 24 425 30 84 53 105 156 141 152 54 256 166 313 339 51 153 40 297
-48 589 -44 145 -139 381 -166 407 -11 12 -44 18 -118 22 -144 10 -460 10
-473 1z m470 -31 c106 -8 99 -1 169 -170 111 -271 172 -522 165 -680 -7 -147
-83 -298 -195 -382 -40 -31 -90 -56 -143 -74 -45 -15 -92 -37 -105 -49 -13
-11 -34 -50 -47 -86 -22 -63 -23 -76 -26 -442 -3 -425 -3 -427 67 -473 33 -23
60 -29 158 -40 65 -7 135 -16 156 -20 66 -13 48 -21 -26 -13 -40 4 -222 9
-404 10 -183 1 -331 3 -329 5 1 2 71 14 155 28 155 26 190 36 192 58 2 15 6
278 9 602 1 226 0 258 -19 327 -12 42 -18 83 -16 91 6 14 -28 41 -120 92 -27
16 -82 60 -120 99 -110 110 -154 237 -155 448 l0 76 85 7 c53 5 96 3 115 -3
55 -20 103 15 80 59 -16 29 -78 26 -89 -4 -9 -22 -15 -23 -95 -25 -48 0 -86 3
-86 9 0 26 33 222 46 274 21 84 74 225 96 258 l19 27 187 -1 c103 0 227 -4
276 -8z"/>
<path d="M5795 2367 c-99 -4 -249 -6 -333 -4 l-153 3 6 -36 c14 -80 40 -132
104 -202 94 -105 168 -164 241 -194 99 -40 162 -42 265 -9 116 37 174 89 240
217 43 86 47 98 43 151 -2 31 -9 61 -14 66 -14 13 -196 17 -399 8z"/>
<path d="M2948 2914 c-13 -13 -19 -14 -36 -3 -29 18 -32 11 -23 -46 7 -41 10
-46 16 -27 4 12 13 22 20 22 7 0 18 7 25 15 19 22 27 18 34 -16 7 -36 33 -35
28 1 -10 66 -32 85 -64 54z"/>
<path d="M3152 2917 c-11 -13 -5 -84 7 -91 4 -3 22 -1 40 3 35 7 56 31 27 31
-20 0 -21 19 -1 26 8 4 15 12 15 19 0 26 -69 35 -88 12z"/>
<path d="M3272 2918 c-17 -17 -15 -73 3 -88 18 -15 74 -4 82 16 9 23 -14 42
-45 37 l-27 -5 30 26 30 25 -30 1 c-17 0 -36 -5 -43 -12z m61 -65 c-7 -2 -19
-2 -25 0 -7 3 -2 5 12 5 14 0 19 -2 13 -5z"/>
<path d="M3056 2901 c-19 -21 -13 -47 14 -61 28 -15 50 -1 50 29 0 48 -34 65
-64 32z"/>
<path d="M3229 2736 c-2 -3 -42 -7 -89 -10 -99 -6 -131 -25 -92 -54 18 -14 20
-20 10 -30 -15 -15 -4 -27 17 -18 25 9 29 35 10 56 -10 11 -13 20 -7 20 18 0
42 -30 42 -54 0 -28 8 -36 25 -29 10 3 11 11 4 30 -14 38 -11 50 16 55 21 4
26 0 35 -28 12 -34 30 -46 30 -20 0 12 5 12 30 3 32 -12 47 -6 34 15 -5 7 -7
23 -6 34 2 15 -4 23 -20 28 -28 7 -33 7 -39 2z m21 -30 c0 -3 -4 -8 -10 -11
-5 -3 -10 -1 -10 4 0 6 5 11 10 11 6 0 10 -2 10 -4z"/>
<path d="M3815 2729 c-12 -18 2 -22 59 -15 77 10 81 26 7 26 -33 0 -63 -5 -66
-11z"/>
<path d="M2905 2679 c-22 -49 -24 -79 -4 -79 5 0 14 11 19 25 10 27 47 34 67
14 8 -8 13 -8 18 1 9 15 -41 90 -61 90 -8 0 -25 -22 -39 -51z"/>
<path d="M3324 2707 c-11 -30 10 -72 39 -75 23 -3 27 0 27 23 l0 26 30 -21
c34 -24 50 -19 50 16 0 25 -14 32 -25 13 -5 -7 -16 -3 -31 12 -29 27 -54 19
-55 -18 -2 -27 -2 -27 -6 -3 -6 34 -21 47 -29 27z"/>
<path d="M3502 2708 c-7 -7 -12 -27 -12 -45 0 -31 9 -40 35 -33 6 2 39 3 75 4
62 1 64 2 64 26 0 22 -4 25 -29 22 l-30 -3 25 20 c26 21 16 26 -27 15 -16 -5
-23 -14 -23 -31 0 -22 -2 -24 -15 -13 -12 10 -19 10 -27 2 -20 -20 -28 -13
-21 18 6 33 3 36 -15 18z"/>
<path d="M3696 2694 c-9 -23 -7 -64 3 -64 5 0 14 7 21 15 9 11 16 13 24 5 17
-17 32 -11 45 16 15 33 7 42 -20 25 -18 -10 -24 -10 -38 3 -22 20 -27 20 -35
0z"/>
<path d="M3840 2676 c0 -13 7 -29 15 -36 13 -11 15 -7 15 24 0 25 -4 36 -15
36 -9 0 -15 -9 -15 -24z"/>
<path d="M4220 2113 c-20 -26 -20 -28 -4 -40 10 -7 21 -13 26 -13 17 0 7 -18
-14 -24 l-23 -7 23 -9 c12 -5 29 -7 37 -4 23 9 18 53 -7 75 l-23 19 23 6 c27
8 29 24 3 24 -11 0 -29 -12 -41 -27z"/>
<path d="M4387 2125 c-4 -9 -19 -15 -37 -15 -26 0 -30 -4 -30 -26 0 -30 16
-64 32 -64 6 0 8 11 5 26 -4 20 1 27 21 35 22 9 29 6 43 -13 25 -32 35 -15 18
29 -16 40 -42 55 -52 28z"/>
<path d="M4630 2131 c-73 -6 -75 -7 -72 -31 4 -41 10 -50 36 -50 17 0 27 7 32
23 7 21 8 20 21 -10 21 -53 44 -42 24 10 -8 20 -6 27 5 31 31 12 44 6 44 -19
0 -31 28 -45 42 -21 9 17 11 17 29 0 27 -25 35 -9 16 31 -18 38 -31 44 -45 20
-7 -14 -11 -13 -27 5 -10 11 -21 19 -24 18 -3 -1 -40 -4 -81 -7z"/>
<path d="M4945 2130 c-5 -8 -2 -34 12 -82 5 -22 33 -24 33 -2 0 12 10 14 45
12 46 -3 63 13 23 23 -15 3 -22 12 -21 25 1 10 -4 22 -10 26 -17 11 -75 10
-82 -2z"/>
<path d="M4474 2116 c-3 -8 -4 -25 -2 -38 2 -18 9 -23 33 -23 26 0 30 4 33 29
2 16 -2 32 -10 37 -20 13 -48 11 -54 -5z m46 -20 c0 -3 -4 -8 -10 -11 -5 -3
-10 -1 -10 4 0 6 5 11 10 11 6 0 10 -2 10 -4z"/>
<path d="M4844 2115 c-16 -40 41 -114 67 -88 8 8 7 13 0 18 -8 4 -4 13 11 26
l23 20 -32 -4 c-34 -4 -45 9 -18 19 8 4 12 10 9 15 -9 15 -54 10 -60 -6z"/>
<path d="M5857 983 c-12 -19 -11 -77 1 -80 6 -3 12 2 12 11 0 10 8 16 21 16
18 0 49 21 49 33 0 5 -58 27 -71 27 -4 0 -10 -3 -12 -7z"/>
<path d="M1725 936 c-8 -19 -12 -42 -9 -51 7 -17 47 -30 63 -20 19 11 12 25
-11 25 -21 1 -20 2 7 17 l30 17 -30 6 c-20 3 -26 8 -17 13 17 11 15 27 -4 27
-8 0 -21 -15 -29 -34z"/>
<path d="M5967 932 c-23 -25 -21 -49 4 -57 34 -11 50 26 26 59 -12 16 -14 16
-30 -2z"/>
<path d="M6027 934 c-11 -12 -8 -59 5 -72 14 -14 54 -16 63 -3 3 5 -5 11 -17
13 -16 2 -24 11 -26 28 -4 29 -15 43 -25 34z"/>
<path d="M1643 910 c-4 -15 -10 -19 -22 -14 -9 4 -25 7 -36 8 -17 1 -19 -4
-17 -29 4 -34 13 -46 19 -27 3 6 15 12 28 12 38 0 55 11 55 35 0 32 -20 43
-27 15z"/>
<path d="M1495 899 c-10 -15 15 -69 31 -69 18 0 18 14 -1 50 -17 33 -21 35
-30 19z"/>
<path d="M6110 887 c0 -13 5 -28 12 -35 15 -15 58 -16 58 -2 0 6 -7 10 -15 10
-9 0 -20 11 -25 25 -12 31 -30 33 -30 2z"/>
<path d="M6200 885 c0 -6 6 -17 12 -23 7 -7 13 -20 13 -29 0 -30 21 -24 38 12
24 50 22 53 -23 51 -22 0 -40 -5 -40 -11z"/>
<path d="M1449 885 c-1 -6 0 -19 1 -30 1 -16 -1 -18 -11 -7 -18 17 -26 15 -34
-10 l-7 -23 -7 25 -8 25 -8 -28 c-10 -38 6 -55 37 -39 13 6 32 13 43 14 15 3
19 11 18 32 -2 28 -22 61 -24 41z"/>
<path d="M4605 759 c198 -10 608 -10 625 1 10 6 -118 9 -370 8 -285 -1 -351
-3 -255 -9z"/>
<path d="M6600 760 l-315 -5 270 -5 c341 -6 798 2 706 13 -35 4 -127 6 -205 5
-78 -2 -283 -5 -456 -8z"/>
<path d="M2609 610 c-13 -36 -16 -37 -53 -5 -16 14 -33 25 -38 25 -4 0 -8 -20
-8 -45 0 -32 4 -45 14 -45 8 0 16 5 18 12 3 9 12 8 38 0 19 -7 37 -9 41 -5 12
14 29 75 23 84 -10 17 -25 9 -35 -21z"/>
<path d="M2252 618 c-26 -33 -43 -81 -33 -91 7 -7 15 -6 25 3 10 8 28 10 51 6
42 -8 43 -1 8 53 -29 44 -35 48 -51 29z"/>
<path d="M2678 598 c-6 -39 0 -60 16 -55 14 5 14 79 0 84 -7 2 -14 -11 -16
-29z"/>
<path d="M5811 617 c-18 -23 -41 -96 -31 -102 5 -3 21 2 35 11 22 14 29 15 50
4 37 -20 41 -5 10 40 -38 54 -50 63 -64 47z"/>
<path d="M2097 609 c-21 -12 -13 -29 13 -29 14 0 20 -8 22 -32 4 -46 28 -49
28 -4 0 29 5 39 25 48 14 6 25 15 25 20 0 12 -91 9 -113 -3z"/>
<path d="M2354 606 c-7 -19 9 -76 21 -76 6 -1 11 11 13 24 l3 26 27 -25 c35
-33 46 -27 50 23 3 44 -15 60 -25 22 -3 -11 -9 -20 -13 -20 -4 0 -15 9 -25 20
-21 23 -43 26 -51 6z"/>
<path d="M2746 604 c-3 -9 -6 -30 -6 -47 l1 -32 19 23 19 23 40 -23 c46 -26
56 -21 66 35 6 29 4 37 -8 37 -8 0 -18 -11 -21 -25 -4 -14 -10 -25 -14 -25 -5
0 -19 11 -32 25 -27 28 -55 32 -64 9z"/>
<path d="M5047 613 c-9 -8 -9 -66 -1 -87 4 -10 18 -16 40 -16 36 0 46 16 17
27 -24 9 -33 23 -33 56 0 26 -9 34 -23 20z"/>
<path d="M5665 611 c-33 -7 -37 -24 -7 -29 10 -2 24 -18 31 -37 7 -19 16 -35
21 -35 16 0 20 18 10 45 -9 24 -7 27 25 41 19 8 35 16 35 19 0 7 -78 4 -115
-4z"/>
<path d="M6017 613 c-4 -3 -7 -15 -7 -25 0 -22 -23 -24 -40 -3 -7 8 -21 15
-32 15 -16 0 -19 -6 -16 -42 3 -42 28 -68 28 -29 0 25 2 25 41 6 37 -20 49
-13 49 28 0 35 -12 61 -23 50z"/>
<path d="M6086 607 c-23 -17 -18 -70 7 -75 15 -3 17 1 11 23 l-7 27 41 -21
c59 -30 78 -28 86 11 8 39 -8 59 -23 29 -15 -26 -31 -27 -64 -1 -30 24 -28 23
-51 7z"/>
<path d="M1847 603 c-2 -5 -2 -27 1 -50 5 -54 32 -80 69 -67 39 14 41 34 3 34
-18 0 -29 4 -25 10 3 6 15 10 26 10 30 0 22 18 -11 25 -17 4 -27 11 -24 16 3
6 12 8 20 5 8 -3 14 1 14 9 0 10 -11 15 -34 15 -19 0 -37 -3 -39 -7z"/>
<path d="M5289 589 c-24 -24 -21 -43 10 -47 17 -3 20 -7 11 -17 -18 -22 8 -30
31 -9 25 23 24 40 -3 47 -17 5 -19 9 -10 20 12 14 7 27 -10 27 -4 0 -17 -9
-29 -21z"/>
<path d="M5379 594 c-11 -14 -10 -19 10 -35 12 -10 20 -23 16 -29 -13 -21 7
-32 26 -14 24 22 24 41 -1 56 -11 7 -20 18 -20 25 0 18 -15 16 -31 -3z"/>
<path d="M6250 587 c0 -32 9 -57 21 -57 15 0 10 57 -6 70 -13 11 -15 8 -15
-13z"/>
<path d="M6327 603 c-15 -14 -4 -83 13 -83 4 0 10 10 13 21 l6 21 36 -22 c44
-27 68 -14 63 33 -4 38 -28 49 -28 13 0 -32 -6 -32 -52 -1 -41 28 -42 28 -51
18z"/>
<path d="M1457 578 c-12 -19 -18 -21 -28 -10 -7 6 -21 12 -32 12 -15 0 -18 -7
-15 -47 2 -28 7 -46 13 -43 6 3 10 13 9 22 0 13 5 16 21 12 13 -3 27 1 34 10
18 22 31 20 31 -3 0 -23 18 -37 31 -24 12 12 -20 93 -36 93 -7 0 -19 -10 -28
-22z"/>
<path d="M1572 584 c-39 -27 -23 -84 24 -84 30 0 48 24 40 55 -9 35 -37 48
-64 29z m38 -40 c0 -16 -16 -19 -25 -4 -8 13 4 32 16 25 5 -4 9 -13 9 -21z"/>
<path d="M1683 585 c-6 -17 2 -84 12 -93 3 -4 14 -1 24 5 9 6 28 9 42 6 13 -2
33 3 44 11 19 15 18 15 -17 16 -40 0 -47 10 -23 30 8 7 15 19 15 26 0 21 -89
19 -97 -1z"/>
<path d="M5146 587 c-16 -12 -17 -17 -6 -38 17 -31 29 -39 62 -39 17 0 31 7
38 20 16 30 3 43 -39 37 -34 -4 -35 -4 -8 6 15 6 27 14 27 19 0 13 -55 9 -74
-5z m69 -47 c3 -5 2 -10 -4 -10 -5 0 -13 5 -16 10 -3 6 -2 10 4 10 5 0 13 -4
16 -10z"/>
<path d="M2654 385 c-15 -23 -15 -27 0 -50 19 -28 20 -29 48 -14 15 8 18 17
13 37 -7 30 -23 52 -36 52 -5 0 -16 -11 -25 -25z"/>
<path d="M2747 403 c-12 -12 -7 -59 8 -79 15 -19 16 -19 31 4 20 28 32 28 61
0 18 -17 26 -19 35 -10 9 9 7 17 -9 34 -11 13 -23 31 -26 41 -5 13 -17 17 -50
17 -24 0 -47 -3 -50 -7z m53 -23 c0 -5 -8 -10 -17 -10 -15 0 -16 2 -3 10 19
12 20 12 20 0z"/>
<path d="M4975 390 c-4 -6 -4 -33 0 -61 l7 -50 46 3 c52 3 72 28 23 28 -32 0
-51 22 -51 59 0 23 -16 36 -25 21z"/>
<path d="M6367 393 c-13 -3 -16 -12 -13 -40 7 -50 18 -57 50 -32 l28 22 44
-23 c24 -13 46 -21 50 -17 4 4 -13 27 -38 52 -46 45 -68 52 -121 38z m43 -33
c0 -5 -4 -10 -10 -10 -5 0 -10 5 -10 10 0 6 5 10 10 10 6 0 10 -4 10 -10z"/>
<path d="M2341 371 c-22 -22 -24 -30 -15 -55 8 -21 67 -21 85 0 10 13 10 20
-3 42 -21 35 -42 38 -67 13z m44 -31 c3 -5 -1 -10 -9 -10 -9 0 -16 5 -16 10 0
6 4 10 9 10 6 0 13 -4 16 -10z"/>
<path d="M2470 371 c0 -36 19 -71 38 -71 28 0 82 21 82 31 0 5 -18 9 -40 9
-34 0 -41 4 -46 25 -7 29 -34 34 -34 6z"/>
<path d="M5137 348 c-5 -51 6 -66 53 -70 31 -3 35 0 38 22 2 20 -4 28 -30 39
l-33 14 29 6 c49 10 44 31 -7 31 l-45 0 -5 -42z"/>
<path d="M5299 374 c-11 -14 -9 -20 15 -40 22 -19 25 -28 16 -38 -13 -17 1
-29 23 -20 29 11 30 38 3 61 -16 13 -23 28 -20 37 8 21 -19 21 -37 0z"/>
<path d="M5422 378 c-22 -22 -14 -48 18 -55 24 -4 29 -10 25 -23 -8 -25 10
-34 29 -14 24 24 19 44 -14 56 -24 8 -29 15 -25 29 7 22 -14 26 -33 7z"/>
<path d="M2233 354 c-12 -19 -14 -30 -6 -43 14 -22 57 -26 73 -7 11 14 9 16
-14 16 -29 0 -33 11 -11 30 21 17 19 30 -5 30 -11 0 -27 -12 -37 -26z"/>
<path d="M5786 361 c-22 -24 -17 -54 8 -59 14 -3 17 0 11 18 -4 14 -1 28 11
41 14 16 15 19 2 19 -8 0 -23 -9 -32 -19z"/>
<path d="M5895 356 c-19 -29 -10 -54 23 -63 31 -7 56 7 60 36 8 50 -55 70 -83
27z m55 -21 c0 -8 -6 -15 -14 -15 -17 0 -28 14 -19 24 12 12 33 6 33 -9z"/>
<path d="M6050 356 c0 -42 11 -56 42 -56 34 0 68 16 68 31 0 7 -13 9 -35 5
-31 -6 -35 -4 -41 19 -8 32 -34 33 -34 1z"/>
<path d="M6237 373 c-12 -12 -7 -50 7 -62 22 -18 70 -10 74 12 7 36 -56 75
-81 50z m50 -39 c-3 -3 -12 -4 -19 -1 -8 3 -5 6 6 6 11 1 17 -2 13 -5z"/>
<path d="M1310 321 c0 -51 17 -79 26 -44 4 14 12 19 28 16 13 -3 29 3 40 16
25 28 40 26 60 -4 9 -14 21 -25 26 -25 18 0 10 39 -14 67 -25 29 -37 27 -88
-9 -14 -10 -21 -9 -41 10 -13 12 -26 22 -30 22 -4 0 -7 -22 -7 -49z"/>
<path d="M1694 356 c-7 -19 10 -79 24 -84 8 -2 12 9 12 32 0 32 3 36 26 36 14
0 23 -4 19 -10 -3 -5 -13 -10 -21 -10 -22 0 -17 -18 10 -35 26 -17 75 -17 78
0 1 6 -11 13 -28 16 -24 5 -26 7 -11 13 23 11 22 33 -2 46 -29 15 -101 13
-107 -4z"/>
<path d="M1930 361 c-26 -7 -29 -27 -9 -78 7 -18 16 -23 47 -23 21 0 47 7 58
15 18 13 16 14 -26 16 -30 1 -36 3 -17 6 38 6 34 21 -10 29 -34 6 -35 8 -14
15 12 5 19 13 16 19 -7 11 -9 11 -45 1z"/>
<path d="M1573 347 c-45 -20 -36 -77 12 -77 30 0 49 24 41 54 -7 29 -24 36
-53 23z m27 -37 c0 -5 -4 -10 -10 -10 -5 0 -10 5 -10 10 0 6 5 10 10 10 6 0
10 -4 10 -10z"/>
</g>
</svg>
