<?xml version="1.0" standalone="no"?>
<!DOCTYPE svg PUBLIC "-//W3C//DTD SVG 20010904//EN"
 "http://www.w3.org/TR/2001/REC-SVG-20010904/DTD/svg10.dtd">
<svg version="1.0" xmlns="http://www.w3.org/2000/svg"
 width="394.000000pt" height="291.000000pt" viewBox="0 0 394.000000 291.000000"
 preserveAspectRatio="xMidYMid meet">

<g transform="translate(0.000000,291.000000) scale(0.100000,-0.100000)"
fill="#000000" stroke="none">
<path d="M2022 2470 c-44 -18 -49 -97 -7 -114 53 -20 95 6 95 58 0 48 -41 74
-88 56z"/>
<path d="M1331 2455 c1 -19 18 -51 18 -35 0 8 -4 22 -9 30 -5 8 -9 11 -9 5z"/>
<path d="M2230 2441 c0 -6 5 -13 10 -16 17 -11 11 -35 -9 -35 -10 0 -22 -8
-26 -17 -5 -15 -4 -16 6 -5 16 15 49 16 49 0 0 -6 3 -9 6 -6 8 8 -17 88 -28
88 -4 0 -8 -4 -8 -9z"/>
<path d="M2291 2413 c-1 -23 3 -44 7 -47 4 -2 6 12 4 32 -5 56 -10 62 -11 15z"/>
<path d="M2463 2405 c0 -27 2 -38 4 -22 2 15 2 37 0 50 -2 12 -4 0 -4 -28z"/>
<path d="M2601 2413 c-1 -23 3 -44 7 -47 4 -2 6 12 4 32 -5 56 -10 62 -11 15z"/>
<path d="M2662 2408 c-2 -46 -1 -48 26 -47 22 1 23 2 5 6 -18 3 -23 13 -26 46
l-4 42 -1 -47z"/>
<path d="M2921 2413 c-1 -23 3 -44 7 -47 4 -2 6 12 4 32 -5 56 -10 62 -11 15z"/>
<path d="M1291 2424 c0 -11 3 -14 6 -6 3 7 2 16 -1 19 -3 4 -6 -2 -5 -13z"/>
<path d="M1413 2405 c0 -22 2 -30 4 -17 2 12 2 30 0 40 -3 9 -5 -1 -4 -23z"/>
<path d="M1467 2433 c6 -4 13 -22 16 -38 4 -27 5 -27 3 4 0 21 -7 36 -16 38
-10 3 -11 2 -3 -4z"/>
<path d="M1515 2430 c-3 -6 1 -7 9 -4 18 7 21 14 7 14 -6 0 -13 -4 -16 -10z"/>
<path d="M1371 2414 c0 -11 3 -14 6 -6 3 7 2 16 -1 19 -3 4 -6 -2 -5 -13z"/>
<path d="M1442 2400 c0 -19 2 -27 5 -17 2 9 2 25 0 35 -3 9 -5 1 -5 -18z"/>
<path d="M2340 2426 c0 -2 7 -7 16 -10 8 -3 12 -2 9 4 -6 10 -25 14 -25 6z"/>
<path d="M2392 2418 c-16 -16 -15 -33 4 -48 22 -19 54 12 38 37 -14 22 -27 26
-42 11z m35 -14 c8 -21 -13 -42 -28 -27 -13 13 -5 43 11 43 6 0 13 -7 17 -16z"/>
<path d="M2487 2423 c6 -4 13 -22 16 -38 4 -27 5 -27 3 4 0 21 -7 36 -16 38
-10 3 -11 2 -3 -4z"/>
<path d="M2532 2418 c-16 -16 -15 -33 4 -48 22 -19 54 12 38 37 -14 22 -27 26
-42 11z m35 -14 c8 -21 -13 -42 -28 -27 -13 13 -5 43 11 43 6 0 13 -7 17 -16z"/>
<path d="M2735 2420 c-3 -6 1 -7 9 -4 18 7 21 14 7 14 -6 0 -13 -4 -16 -10z"/>
<path d="M1528 2413 c-16 -2 -28 -8 -28 -12 0 -10 22 -31 34 -31 5 0 1 7 -10
15 -18 14 -18 14 9 15 15 0 27 5 27 10 0 6 -1 9 -2 9 -2 -1 -15 -4 -30 -6z"/>
<path d="M2890 2409 c0 -6 -9 -9 -20 -6 -16 4 -20 0 -19 -16 0 -12 3 -16 6 -9
2 6 13 12 24 12 10 0 19 7 19 15 0 8 -2 15 -5 15 -3 0 -5 -5 -5 -11z"/>
<path d="M2322 2390 c0 -14 2 -19 5 -12 2 6 2 18 0 25 -3 6 -5 1 -5 -13z"/>
<path d="M2748 2403 c-16 -2 -28 -8 -28 -12 0 -10 22 -31 34 -31 5 0 1 7 -10
15 -18 14 -18 14 9 15 15 0 27 5 27 10 0 6 -1 9 -2 9 -2 -1 -15 -4 -30 -6z"/>
<path d="M1300 2391 c0 -5 5 -13 10 -16 6 -3 10 -2 10 4 0 5 -4 13 -10 16 -5
3 -10 2 -10 -4z"/>
<path d="M1350 2391 c0 -5 5 -13 10 -16 6 -3 10 -2 10 4 0 5 -4 13 -10 16 -5
3 -10 2 -10 -4z"/>
<path d="M2350 2370 c-9 -6 -10 -10 -3 -10 6 0 15 5 18 10 8 12 4 12 -15 0z"/>
<path d="M2800 2370 c0 -5 5 -10 10 -10 6 0 10 5 10 10 0 6 -4 10 -10 10 -5 0
-10 -4 -10 -10z"/>
<path d="M2880 2370 c-9 -6 -10 -10 -3 -10 6 0 15 5 18 10 8 12 4 12 -15 0z"/>
<path d="M3320 1283 c0 -18 87 -93 130 -112 55 -25 148 -27 213 -5 45 15 157
107 145 119 -3 3 -63 1 -132 -5 -117 -10 -153 -9 -303 6 -29 3 -53 2 -53 -3z"/>
<path d="M1897 1218 c9 -10 38 -29 66 -43 89 -44 219 -30 295 33 l33 27 -205
0 c-193 0 -204 -1 -189 -17z"/>
<path d="M607 1168 c50 -23 156 -23 206 0 l39 17 -142 0 -142 0 39 -17z"/>
<path d="M480 1063 l-65 -68 68 65 c62 60 72 70 64 70 -1 0 -32 -30 -67 -67z"/>
<path d="M1840 1063 l-65 -68 68 65 c62 60 72 70 64 70 -1 0 -32 -30 -67 -67z"/>
<path d="M3360 1085 c-24 -25 -42 -45 -39 -45 3 0 25 20 49 45 24 25 42 45 39
45 -3 0 -25 -20 -49 -45z"/>
<path d="M263 1004 c-8 -21 13 -42 28 -27 13 13 5 43 -11 43 -6 0 -13 -7 -17
-16z m27 -9 c0 -8 -4 -15 -10 -15 -5 0 -10 7 -10 15 0 8 5 15 10 15 6 0 10 -7
10 -15z"/>
<path d="M1633 1004 c-8 -21 13 -42 28 -27 13 13 5 43 -11 43 -6 0 -13 -7 -17
-16z m27 -9 c0 -8 -4 -15 -10 -15 -5 0 -10 7 -10 15 0 8 5 15 10 15 6 0 10 -7
10 -15z"/>
<path d="M3143 1004 c-8 -21 13 -42 28 -27 13 13 5 43 -11 43 -6 0 -13 -7 -17
-16z m27 -9 c0 -8 -4 -15 -10 -15 -5 0 -10 7 -10 15 0 8 5 15 10 15 6 0 10 -7
10 -15z"/>
<path d="M114 999 c-5 -8 -3 -9 6 -4 7 4 16 2 22 -6 8 -12 9 -12 6 0 -6 20
-24 25 -34 10z"/>
<path d="M1245 1000 c-3 -6 1 -7 9 -4 21 8 20 -14 -1 -38 -15 -17 -15 -18 8
-17 13 0 18 3 11 6 -10 4 -10 8 -1 19 12 15 6 44 -10 44 -5 0 -13 -4 -16 -10z"/>
<path d="M1484 999 c-5 -8 -3 -9 6 -4 7 4 16 2 22 -6 8 -12 9 -12 6 0 -6 20
-24 25 -34 10z"/>
<path d="M2994 999 c-5 -8 -3 -9 6 -4 7 4 16 2 22 -6 8 -12 9 -12 6 0 -6 20
-24 25 -34 10z"/>
<path d="M19 983 c-13 -16 -12 -17 4 -4 16 13 21 21 13 21 -2 0 -10 -8 -17
-17z"/>
<path d="M66 992 c7 -4 14 -18 17 -32 4 -21 4 -20 6 8 1 24 -3 32 -16 32 -12
0 -14 -3 -7 -8z"/>
<path d="M210 980 c0 -11 7 -20 15 -20 21 0 19 -28 -2 -33 -17 -4 -17 -5 0 -6
26 -2 34 29 11 46 -16 12 -17 15 -4 23 13 8 12 10 -2 10 -11 0 -18 -8 -18 -20z"/>
<path d="M1196 992 c7 -4 14 -18 17 -32 4 -21 4 -20 6 8 1 24 -3 32 -16 32
-12 0 -14 -3 -7 -8z"/>
<path d="M1340 980 c0 -13 7 -20 19 -20 11 0 22 -6 24 -12 4 -10 6 -10 6 0 1
8 -8 16 -19 19 -25 7 -26 20 -2 26 13 4 11 5 -5 6 -17 1 -23 -5 -23 -19z"/>
<path d="M1436 992 c7 -4 14 -18 17 -32 4 -21 4 -20 6 8 1 24 -3 32 -16 32
-12 0 -14 -3 -7 -8z"/>
<path d="M1580 980 c0 -11 7 -20 15 -20 21 0 19 -28 -2 -33 -17 -4 -17 -5 0
-6 26 -2 34 29 11 46 -16 12 -17 15 -4 23 13 8 12 10 -2 10 -11 0 -18 -8 -18
-20z"/>
<path d="M2900 996 c0 -2 8 -10 18 -17 15 -13 16 -12 3 4 -13 16 -21 21 -21
13z"/>
<path d="M2946 992 c7 -4 14 -18 17 -32 4 -21 4 -20 6 8 1 24 -3 32 -16 32
-12 0 -14 -3 -7 -8z"/>
<path d="M3090 980 c0 -11 7 -20 15 -20 21 0 19 -28 -2 -33 -17 -4 -17 -5 0
-6 26 -2 34 29 11 46 -16 12 -17 15 -4 23 13 8 12 10 -2 10 -11 0 -18 -8 -18
-20z"/>
<path d="M323 974 c-8 -21 13 -42 28 -27 13 13 5 43 -11 43 -6 0 -13 -7 -17
-16z m27 -9 c0 -8 -4 -15 -10 -15 -5 0 -10 7 -10 15 0 8 5 15 10 15 6 0 10 -7
10 -15z"/>
<path d="M1703 974 c-8 -21 13 -42 28 -27 13 13 5 43 -11 43 -6 0 -13 -7 -17
-16z m27 -9 c0 -8 -4 -15 -10 -15 -5 0 -10 7 -10 15 0 8 5 15 10 15 6 0 10 -7
10 -15z"/>
<path d="M3203 974 c-8 -21 13 -42 28 -27 13 13 5 43 -11 43 -6 0 -13 -7 -17
-16z m27 -9 c0 -8 -4 -15 -10 -15 -5 0 -10 7 -10 15 0 8 5 15 10 15 6 0 10 -7
10 -15z"/>
<path d="M1398 973 c7 -3 16 -2 19 1 4 3 -2 6 -13 5 -11 0 -14 -3 -6 -6z"/>
<path d="M120 955 c-10 -13 -9 -15 11 -14 13 0 18 3 11 6 -6 2 -10 9 -6 14 9
15 -2 10 -16 -6z"/>
<path d="M1500 963 c5 -2 10 -11 10 -18 0 -7 -5 -16 -10 -18 -6 -3 -5 -4 2 -3
7 2 13 11 13 21 0 10 -6 19 -13 21 -7 1 -8 0 -2 -3z"/>
<path d="M3010 963 c5 -2 10 -12 10 -20 0 -11 -6 -14 -21 -10 -16 4 -19 3 -11
-5 6 -6 18 -8 27 -4 19 7 17 38 -3 42 -7 1 -8 0 -2 -3z"/>
<path d="M18 943 c6 -2 18 -2 25 0 6 3 1 5 -13 5 -14 0 -19 -2 -12 -5z"/>
<path d="M2898 943 c6 -2 18 -2 25 0 6 3 1 5 -13 5 -14 0 -19 -2 -12 -5z"/>
<path d="M346 122 c-3 -6 -1 -14 5 -17 15 -10 25 3 12 16 -7 7 -13 7 -17 1z"/>
<path d="M915 119 c-10 -15 3 -25 16 -12 7 7 7 13 1 17 -6 3 -14 1 -17 -5z"/>
<path d="M1886 122 c-3 -6 -1 -14 5 -17 15 -10 25 3 12 16 -7 7 -13 7 -17 1z"/>
<path d="M2435 119 c-10 -15 3 -25 16 -12 7 7 7 13 1 17 -6 3 -14 1 -17 -5z"/>
<path d="M3755 119 c-10 -15 3 -25 16 -12 7 7 7 13 1 17 -6 3 -14 1 -17 -5z"/>
<path d="M460 75 c0 -32 4 -45 14 -45 8 0 17 10 19 23 l4 22 2 -22 c2 -36 31
-29 31 7 0 23 -4 30 -20 30 -11 0 -20 7 -20 15 0 8 -7 15 -15 15 -11 0 -15
-12 -15 -45z"/>
<path d="M660 76 c0 -44 0 -44 33 -43 27 2 32 6 35 30 3 25 -5 32 -30 28 -5 0
-8 6 -8 14 0 8 -7 15 -15 15 -11 0 -15 -12 -15 -44z m37 -18 c-3 -8 -6 -5 -6
6 -1 11 2 17 5 13 3 -3 4 -12 1 -19z"/>
<path d="M870 106 c0 -8 -10 -16 -22 -18 -17 -2 -23 -10 -23 -28 0 -21 5 -25
33 -27 32 -1 32 -1 32 43 0 24 -4 44 -10 44 -5 0 -10 -6 -10 -14z m0 -47 c0
-5 -4 -9 -10 -9 -5 0 -10 7 -10 16 0 8 5 12 10 9 6 -3 10 -10 10 -16z"/>
<path d="M1070 106 c0 -8 -10 -16 -22 -18 -17 -2 -23 -10 -23 -28 0 -21 5 -25
33 -27 32 -1 32 -1 32 43 0 24 -4 44 -10 44 -5 0 -10 -6 -10 -14z m0 -47 c0
-5 -4 -9 -10 -9 -5 0 -10 7 -10 16 0 8 5 12 10 9 6 -3 10 -10 10 -16z"/>
<path d="M1840 105 c0 -8 -9 -15 -21 -15 -16 0 -20 -5 -17 -27 2 -23 8 -28 36
-30 32 -3 32 -2 32 42 0 33 -4 45 -15 45 -8 0 -15 -7 -15 -15z m-4 -52 c-10
-10 -19 5 -10 18 6 11 8 11 12 0 2 -7 1 -15 -2 -18z"/>
<path d="M2180 76 c0 -44 0 -44 33 -43 27 2 32 6 35 30 3 22 -1 27 -17 27 -12
0 -21 7 -21 15 0 8 -7 15 -15 15 -11 0 -15 -12 -15 -44z m50 -17 c0 -5 -4 -9
-10 -9 -5 0 -10 7 -10 16 0 8 5 12 10 9 6 -3 10 -10 10 -16z"/>
<path d="M2390 105 c0 -8 -9 -15 -19 -15 -10 0 -21 -7 -25 -15 -10 -26 4 -44
35 -43 27 1 29 3 29 45 0 23 -4 43 -10 43 -5 0 -10 -7 -10 -15z m0 -45 c0 -5
-4 -10 -10 -10 -5 0 -10 5 -10 10 0 6 5 10 10 10 6 0 10 -4 10 -10z"/>
<path d="M2590 105 c0 -8 -9 -15 -19 -15 -10 0 -21 -7 -25 -15 -10 -26 4 -44
35 -43 27 1 29 3 29 45 0 23 -4 43 -10 43 -5 0 -10 -7 -10 -15z m0 -45 c0 -5
-4 -10 -10 -10 -5 0 -10 5 -10 10 0 6 5 10 10 10 6 0 10 -4 10 -10z"/>
<path d="M3350 81 c0 -38 11 -58 28 -47 4 2 6 23 4 45 -5 56 -32 57 -32 2z"/>
<path d="M3400 75 c0 -35 4 -45 16 -45 11 0 14 5 10 16 -3 9 -6 29 -6 45 0 16
-4 29 -10 29 -5 0 -10 -20 -10 -45z"/>
<path d="M3500 76 c0 -44 0 -44 33 -43 27 2 32 6 35 30 3 25 -5 32 -30 28 -5
0 -8 6 -8 14 0 8 -7 15 -15 15 -11 0 -15 -12 -15 -44z m37 -18 c-3 -8 -6 -5
-6 6 -1 11 2 17 5 13 3 -3 4 -12 1 -19z"/>
<path d="M3710 106 c0 -8 -10 -16 -22 -18 -17 -2 -23 -10 -23 -28 0 -21 5 -25
33 -27 32 -1 32 -1 32 43 0 24 -4 44 -10 44 -5 0 -10 -6 -10 -14z m0 -47 c0
-5 -4 -9 -10 -9 -5 0 -10 7 -10 16 0 8 5 12 10 9 6 -3 10 -10 10 -16z"/>
<path d="M3910 106 c0 -8 -10 -16 -22 -18 -17 -2 -23 -10 -23 -28 0 -21 5 -25
33 -27 32 -1 32 -1 32 43 0 24 -4 44 -10 44 -5 0 -10 -6 -10 -14z m0 -47 c0
-5 -4 -9 -10 -9 -5 0 -10 7 -10 16 0 8 5 12 10 9 6 -3 10 -10 10 -16z"/>
<path d="M270 70 c0 -38 2 -40 30 -40 17 0 30 5 30 10 0 6 -7 10 -15 10 -10 0
-15 10 -15 30 0 20 -5 30 -15 30 -11 0 -15 -11 -15 -40z"/>
<path d="M547 97 c-10 -26 5 -67 24 -67 11 0 19 5 19 10 0 6 -4 10 -10 10 -5
0 -10 7 -10 15 0 8 5 15 11 15 6 0 4 7 -5 15 -18 18 -22 19 -29 2z"/>
<path d="M1620 70 c0 -28 4 -40 14 -40 8 0 16 8 18 17 3 16 4 16 20 0 27 -27
38 -20 38 23 0 42 -20 55 -38 24 -8 -15 -10 -15 -15 0 -4 9 -13 16 -22 16 -11
0 -15 -11 -15 -40z"/>
<path d="M3200 70 c0 -42 11 -50 36 -26 17 18 18 33 2 39 -8 3 -6 6 5 6 30 2
18 21 -13 21 -28 0 -30 -2 -30 -40z"/>
<path d="M400 90 c-6 -4 -11 -24 -13 -46 -2 -36 0 -39 26 -42 31 -4 46 20 28
42 -8 10 -9 16 -1 21 18 11 11 34 -10 32 -12 -1 -25 -4 -30 -7z"/>
<path d="M754 85 c-15 -11 -17 -17 -8 -32 16 -26 58 -24 62 4 4 30 -29 47 -54
28z m23 -27 c-3 -8 -6 -5 -6 6 -1 11 2 17 5 13 3 -3 4 -12 1 -19z"/>
<path d="M3594 85 c-15 -11 -17 -17 -8 -32 16 -26 58 -24 62 4 4 30 -29 47
-54 28z m23 -27 c-3 -8 -6 -5 -6 6 -1 11 2 17 5 13 3 -3 4 -12 1 -19z"/>
<path d="M340 60 c0 -20 5 -30 15 -30 10 0 15 10 15 30 0 20 -5 30 -15 30 -10
0 -15 -10 -15 -30z"/>
<path d="M910 60 c0 -20 5 -30 15 -30 10 0 15 10 15 30 0 20 -5 30 -15 30 -10
0 -15 -10 -15 -30z"/>
<path d="M954 75 c-9 -23 3 -45 25 -45 26 0 36 17 14 23 -17 4 -17 5 0 6 9 0
17 8 17 16 0 20 -49 20 -56 0z"/>
<path d="M1726 74 c-8 -21 11 -44 35 -44 24 0 25 17 2 23 -14 4 -13 5 4 6 16
1 21 6 17 16 -8 20 -50 19 -58 -1z"/>
<path d="M1880 60 c0 -20 5 -30 15 -30 10 0 15 10 15 30 0 20 -5 30 -15 30
-10 0 -15 -10 -15 -30z"/>
<path d="M1930 61 c0 -26 3 -30 30 -29 26 1 30 5 30 30 0 15 -4 28 -10 28 -5
0 -10 -9 -10 -20 0 -11 -4 -20 -10 -20 -5 0 -10 9 -10 20 0 11 -4 20 -10 20
-5 0 -10 -13 -10 -29z"/>
<path d="M2010 60 c0 -36 26 -42 33 -7 l4 22 2 -22 c0 -13 5 -23 10 -23 5 0
12 10 14 23 l4 22 2 -22 c2 -36 31 -29 31 7 0 29 -1 30 -50 30 -49 0 -50 -1
-50 -30z"/>
<path d="M2266 74 c-9 -22 12 -46 38 -42 15 2 21 10 21 28 0 20 -6 26 -26 28
-18 2 -29 -3 -33 -14z m44 -15 c0 -5 -4 -9 -10 -9 -5 0 -10 7 -10 16 0 8 5 12
10 9 6 -3 10 -10 10 -16z"/>
<path d="M2430 60 c0 -20 5 -30 15 -30 10 0 15 10 15 30 0 20 -5 30 -15 30
-10 0 -15 -10 -15 -30z"/>
<path d="M2475 80 c-11 -18 6 -50 25 -50 25 0 35 17 13 23 -17 4 -17 5 0 6 9
0 17 8 17 16 0 17 -45 21 -55 5z"/>
<path d="M3272 63 c2 -23 8 -29 36 -31 30 -3 32 -1 32 27 0 37 -26 43 -33 9
l-4 -23 -2 23 c0 13 -7 22 -17 22 -11 0 -14 -8 -12 -27z"/>
<path d="M3750 60 c0 -20 5 -30 15 -30 10 0 15 10 15 30 0 20 -5 30 -15 30
-10 0 -15 -10 -15 -30z"/>
<path d="M3794 75 c-9 -23 3 -45 25 -45 26 0 36 17 14 23 -17 4 -17 5 0 6 9 0
17 8 17 16 0 20 -49 20 -56 0z"/>
<path d="M610 70 c0 -5 7 -10 15 -10 8 0 15 5 15 10 0 6 -7 10 -15 10 -8 0
-15 -4 -15 -10z"/>
<path d="M2130 70 c0 -5 7 -10 15 -10 8 0 15 5 15 10 0 6 -7 10 -15 10 -8 0
-15 -4 -15 -10z"/>
<path d="M3450 70 c0 -5 7 -10 15 -10 8 0 15 5 15 10 0 6 -7 10 -15 10 -8 0
-15 -4 -15 -10z"/>
</g>
</svg>
