<?xml version="1.0" standalone="no"?>
<!DOCTYPE svg PUBLIC "-//W3C//DTD SVG 20010904//EN"
 "http://www.w3.org/TR/2001/REC-SVG-20010904/DTD/svg10.dtd">
<svg version="1.0" xmlns="http://www.w3.org/2000/svg"
 width="275.000000pt" height="183.000000pt" viewBox="0 0 275.000000 183.000000"
 preserveAspectRatio="xMidYMid meet">

<g transform="translate(0.000000,183.000000) scale(0.100000,-0.100000)"
fill="#000000" stroke="none">
<path d="M0 1778 l0 -53 25 44 c31 54 31 61 0 61 -24 0 -25 -3 -25 -52z"/>
<path d="M1863 1774 c-34 -7 -80 -22 -101 -33 -39 -20 -92 -73 -92 -93 0 -6
-16 -32 -35 -58 -50 -68 -76 -135 -82 -215 -7 -75 -2 -68 -106 -163 -59 -54
-62 -84 -12 -113 40 -24 41 -29 20 -69 -15 -28 -11 -60 6 -60 5 0 9 -4 9 -10
0 -6 -87 -10 -241 -10 -262 0 -266 1 -274 57 -2 16 -6 51 -10 78 -3 28 -9 58
-11 67 -10 33 9 90 44 136 29 40 30 43 7 22 -53 -49 -121 -203 -93 -212 7 -3
6 -12 -3 -25 -9 -16 -10 -25 -2 -35 6 -7 18 -31 27 -52 16 -39 16 -39 -3 -22
-10 9 -21 13 -22 7 -2 -5 -21 -17 -41 -25 -28 -12 -39 -13 -44 -4 -4 7 -2 14
5 16 7 2 -7 13 -31 24 -42 19 -45 19 -93 2 -27 -9 -56 -22 -63 -27 -16 -12
-139 -78 -199 -106 -24 -11 -43 -27 -43 -36 0 -9 -9 -15 -21 -15 -16 0 -19 -3
-12 -12 19 -24 22 -45 7 -45 -9 0 -13 6 -10 14 3 8 2 12 -3 9 -9 -6 -26 22
-23 36 1 4 -5 5 -13 2 -8 -4 -15 -1 -15 6 0 7 -12 24 -26 37 l-27 25 7 -42 c3
-23 13 -56 20 -73 l14 -32 7 33 c9 39 28 29 45 -24 14 -43 7 -53 -20 -29 -32
29 -34 10 -4 -44 46 -85 55 -85 50 0 -2 41 -1 61 3 44 7 -29 7 -29 15 -7 9 27
66 72 91 72 10 0 26 7 36 16 16 14 18 10 38 -54 11 -38 31 -84 44 -103 22 -33
24 -47 31 -235 3 -109 9 -243 13 -296 l6 -98 1039 0 1039 0 -6 20 c-6 18 -3
20 19 14 19 -4 26 -2 26 9 0 8 -7 17 -15 21 -18 7 -20 27 -2 24 9 -2 13 132
15 639 l2 641 -37 23 c-25 16 -57 25 -100 27 -45 3 -63 8 -63 18 0 8 -9 19
-20 26 -11 7 -20 22 -20 32 0 38 -43 107 -87 141 -62 48 -237 131 -301 144
-70 14 -182 12 -259 -5z m703 -461 c7 -10 14 -24 14 -30 0 -16 -26 -17 -36 -1
-5 8 -2 9 12 4 15 -6 14 -3 -5 18 -15 16 -19 26 -11 26 7 0 19 -8 26 -17z
m-40 -413 c-11 -50 -27 -89 -51 -124 -19 -28 -35 -56 -35 -63 0 -6 -12 -21
-26 -32 -21 -17 -24 -23 -14 -40 6 -12 15 -21 20 -21 6 0 10 -10 10 -22 0 -12
-3 -18 -7 -15 -3 4 -12 2 -18 -3 -8 -7 -23 -1 -48 18 -36 27 -36 28 -37 100 0
64 2 72 19 72 11 0 21 -5 23 -12 3 -7 10 10 17 38 8 27 22 56 32 65 10 9 15
20 11 23 -3 4 1 4 9 1 19 -7 62 40 88 94 23 49 26 14 7 -79z m-1558 -10 c82
-60 136 -80 213 -80 73 0 139 24 212 79 l57 41 22 -22 c18 -18 23 -34 23 -77
0 -46 4 -56 27 -74 23 -17 40 -19 129 -18 119 1 140 -8 170 -72 10 -23 19 -47
19 -53 0 -7 -33 -14 -82 -18 -67 -6 -91 -13 -132 -37 -27 -17 -56 -37 -63 -45
-8 -8 -18 -14 -22 -14 -4 0 -34 -31 -67 -70 -32 -38 -66 -72 -75 -75 -9 -3
-22 -19 -29 -35 -12 -30 -35 -44 -24 -15 12 31 -14 13 -101 -70 -49 -47 -114
-102 -145 -123 -30 -20 -73 -52 -95 -70 l-40 -33 -17 21 c-59 73 -117 408
-109 630 3 63 5 149 5 190 1 109 21 115 124 40z m1388 -87 c-10 -10 -19 5 -10
18 6 11 8 11 12 0 2 -7 1 -15 -2 -18z m-1916 -13 c0 -5 -4 -10 -10 -10 -5 0
-10 5 -10 10 0 6 5 10 10 10 6 0 10 -4 10 -10z m2022 -132 c-7 -7 -12 -8 -12
-2 0 14 12 26 19 19 2 -3 -1 -11 -7 -17z m190 -470 c-7 -7 -12 -8 -12 -2 0 14
12 26 19 19 2 -3 -1 -11 -7 -17z m68 -18 c0 -11 -4 -20 -10 -20 -5 0 -10 9
-10 20 0 11 5 20 10 20 6 0 10 -9 10 -20z m-16 -55 c-4 -8 -10 -15 -15 -15 -4
0 -6 7 -3 15 4 8 10 15 15 15 4 0 6 -7 3 -15z"/>
<path d="M858 1001 c-23 -24 -24 -28 -8 -24 11 3 20 10 20 15 0 5 5 6 10 3 6
-3 10 3 10 14 0 26 1 26 -32 -8z"/>
<path d="M203 868 c8 -82 88 -267 134 -313 30 -30 33 -14 4 23 -57 71 -145
302 -126 332 3 6 1 10 -6 10 -8 0 -10 -15 -6 -52z"/>
</g>
</svg>
