<?xml version="1.0" standalone="no"?>
<!DOCTYPE svg PUBLIC "-//W3C//DTD SVG 20010904//EN"
 "http://www.w3.org/TR/2001/REC-SVG-20010904/DTD/svg10.dtd">
<svg version="1.0" xmlns="http://www.w3.org/2000/svg"
 width="352.000000pt" height="1000.000000pt" viewBox="0 0 352.000000 1000.000000"
 preserveAspectRatio="xMidYMid meet">

<g transform="translate(0.000000,1000.000000) scale(0.100000,-0.100000)"
fill="#000000" stroke="none">
<path d="M1478 9481 c-53 -3 -98 -8 -101 -11 -28 -35 -37 -61 -37 -111 0 -38
-5 -61 -15 -69 -21 -17 -22 -258 -1 -298 11 -22 12 -108 5 -507 -12 -688 -28
-1223 -39 -1290 -21 -126 -88 -208 -280 -340 -185 -127 -280 -228 -365 -388
-57 -106 -90 -211 -111 -345 -13 -89 -15 -156 -10 -392 32 -1455 60 -2697 76
-3330 6 -217 14 -584 20 -815 22 -971 22 -955 45 -1011 27 -66 102 -94 318
-121 122 -15 232 -18 767 -18 640 0 748 5 903 41 78 19 122 51 144 103 17 40
19 88 33 716 6 253 12 539 15 635 3 96 10 387 15 645 5 259 12 526 15 595 3
69 7 251 10 405 3 154 7 336 10 405 3 69 7 249 10 400 3 151 7 331 10 400 3
69 7 249 10 400 4 151 10 400 15 553 10 294 5 382 -30 517 -57 223 -192 402
-428 569 -209 147 -282 240 -302 382 -11 76 -27 818 -29 1314 -1 154 -4 314
-7 356 -5 59 -3 82 10 107 22 43 23 277 1 306 -9 12 -15 43 -16 75 0 34 -7 68
-18 86 -16 28 -23 31 -87 36 -87 8 -428 8 -556 0z m462 -30 c0 -5 24 -13 54
-16 l54 -7 4 -44 c3 -48 0 -51 -62 -55 -67 -5 -80 0 -80 29 0 15 6 34 12 40
10 10 10 15 -2 22 -10 6 -11 10 -3 10 7 0 10 7 7 15 -4 8 -1 15 5 15 6 0 11
-4 11 -9z m133 -178 c5 -3 4 -10 -1 -15 -6 -6 -7 -22 -1 -41 5 -18 9 -66 9
-109 l0 -76 -30 -7 c-17 -4 -53 -4 -81 0 -45 6 -49 9 -37 24 13 15 15 74 5
204 l-3 39 66 -7 c36 -4 69 -9 73 -12z m-33 -303 c18 -10 19 -36 21 -643 3
-720 3 -708 1 -998 -1 -210 -2 -216 -25 -242 -27 -32 -44 -33 -86 -9 -30 16
-31 20 -25 57 9 50 8 391 -1 405 -3 5 -2 10 4 10 8 0 9 102 1 120 -1 3 -1 10
0 15 3 14 1 369 -3 425 -1 25 0 60 4 78 4 17 3 35 -2 38 -5 3 -4 14 2 26 7 14
8 23 1 27 -6 4 -7 22 -4 46 4 22 6 63 5 90 -1 47 -3 292 -2 325 0 8 -3 59 -6
113 -4 54 -4 105 -1 112 6 18 87 21 116 5z m240 -2420 c9 -6 17 -5 21 1 7 12
69 -23 135 -78 48 -39 121 -144 157 -225 37 -82 49 -155 52 -303 l2 -130 106
-3 107 -3 0 -157 c0 -86 -5 -357 -10 -602 -5 -245 -16 -848 -24 -1340 -9 -492
-18 -986 -22 -1096 l-6 -202 -47 -6 c-172 -21 -696 -46 -991 -46 -392 0 -1081
36 -1102 58 -3 4 -11 297 -17 652 -6 355 -16 911 -21 1235 -6 325 -12 795 -13
1045 l-2 455 180 6 c99 4 477 7 841 8 l661 1 -3 118 c-2 64 -6 136 -9 160 -6
52 -51 187 -74 222 -9 14 -28 48 -41 75 -14 28 -33 59 -42 69 -10 11 -15 22
-12 25 4 3 9 0 11 -6 7 -18 21 -16 19 2 0 10 21 27 54 44 64 32 70 34 90 21z
m295 -4457 c-3 -153 -10 -375 -15 -493 -5 -118 -12 -343 -15 -500 -4 -157 -9
-316 -13 -355 -4 -38 -6 -96 -5 -127 2 -67 11 -61 -132 -78 -122 -14 -142 -13
-142 5 0 8 4 15 9 15 4 0 8 9 8 20 0 17 3 18 24 8 31 -14 56 -4 56 22 0 11 5
20 10 20 6 0 10 14 10 32 0 47 -21 158 -30 158 -4 0 -10 9 -13 20 -3 12 -14
20 -25 20 -11 0 -22 7 -25 15 -5 11 0 13 26 8 18 -3 34 -10 35 -15 7 -17 32
-7 32 12 0 11 -4 20 -10 20 -5 0 -10 14 -10 30 0 43 -35 42 -44 -1 -5 -25 -8
-28 -20 -17 -8 7 -10 14 -6 16 8 3 6 70 -6 197 -6 73 -9 345 -4 380 2 11 0 33
-4 48 -4 19 -3 26 4 22 10 -6 15 13 12 45 -1 8 -2 42 -3 75 -1 33 -6 68 -11
78 -5 10 -5 17 1 17 6 0 10 31 10 73 0 39 1 87 3 104 2 18 2 34 -2 35 -3 2 -3
41 0 86 3 46 2 86 -2 89 -5 2 -8 12 -8 21 0 15 2 15 11 2 7 -11 8 -4 3 24 -4
21 -7 55 -8 76 0 21 -4 36 -8 34 -5 -3 -8 -1 -8 5 0 18 44 23 253 29 l68 2 -6
-277z m-318 55 c-3 -8 -6 -5 -6 6 -1 11 2 17 5 13 3 -3 4 -12 1 -19z m30
-1330 c-3 -8 -6 -5 -6 6 -1 11 2 17 5 13 3 -3 4 -12 1 -19z m30 -40 c-3 -8 -6
-5 -6 6 -1 11 2 17 5 13 3 -3 4 -12 1 -19z m-387 -108 c0 -5 -2 -10 -4 -10 -3
0 -8 5 -11 10 -3 6 -1 10 4 10 6 0 11 -4 11 -10z"/>
<path d="M1660 5456 c0 -2 7 -6 15 -10 8 -3 15 -1 15 4 0 6 -7 10 -15 10 -8 0
-15 -2 -15 -4z"/>
<path d="M1813 5385 c-1 -42 2 -75 7 -75 6 0 10 16 10 35 0 21 5 35 13 35 8 0
8 3 -2 9 -9 6 -12 19 -8 40 5 21 3 31 -6 31 -8 0 -13 -24 -14 -75z"/>
<path d="M1860 5456 c0 -2 9 -6 20 -9 11 -3 18 -1 14 4 -5 9 -34 13 -34 5z"/>
<path d="M1611 5388 c4 -35 5 -66 3 -70 -3 -5 5 -8 18 -7 13 0 17 3 11 6 -7 2
-13 18 -13 34 0 24 4 29 25 29 14 0 25 4 25 9 0 4 -11 6 -25 3 -21 -4 -25 0
-26 19 -1 13 -1 27 0 32 0 4 -5 7 -12 7 -10 0 -12 -14 -6 -62z"/>
<path d="M1526 5425 c4 -8 8 -15 10 -15 2 0 4 7 4 15 0 8 -4 15 -10 15 -5 0
-7 -7 -4 -15z"/>
<path d="M1936 5418 c-9 -12 -16 -34 -16 -48 0 -28 25 -70 42 -70 6 0 4 8 -5
18 -10 10 -17 34 -17 52 0 18 7 42 17 52 9 10 11 18 5 18 -6 0 -18 -10 -26
-22z"/>
<path d="M2033 5422 c21 -23 22 -71 1 -100 -8 -12 -11 -22 -5 -22 16 0 41 42
41 70 0 28 -25 70 -42 70 -6 0 -4 -8 5 -18z"/>
<path d="M1420 5417 c0 -8 15 -24 33 -35 17 -12 49 -35 70 -52 32 -27 37 -29
37 -13 0 11 -11 23 -27 30 -16 7 -47 28 -70 49 -29 25 -43 32 -43 21z"/>
<path d="M2120 5368 c-7 -29 -17 -61 -22 -70 -6 -13 -5 -18 4 -18 8 0 19 28
29 70 9 39 12 70 8 70 -4 0 -13 -24 -19 -52z"/>
<path d="M1336 5388 c25 -77 32 -107 27 -112 -4 -3 1 -6 9 -6 13 0 13 8 -2 64
-10 35 -16 67 -12 70 3 3 -2 6 -12 6 -13 0 -16 -5 -10 -22z"/>
<path d="M1542 5380 c0 -14 2 -19 5 -12 2 6 2 18 0 25 -3 6 -5 1 -5 -13z"/>
<path d="M1268 5365 c2 -14 6 -25 8 -25 2 0 4 11 4 25 0 14 -4 25 -9 25 -4 0
-6 -11 -3 -25z"/>
<path d="M1868 5383 c7 -3 16 -2 19 1 4 3 -2 6 -13 5 -11 0 -14 -3 -6 -6z"/>
<path d="M2246 5356 c-3 -18 -15 -49 -25 -69 -10 -20 -17 -37 -16 -37 2 0 11
-3 21 -7 11 -4 15 -2 11 4 -7 11 19 99 35 119 5 7 3 14 -6 17 -10 4 -16 -4
-20 -27z"/>
<path d="M1432 5360 c0 -14 2 -19 5 -12 2 6 2 18 0 25 -3 6 -5 1 -5 -13z"/>
<path d="M1210 5360 c0 -5 5 -10 10 -10 6 0 10 5 10 10 0 6 -4 10 -10 10 -5 0
-10 -4 -10 -10z"/>
<path d="M2355 5301 c0 -31 -4 -66 -8 -78 -5 -14 -4 -23 1 -23 22 0 38 145 17
154 -6 2 -10 -19 -10 -53z"/>
<path d="M1179 5324 c22 -19 31 -34 31 -57 l0 -31 -50 49 c-27 27 -52 46 -55
43 -6 -6 88 -100 106 -106 5 -2 9 8 9 22 0 30 7 32 32 9 10 -9 18 -11 18 -5 0
16 -92 102 -108 102 -7 0 0 -12 17 -26z"/>
<path d="M1692 5325 c-11 -12 -10 -15 3 -15 8 0 15 7 15 15 0 18 -2 18 -18 0z"/>
<path d="M1440 5305 c0 -14 4 -25 9 -25 4 0 6 11 3 25 -2 14 -6 25 -8 25 -2 0
-4 -11 -4 -25z"/>
<path d="M2429 5303 c-13 -16 -12 -17 4 -4 16 13 21 21 13 21 -2 0 -10 -8 -17
-17z"/>
<path d="M2280 5229 c0 -5 5 -7 10 -4 6 3 10 8 10 11 0 2 -4 4 -10 4 -5 0 -10
-5 -10 -11z"/>
<path d="M1725 5191 c-58 -24 -82 -115 -41 -160 31 -34 87 -46 123 -28 44 23
68 78 53 123 -19 56 -82 86 -135 65z m45 -38 c0 27 26 20 38 -10 14 -35 25
-93 19 -93 -3 0 -15 15 -27 33 -13 19 -19 24 -16 12 17 -64 18 -75 7 -75 -6 0
-11 5 -11 11 0 6 -10 23 -21 37 l-22 27 7 -40 c6 -38 6 -39 -10 -20 -8 11 -24
36 -34 57 -18 33 -18 37 -3 42 9 4 20 1 25 -6 6 -8 7 -4 3 11 -10 33 16 48 32
18 10 -18 12 -19 13 -4z"/>
<path d="M1000 4431 c0 -6 22 -11 50 -11 28 0 50 -3 50 -8 0 -4 -22 -38 -50
-76 -27 -38 -50 -73 -50 -77 0 -5 32 -9 70 -9 83 0 94 18 14 22 l-56 3 55 75
c30 41 53 78 51 81 -6 11 -134 11 -134 0z"/>
<path d="M1180 4345 c0 -54 3 -96 6 -92 3 3 6 44 6 92 0 48 -3 89 -6 92 -3 4
-6 -38 -6 -92z"/>
<path d="M1250 4348 c0 -113 18 -134 22 -26 l3 71 59 -71 c32 -40 62 -69 67
-66 12 7 11 171 -1 179 -6 4 -10 -22 -10 -72 l-1 -78 -42 50 c-23 27 -54 63
-69 80 l-27 30 -1 -97z"/>
<path d="M1466 4433 c-3 -3 -5 -47 -4 -97 1 -50 3 -72 5 -48 l4 42 50 0 c27 0
49 5 49 10 0 6 -23 10 -51 10 l-50 0 3 33 c3 31 5 32 58 38 30 3 53 7 50 8
-13 7 -108 10 -114 4z"/>
<path d="M1940 4365 l-5 -80 -59 73 c-33 39 -64 72 -68 72 -4 0 -8 -40 -8 -90
0 -53 4 -90 10 -90 6 0 10 31 10 73 l0 72 38 -45 c20 -25 49 -58 63 -74 l26
-29 4 24 c2 13 2 58 -1 99 l-6 75 -4 -80z"/>
<path d="M2018 4431 c-13 -5 -15 -23 -14 -91 l1 -85 54 0 c46 1 57 5 77 29 29
33 31 85 6 116 -19 23 -94 42 -124 31z m85 -22 c30 -16 37 -28 37 -66 0 -46
-30 -73 -80 -73 l-40 0 0 75 0 75 31 0 c17 0 40 -5 52 -11z"/>
<path d="M2217 4432 c-15 -3 -17 -16 -14 -90 l3 -87 62 -3 c38 -2 62 1 62 8 0
6 -23 10 -55 10 -54 0 -55 0 -55 30 0 29 1 30 50 30 28 0 50 5 50 10 0 6 -22
10 -50 10 l-50 0 0 35 0 35 57 0 c31 0 53 3 50 6 -7 7 -84 11 -110 6z"/>
<path d="M1619 4345 c-42 -92 -43 -95 -31 -95 5 0 14 11 20 25 10 22 18 25 60
25 42 0 50 -3 60 -25 6 -14 16 -25 21 -25 6 0 1 20 -9 45 -11 25 -29 65 -40
90 -10 25 -24 45 -30 45 -6 0 -29 -38 -51 -85z m72 15 l18 -40 -40 0 c-23 0
-39 3 -37 8 2 4 10 24 17 44 17 43 18 42 42 -12z"/>
<path d="M2382 4343 l-2 -93 55 0 c30 0 55 5 55 10 0 6 -22 10 -50 10 l-49 0
-4 83 -3 82 -2 -92z"/>
<path d="M1201 3329 c-7 -23 -15 -47 -18 -55 -3 -8 -1 -14 3 -14 5 0 16 25 25
55 9 30 13 55 9 55 -4 0 -12 -18 -19 -41z"/>
<path d="M1686 3327 c-9 -23 -16 -49 -15 -57 0 -8 9 9 20 39 23 65 19 80 -5
18z"/>
<path d="M1901 3304 c-7 -20 -11 -38 -8 -40 3 -3 10 11 17 31 16 47 8 55 -9 9z"/>
<path d="M1300 3310 c0 -5 5 -10 10 -10 6 0 10 5 10 10 0 6 -4 10 -10 10 -5 0
-10 -4 -10 -10z"/>
<path d="M1367 3293 c-5 -26 -2 -42 7 -32 9 11 15 59 7 59 -5 0 -11 -12 -14
-27z"/>
<path d="M1416 3294 c-10 -38 0 -41 12 -5 6 17 7 31 3 31 -5 0 -12 -12 -15
-26z"/>
<path d="M1476 3294 c-4 -14 -5 -29 -2 -31 3 -3 8 7 12 21 3 15 4 29 1 32 -2
3 -8 -7 -11 -22z"/>
<path d="M1516 3294 c-4 -14 -5 -29 -2 -31 3 -3 8 7 12 21 3 15 4 29 1 32 -2
3 -8 -7 -11 -22z"/>
<path d="M1627 3293 c-5 -26 -2 -42 7 -32 9 11 15 59 7 59 -5 0 -11 -12 -14
-27z"/>
<path d="M1710 3299 c0 -11 5 -17 10 -14 6 3 10 13 10 21 0 8 -4 14 -10 14 -5
0 -10 -9 -10 -21z"/>
<path d="M1784 3301 c0 -11 4 -17 8 -15 4 3 8 12 8 20 0 8 -4 14 -8 14 -4 0
-8 -9 -8 -19z"/>
<path d="M1816 3294 c-4 -14 -5 -28 -3 -31 3 -2 8 8 11 23 4 14 5 28 3 31 -3
2 -8 -8 -11 -23z"/>
<path d="M1856 3294 c-4 -14 -5 -28 -3 -31 3 -2 8 8 11 23 4 14 5 28 3 31 -3
2 -8 -8 -11 -23z"/>
<path d="M1992 3295 c0 -16 2 -22 5 -12 2 9 2 23 0 30 -3 6 -5 -1 -5 -18z"/>
<path d="M2050 3309 c0 -5 5 -7 10 -4 6 3 10 8 10 11 0 2 -4 4 -10 4 -5 0 -10
-5 -10 -11z"/>
<path d="M2086 3294 c-4 -14 -5 -28 -3 -31 3 -2 8 8 11 23 4 14 5 28 3 31 -3
2 -8 -8 -11 -23z"/>
<path d="M2166 3294 c-9 -35 -2 -40 12 -9 6 13 7 27 3 30 -5 2 -12 -7 -15 -21z"/>
<path d="M2022 3285 c0 -16 2 -22 5 -12 2 9 2 23 0 30 -3 6 -5 -1 -5 -18z"/>
<path d="M2125 3290 c-4 -12 -5 -24 -2 -27 3 -2 8 5 12 17 4 12 5 24 2 27 -3
2 -8 -5 -12 -17z"/>
<path d="M1255 3284 c-9 -9 -13 -19 -9 -23 4 -3 9 0 12 8 3 10 6 10 12 1 5 -8
9 -5 13 9 6 25 -5 27 -28 5z"/>
<path d="M1327 3286 c-4 -10 -5 -21 -2 -24 9 -9 17 6 13 25 -3 17 -4 17 -11
-1z"/>
<path d="M1743 3285 c-3 -9 -3 -18 -1 -21 3 -3 8 4 11 16 6 23 -1 27 -10 5z"/>
<path d="M2203 3285 c-3 -9 -3 -18 -1 -21 3 -3 8 4 11 16 6 23 -1 27 -10 5z"/>
<path d="M1586 3281 c-4 -7 -5 -15 -2 -18 9 -9 19 4 14 18 -4 11 -6 11 -12 0z"/>
<path d="M1630 3164 c0 -8 5 -12 10 -9 6 4 8 11 5 16 -9 14 -15 11 -15 -7z"/>
<path d="M1395 3161 c-3 -5 -1 -12 5 -16 5 -3 10 1 10 9 0 18 -6 21 -15 7z"/>
<path d="M1733 3153 c-3 -10 -12 -33 -20 -52 -7 -19 -10 -38 -6 -42 5 -5 18
19 29 51 12 33 17 60 12 60 -5 0 -11 -8 -15 -17z"/>
<path d="M1772 3118 c-20 -53 -20 -68 -1 -68 6 0 8 4 4 9 -3 5 4 32 15 60 11
28 16 51 11 51 -5 0 -18 -24 -29 -52z"/>
<path d="M1600 3133 c-7 -16 -13 -31 -12 -36 4 -16 -28 -78 -38 -72 -5 3 -10
1 -10 -4 0 -31 41 6 61 54 12 29 22 85 15 85 -1 0 -9 -12 -16 -27z"/>
<path d="M1277 3103 c-11 -10 -8 -43 3 -43 6 0 10 11 10 25 0 26 -2 29 -13 18z"/>
<path d="M1303 3094 c-3 -8 -1 -20 6 -27 8 -8 11 -4 11 16 0 30 -7 35 -17 11z"/>
<path d="M1340 3094 c0 -8 5 -12 10 -9 6 3 10 10 10 16 0 5 -4 9 -10 9 -5 0
-10 -7 -10 -16z"/>
<path d="M1371 3088 c-9 -25 -6 -38 10 -38 6 0 9 6 6 13 -2 6 0 20 5 30 6 11
5 17 -2 17 -6 0 -14 -10 -19 -22z"/>
<path d="M1426 3094 c-3 -9 -6 -23 -6 -32 1 -12 5 -10 15 8 8 14 14 28 15 33
0 13 -18 7 -24 -9z"/>
<path d="M1466 3084 c-6 -24 -2 -43 8 -33 11 10 17 59 8 59 -5 0 -13 -12 -16
-26z"/>
<path d="M1516 3091 c-19 -21 -14 -41 11 -41 11 0 13 3 5 13 -13 15 1 43 16
33 6 -3 13 -2 17 4 11 18 -32 10 -49 -9z"/>
<path d="M1636 3094 c-19 -18 -20 -30 -6 -39 15 -9 60 22 60 40 0 20 -34 19
-54 -1z m34 -3 c0 -5 -7 -14 -15 -21 -12 -10 -15 -10 -15 2 0 8 3 18 7 21 9
10 23 9 23 -2z"/>
<path d="M1818 3080 c2 -16 8 -30 11 -30 4 0 8 14 8 30 0 17 -6 30 -12 30 -7
0 -10 -11 -7 -30z"/>
<path d="M1860 3095 c0 -9 -7 -30 -16 -46 -12 -25 -18 -28 -30 -18 -11 9 -14
8 -14 -5 0 -39 54 -1 78 57 10 22 9 27 -3 27 -8 0 -15 -7 -15 -15z"/>
<path d="M1945 3096 c-11 -8 -16 -19 -12 -30 9 -24 24 -20 23 7 -1 16 4 21 17
19 9 -2 17 2 17 8 0 14 -23 13 -45 -4z"/>
<path d="M2006 3094 c-19 -18 -20 -30 -6 -39 15 -9 60 22 60 40 0 20 -34 19
-54 -1z m34 -3 c0 -5 -7 -14 -15 -21 -12 -10 -15 -10 -15 2 0 8 3 18 7 21 9
10 23 9 23 -2z"/>
<path d="M2076 3084 c-9 -36 1 -43 14 -10 12 33 12 36 1 36 -5 0 -12 -12 -15
-26z"/>
<path d="M2117 3083 c-5 -27 -2 -41 7 -32 11 10 17 59 8 59 -5 0 -12 -12 -15
-27z"/>
<path d="M2163 3098 c0 -7 -2 -19 -4 -27 -2 -7 2 -16 10 -18 8 -4 12 0 9 8 -3
8 -1 22 4 32 6 12 5 17 -5 17 -8 0 -14 -6 -14 -12z"/>
<path d="M1890 3065 c0 -8 5 -15 10 -15 6 0 10 7 10 15 0 8 -4 15 -10 15 -5 0
-10 -7 -10 -15z"/>
<path d="M2390 707 c0 -19 10 -27 26 -20 21 8 17 33 -6 33 -11 0 -20 -6 -20
-13z"/>
</g>
</svg>
